<svg width="42" height="67" viewBox="0 0 42 67" fill="none" xmlns="http://www.w3.org/2000/svg">
<path fill-rule="evenodd" clip-rule="evenodd" d="M19.3704 49.5624C19.2143 49.5624 17.9098 48.3078 17.619 48.0375C17.4014 47.8355 17.2271 47.7396 16.9849 47.5518C15.8346 46.66 14.5035 45.4099 15.2173 43.8039C15.4369 43.3085 15.9369 42.7848 16.4311 42.4328C16.8534 42.1323 19.0031 40.5425 19.1981 40.5425C19.7098 40.5425 19.3192 41.3332 19.417 42.0358C19.4727 42.4302 19.4578 42.7938 19.4572 43.2055C19.4565 44.3926 19.4429 47.703 19.5518 48.6951C19.5854 49.0052 19.816 49.5624 19.3704 49.5624ZM22.4626 67.0001H20.3497C20.1619 66.982 19.9792 66.955 19.8024 66.9138L19.8005 65.629C19.8491 64.7121 19.7234 63.6595 19.713 62.7941C19.6994 61.6636 19.7428 56.2294 19.6301 55.7475C19.0265 55.7475 19.1988 55.835 18.816 56.1413C18.5621 56.3439 18.3444 56.4495 18.1074 56.6393C17.4661 57.1527 17.0516 58.0374 16.6377 58.702C16.2666 59.2978 15.9116 60.7674 15.9116 61.5021C15.9116 62.482 15.8501 64.2881 16.9577 64.6799C17.7537 64.9617 18.0122 63.812 18.9377 63.7354C19.3218 64.3055 19.2136 64.8189 18.9105 65.4263C18.4766 66.2981 17.1416 66.9286 16.2413 66.3277C16.0982 66.2325 16.128 66.2331 15.9375 66.1141C13.8325 64.8028 13.861 60.5357 14.6745 58.4691C15.194 57.1495 16.6617 55.3396 17.7252 54.5424C20.1399 52.7312 19.84 52.9307 18.5912 52.0537L16.4887 50.534C15.4906 49.7291 14.4647 48.9396 13.5533 48.0382C12.9186 47.4089 12.6673 46.559 12.2786 45.7824C11.8298 44.8868 11.8926 43.6746 11.9328 42.6902C11.9587 42.0583 12.1044 41.7431 12.3369 41.2869C12.5921 40.787 12.6388 40.5566 12.9523 40.094C13.3927 39.4435 14.1013 38.7512 14.7354 38.2577C15.5755 37.6027 15.6953 37.689 16.4304 37.2791C16.7005 37.1286 16.7226 37.1112 16.8618 36.8487C16.2892 36.4678 15.5904 36.2239 15.0087 35.8553C14.7879 35.7143 14.6816 35.6101 14.4569 35.4583C13.7114 34.9551 13.1181 34.3703 12.4729 33.7352L10.8582 31.5592C10.6956 31.2974 9.49543 28.7353 9.41447 28.3557C9.23765 27.5244 8.96172 26.9003 9.06536 26.0143C9.14956 25.2963 9.08479 24.909 9.23182 24.2874C9.58482 22.7934 10.4217 22.0336 11.5972 21.1392C12.1737 20.7011 13.4879 20.3562 14.5268 20.3562C15.2264 20.3562 15.7827 20.6264 16.2588 20.869C16.6779 21.0826 17.1034 21.5227 17.3949 21.8875C18.4863 23.2528 19.1087 25.4179 17.9267 26.9975C17.7971 27.1705 17.7336 27.2709 17.5873 27.4337C17.4681 27.5662 17.5426 27.4845 17.4584 27.5637C17.1811 27.8249 16.9849 28.0308 16.6325 28.2032C16.3139 28.3596 15.8333 28.6877 15.4777 28.6877C15.1622 28.6877 14.8973 28.3969 14.8973 28.1015C14.8967 27.3758 15.4492 27.0425 15.4777 26.2833C15.5101 25.4398 15.6377 24.9077 15.4284 24.0983C15.249 23.404 14.2516 22.4177 13.4886 22.4177C12.9199 22.4177 11.9826 22.7284 11.6568 23.0888C10.5421 24.3209 10.9845 26.1797 11.708 27.4511C12.4347 28.7295 12.6355 28.7327 13.6019 29.5209C14.2503 30.0498 15.8378 31.0464 16.5878 31.4511C18.4636 32.4632 19.5861 33.6091 19.3205 32.0038C19.1418 30.9255 19.327 25.6888 19.2855 24.3054C19.2719 23.8653 19.1942 23.7772 19.1929 23.2805C19.1916 22.3032 18.9215 20.8973 19.862 20.6747C20.2662 20.5795 21.4444 20.593 22.0033 20.6354C23.7573 20.7693 23.2132 21.5755 23.2022 22.8295L23.0844 27.5694C23.0546 28.5654 22.971 32.5732 23.0869 33.0693C23.5501 33.0307 23.4853 32.9149 23.7832 32.7302L25.1046 31.9807C25.4161 31.7999 25.3449 31.7677 25.6933 31.6203C26.1079 31.4453 25.9965 31.4614 26.3359 31.2279C26.6396 31.0181 26.7646 31.0554 27.0295 30.8862C27.3243 30.6983 27.2239 30.6263 27.6183 30.4403C27.8502 30.331 27.7323 30.4178 27.9661 30.2711C28.6449 29.8433 29.4423 29.315 29.9449 28.7141C30.1075 28.5191 30.2597 28.4329 30.4022 28.2232C30.5829 27.9561 30.5894 27.8551 30.796 27.5836C30.9832 27.3378 31.0162 27.2902 31.1425 26.9827C31.6173 25.8316 31.6477 25.8059 31.6477 24.5641C31.6477 22.8365 28.9908 21.625 27.8288 23.0894C26.8832 24.2816 27.1513 24.2411 27.1513 26.3676C27.1513 27.3462 27.6701 27.2484 27.6701 28.2572C27.6701 29.2397 25.909 28.2566 25.5295 27.8924C25.0858 27.4659 24.6939 27.2027 24.4115 26.5979C23.7502 25.1811 24.0261 24.3588 24.4692 23.016C24.7172 22.2645 25.841 21.0768 26.5133 20.7519C27.5704 20.241 28.869 20.342 29.9397 20.6773C30.4585 20.8394 30.8957 21.0318 31.3154 21.3721L32.0156 21.9654C32.3336 22.2407 32.3893 22.3855 32.6368 22.7227C33.9555 24.5184 33.7521 27.3462 32.7702 29.2861C32.5966 29.629 32.6277 29.7583 32.4917 30.1257C32.1672 31.0027 31.3834 32.1518 30.8348 32.9471C30.351 33.649 29.6962 34.1168 29.0886 34.7338C29.0757 34.7467 29.0582 34.764 29.0452 34.7769L28.8626 34.939C28.7252 35.0549 28.7272 35.0516 28.5737 35.1668L26.512 36.4691C26.1176 36.6801 26.023 36.4999 25.7678 36.8461C25.8986 37.3319 26.378 37.3801 26.8456 37.5796C27.229 37.7437 27.6054 38.0435 27.9085 38.3279C28.1507 38.555 28.1436 38.564 28.4318 38.7525C29.1631 39.2319 30.0012 40.5296 30.2972 41.366C30.9326 43.1624 30.9093 44.031 30.318 45.8332C30.1411 46.3718 29.9598 46.5506 29.7149 47.0377C29.4623 47.5402 29.3736 47.7448 28.9915 48.1231C28.6482 48.4628 28.3282 48.6127 27.9927 48.9351C26.5418 50.3268 26.867 49.8011 26.0068 50.5706L25.0022 51.3768C24.5035 51.768 22.914 52.5388 22.914 52.9101C22.914 53.2099 24.1336 53.9324 24.4063 54.1763C24.6382 54.3835 24.9329 54.626 25.1622 54.7991C25.76 55.2514 26.2005 55.9663 26.7277 56.5074L27.3832 57.403C27.5037 57.6172 27.5296 57.6121 27.6416 57.8334C27.8074 58.1609 27.8729 58.4543 28.0452 58.8069C28.7777 60.3073 28.4811 64.1388 27.3372 65.5511C25.692 67.5817 23.3454 66.0948 23.3454 64.42C23.3454 64.0037 23.5293 63.8879 23.6913 63.6473C24.1991 63.765 24.5145 64.0578 24.8267 64.4097C25.7989 65.5048 26.6319 63.7798 26.6319 62.8745C26.6319 61.6591 26.6338 60.4617 26.2478 59.3043C25.9207 58.3243 25.1065 57.0864 24.2982 56.517C23.927 56.2558 23.3117 55.6651 22.9134 55.5731C22.6323 56.1541 22.8266 56.0505 22.8266 56.6901C22.8266 58.545 22.9866 61.5401 22.7637 63.1557C22.688 63.7058 22.7404 64.6034 22.7404 65.194C22.7404 65.5588 22.9432 66.9981 22.4807 66.9981H22.4626V67.0001ZM23.0882 49.7342C22.6258 49.7342 22.916 48.8553 22.9153 47.6727L22.9069 40.8783C22.9166 40.4273 22.9956 40.1893 23.357 40.4357C24.1919 41.0025 24.7561 41.478 25.7665 42.0918L26.944 43.1554C27.7692 44.2028 27.8742 45.5572 26.7821 46.5326L25.7328 47.4656C25.3364 47.8259 24.0643 48.7685 23.7418 49.1815C23.6019 49.3604 23.3337 49.7342 23.0882 49.7342Z" fill="white"/>
<path fill-rule="evenodd" clip-rule="evenodd" d="M30.2653 14.4111C30.6539 14.514 31.0859 14.6555 32.2136 14.3042C32.4882 14.2187 32.5705 14.1273 32.893 14.034C33.4662 13.8674 33.8626 13.9388 34.318 13.6454C34.6509 13.4311 35.5175 12.7022 35.6477 12.2987C35.7151 12.0896 35.7578 11.7563 35.6037 11.535C35.4787 11.3555 35.16 11.2925 34.7649 11.2886L30.2063 11.8863C30.102 11.9674 30.0055 12.0806 29.9285 12.2511L30.2653 14.4111ZM28.6408 7.3297C28.4439 6.85294 28.2891 6.33306 28.6836 5.90134C29.3701 5.15112 30.595 5.00057 31.8288 4.90341L36.8227 4.28124C37.2009 4.23555 37.5986 4.12489 37.9594 4.03674C39.1402 3.74849 40.0586 3.71182 40.9233 2.85737C42.3003 1.49721 41.9791 1.503 41.9389 0H41.8858H41.0023C40.1985 0.00450386 39.4226 0.0328138 38.7464 0.178224C38.6466 0.199456 37.0396 0.871174 36.208 1.00693L27.3143 3.85401C26.1925 4.28317 24.9579 4.56562 24.4359 6.06283C24.1218 6.96103 24.2655 7.85665 24.7805 8.62617L26.8253 11.5775C27.4464 12.4905 28.5456 15.1709 26.4393 13.0779C24.7338 11.3832 23.3128 10.1658 20.6889 10.5011C20.0386 10.5841 19.8793 10.6587 19.3708 10.9103C18.3014 11.4404 18.3034 11.333 17.3156 12.2183C17.155 12.3624 17.0222 12.4274 16.8609 12.54C15.8389 13.2555 16.2715 13.6576 15.3919 13.6576C15.1057 13.1204 15.3019 13.1152 15.6018 12.062C15.8499 11.1895 15.8531 11.3195 16.2936 10.6014C16.837 9.71482 16.5403 10.3814 17.0902 9.24577L17.8429 7.84572C18.5171 6.4907 17.8843 5.78038 16.9283 4.91564L15.5234 4.16349C15.2209 4.01937 14.98 4.0258 14.6516 3.91256C14.3342 3.80383 14.2228 3.69187 13.8698 3.5722L10.722 2.40506C10.2168 2.17794 9.62151 2.09751 9.10852 1.86009C8.46729 1.56412 8.01454 1.60659 7.31761 1.40585C6.37325 1.13433 6.9808 1.2302 5.62644 0.939376C5.3421 0.878252 5.07913 0.786888 4.83235 0.697454C4.12441 0.440091 3.14766 0.0321704 2.36005 0H1.67024C1.14883 0.000643408 0.62743 0 0.105377 0H0.0704006H0.0354243H-0.000199625C-0.000199625 1.78803 -0.0423007 2.16249 0.890399 2.98091L1.07241 3.14369C2.32054 4.37389 2.57509 4.05025 4.37442 4.41635C5.73461 4.69302 6.8383 4.79725 8.21015 4.90084C8.80151 4.94523 9.53083 5.10544 10.1222 5.14919C11.2479 5.23155 13.4372 5.06684 13.7034 5.9734C13.9236 6.72297 13.3905 7.96346 13.226 8.58628C13.1263 8.96332 13.1761 9.16149 13.1211 9.599C12.9695 10.8163 12.5375 11.8471 12.5349 13.3115C12.5343 13.9279 12.463 14.9374 12.6081 15.3916C12.7584 15.8607 13.2837 16.468 13.3147 16.8496C13.3381 17.1365 13.2901 17.1906 12.9864 17.5393C12.7998 17.7523 12.621 17.8417 12.3885 18.0624C11.8723 18.5527 11.3496 18.249 11.3269 19.2411C11.7952 19.5525 11.6786 19.5011 12.2881 19.4283L14.6225 19.337C15.002 19.317 15.3129 19.4174 15.8227 19.4148L31.3022 19.4135C31.5199 18.4838 31.3087 18.6614 30.7115 18.2824C30.5088 18.1538 29.7704 17.5206 29.6597 17.3514C28.8559 16.1225 29.7782 15.6245 29.9123 14.413L28.6408 7.3297ZM29.7626 11.1882C29.8708 11.2043 30.0023 11.286 30.0897 11.3317C30.207 11.3922 30.2938 11.4372 30.3825 11.4745L32.8425 11.1522C32.9118 11.1342 32.9818 11.1174 33.053 11.1014C33.4747 11.0094 33.6288 11.0325 34.0375 10.9952L34.2189 10.9714L35.2442 10.7867C35.9055 10.6954 36.4554 10.5165 36.9185 10.0449C37.1349 9.82548 37.2942 9.67492 37.3862 9.29853C37.473 8.94208 37.4451 8.6088 37.072 8.44344C36.2864 8.09536 34.6885 8.54253 33.8989 8.67764C33.0368 8.82498 31.3126 8.82627 30.3469 8.84236C29.8035 8.85136 29.5709 9.01801 29.4725 9.32298L29.7626 11.1882Z" fill="white"/>
<path fill-rule="evenodd" clip-rule="evenodd" d="M6.9078 11.27C6.40713 11.259 5.96733 11.3658 5.96733 11.9397C5.96733 12.5503 6.77438 13.1024 7.15652 13.4209C7.89556 14.036 8.35738 13.7632 9.19616 14.1434C9.54786 14.303 11.0862 14.7141 11.4172 14.5256C11.7999 14.3075 11.8466 12.8508 11.8466 12.1971C11.8466 12.1778 11.7553 12.0234 11.5998 11.8851L6.9078 11.27ZM4.41089 8.84688C4.41089 9.77146 5.06443 10.3306 5.80476 10.6407C6.03793 10.7385 6.45247 10.7597 6.68435 10.7977C7.33205 10.9032 7.75825 10.929 8.45324 11.0158C8.57695 11.0313 8.86324 11.0943 9.16183 11.176L11.5124 11.4842C12.2624 11.3285 12.366 10.494 12.366 9.53469C12.366 8.90736 11.8829 8.73236 11.2954 8.80828C10.7461 8.87905 8.18703 8.72078 7.65785 8.62877C7.40136 8.58309 4.41089 7.82515 4.41089 8.84688Z" fill="white"/>
<path fill-rule="evenodd" clip-rule="evenodd" d="M12.7981 6.69984C12.7981 5.38342 12.004 5.90265 10.7462 5.73151C9.96372 5.62535 8.94293 5.6588 8.0899 5.53591C7.29452 5.42074 6.40845 5.26375 5.62019 5.23994C4.34421 5.20134 3.59481 4.81079 3.19906 4.81079C1.9438 4.81079 2.41598 5.95027 2.79294 6.58853C2.97884 6.90315 2.97625 6.93339 3.25929 7.15601C3.69585 7.49959 4.00545 7.74216 4.68037 7.80585L6.63191 8.01496C7.36836 8.11533 11.9392 8.59789 12.3279 8.38492C12.7767 8.1385 12.7981 7.36062 12.7981 6.69984Z" fill="white"/>
<path fill-rule="evenodd" clip-rule="evenodd" d="M28.9688 6.52799C28.9688 8.92597 29.6683 8.49811 31.7403 8.33661C32.0687 8.31087 32.3161 8.34433 32.6516 8.29672L36.0119 7.94091C37.5872 7.65009 37.3799 8.07925 38.5127 7.1611C38.6999 7.0099 38.6015 7.09097 38.7692 6.90052C39.6572 5.89359 39.3904 4.80945 38.7401 4.80945C38.2226 4.80945 37.968 4.96644 37.593 5.04429C36.5016 5.27013 35.0158 5.33254 33.7521 5.52363L29.7104 5.80416C29.3023 5.91032 28.9688 6.06023 28.9688 6.52799Z" fill="white"/>
</svg>
