<svg width="61" height="77" viewBox="0 0 61 77" fill="none" xmlns="http://www.w3.org/2000/svg">
<path fill-rule="evenodd" clip-rule="evenodd" d="M33.6779 31.0513C35.0138 30.812 35.486 32.71 33.6113 34.141C33.0865 34.5423 30.3667 35.6158 28.8342 36.5771C23.8604 39.6977 26.5571 44.4106 29.0885 45.2719L31.0766 43.8338L31.2054 38.2861C32.3561 38.7229 33.3466 40.2609 33.0487 41.8016C32.745 43.3661 31.5488 43.7461 30.4821 44.508C29.1481 45.4609 26.8275 47.2602 28.4145 49.3647C29.061 50.2215 29.0738 49.9215 30.0246 50.3705L30.0618 51.4595L30.9075 51.4241C30.9511 49.986 30.8485 50.4137 31.693 50.1325C32.2639 49.9428 32.8777 49.0647 33.0199 48.4402C33.3287 47.0841 32.4055 46.1622 31.9461 45.5344C31.3829 45.6422 30.4641 46.3538 29.9567 46.6177L30.0131 49.5854C29.1641 49.355 28.4952 48.477 29.0136 47.4344C29.9586 45.537 33.1045 45.5712 34.4397 42.9067C35.3066 41.1764 34.8683 39.0351 33.799 37.8687C32.7732 36.75 32.6694 36.8403 31.7897 37.301C31.1388 37.641 30.3667 38.2184 29.7799 38.4809L29.915 44.0273C28.9931 43.7512 28.1467 42.839 27.9507 41.8048C27.1197 37.4287 34.3346 37.4216 35.9716 33.6732C37.2037 30.852 34.7914 28.7442 32.7553 29.9462C32.0172 30.3817 31.3374 32.2423 33.0167 32.2481C32.8495 31.5016 33.0071 31.1713 33.6779 31.0513ZM30.9684 49.637L31.0401 46.4235C31.4444 46.6241 32.1338 47.3783 32.1479 48.1009C32.1658 48.9957 31.586 49.3796 30.9684 49.637Z" fill="white"/>
<path fill-rule="evenodd" clip-rule="evenodd" d="M22.8635 22.3598C24.3538 22.3598 26.823 21.8927 25.739 24.1527C25.5109 24.6288 24.8433 25.2017 25.229 25.9269C25.68 26.7727 26.0503 26.6495 25.623 27.7488C24.8817 27.9114 24.3416 27.7824 24.1218 28.452L36.9083 28.4585C36.545 27.7495 36.1472 27.9211 35.3771 27.7475C34.9189 26.6908 35.345 26.6669 35.7704 25.9275C36.3951 24.8424 33.906 23.2147 35.6083 22.4359C36.2202 22.156 37.3869 22.3598 38.1366 22.3598C39.5115 22.3598 40.814 21.5237 40.8365 20.2598C40.4264 20.3134 40.0324 20.6282 39.5698 20.7482C38.3659 21.0592 35.8467 21.0469 34.8632 21.4882C34.4224 21.6856 33.2089 22.6372 33.3274 23.4611C33.4594 24.3856 34.6204 25.3398 33.5639 25.8321C32.8514 25.932 32.5631 23.5353 30.2578 23.794C29.3577 23.8953 28.8944 24.2127 28.4549 24.7327C28.107 25.1443 27.8039 26.3243 27.1005 25.605C26.7397 24.7824 27.9462 24.0134 27.6316 22.9411C27.4644 22.3747 26.5136 21.574 25.7774 21.3618C24.7343 21.0605 22.506 21.0192 21.4328 20.7418C20.9369 20.6134 20.6294 20.3231 20.1623 20.254C20.1809 21.6089 21.6391 22.3598 22.8635 22.3598Z" fill="white"/>
<path fill-rule="evenodd" clip-rule="evenodd" d="M29.7094 35.1926C28.5676 34.919 27.0287 34.1971 26.4347 33.1384C25.1162 30.7894 28.4356 30.2075 27.9769 32.2487C29.4204 32.2461 29.0046 30.9158 28.8092 30.5533C27.893 28.8565 23.797 29.5126 24.8234 33.1932C25.2603 34.759 26.3399 35.4319 27.5073 36.1764C28.46 36.7842 28.3286 36.6339 29.2782 36.0461C29.867 35.6816 30.5307 35.2952 31.2599 35.0726L31.42 29.0229H29.5992L29.7094 35.1926Z" fill="white"/>
<path fill-rule="evenodd" clip-rule="evenodd" d="M60.902 0.0974121L34.3436 0.145799C33.3274 -0.0464577 32.1082 0.873535 31.5597 1.60643C31.0568 2.27868 30.452 3.67996 30.452 4.80124H30.3546C30.3546 3.2948 29.8433 2.17998 29.0815 1.38127L27.893 0.52128C27.4445 0.309668 26.6148 0.0251547 25.9773 0.147089L0.0974121 0.0987024L0.0980528 18.6134L0.0986935 18.6785L4.08578 18.7308L4.13448 66.1259C4.04606 66.6349 4.4087 67.4665 4.60347 67.8581C4.74699 68.1439 4.83861 68.362 5.00007 68.6343C8.85197 75.12 23.3216 71.3187 26.9185 73.0136C27.5637 73.3174 27.7738 73.571 28.2383 74.0368C28.8643 74.6645 29.8465 76.0419 29.8677 77H31.3265C31.3265 74.5755 33.7285 72.6471 35.9928 72.5884C38.965 72.511 42.0583 72.5916 45.044 72.5916C48.1059 72.5916 50.9987 72.582 53.1476 71.6407C54.1182 71.2155 55.1222 70.5207 55.6899 69.6936C56.1262 69.0581 57.0482 67.3801 56.8713 66.3214L56.9328 18.6876L60.902 18.6811V0.196121V0.0974121ZM51.3293 9.33927C50.8064 7.13606 54.0285 7.56961 54.8096 7.51671L55.1741 7.58122L55.1254 12.6012C54.7186 12.6909 54.1452 12.7205 53.7479 12.5741L53.7396 10.7367L53.359 10.7631C52.758 11.0547 52.7798 11.9083 52.3864 12.5909L51.016 12.5928C51.0518 12.3625 51.3568 11.5573 51.4625 11.2651C51.6445 10.7618 51.8309 10.4567 52.25 10.276C51.8623 10.0115 51.46 9.89088 51.3293 9.33927ZM47.4607 7.53929L49.2989 7.57154L50.727 12.5876L49.3565 12.5915C49.0394 12.0689 49.2361 11.4393 48.6441 11.4399C47.273 11.4412 47.8643 11.3664 47.4127 12.587L46.0294 12.5741L47.4607 7.53929ZM41.6277 7.53541L42.9316 7.54251V9.50959C43.1609 9.29992 43.9971 7.9167 44.1585 7.5438L45.8263 7.54767C45.5296 8.17347 44.6583 9.00508 44.2495 9.69798L44.6019 9.94959C45.1292 10.3347 45.6206 12.0451 45.7532 12.5909H44.4609C43.7626 12.4057 44.3975 10.6941 42.9643 10.5644L42.938 12.5741C42.5612 12.718 41.9846 12.6915 41.5797 12.5992C41.54 12.4186 41.3952 7.90961 41.6277 7.53541ZM40.9685 7.6567L40.7359 8.71734C40.3406 8.69541 38.4057 8.11089 38.357 9.99604C38.3192 11.4438 39.2693 11.5057 40.4911 11.4767L40.6962 11.3522L40.7839 11.6096L40.8294 12.4992C35.1983 13.9199 35.9473 5.99156 40.9685 7.6567ZM32.4657 7.61348C33.4312 7.41154 36.4015 7.13993 36.2356 8.91347C36.1741 9.57798 35.8749 9.5554 35.5212 9.87282C35.9607 10.0715 36.2356 10.236 36.3625 10.7096C36.7738 12.2528 35.0702 12.6657 33.6625 12.6521C32.6746 12.6418 32.476 12.698 32.4343 12.2496L32.4657 7.61348ZM28.872 7.49154C32.3651 6.8909 32.7694 12.1844 29.7651 12.6334C26.1663 13.1715 25.8626 8.00896 28.872 7.49154ZM22.4733 7.54316L23.8117 7.56574L23.8342 9.50443C25.1053 8.29218 24.0731 7.20703 26.7135 7.58445L25.1348 9.69862C25.6332 10.1735 25.8165 10.116 26.0984 10.9476C26.2323 11.3405 26.6046 12.2728 26.6206 12.5915H25.2431C24.6511 11.7044 25.0995 10.6122 23.8175 10.5806L23.7771 12.587L22.5066 12.5934L22.4727 12.2451V7.54316H22.4733ZM21.8537 7.68251L21.625 8.75863C20.3032 8.44315 19.159 8.64702 19.2429 10.1915C19.3127 11.4741 20.3955 11.6631 21.5872 11.3844L21.7705 12.4528C20.5204 13.016 17.7122 12.7238 17.8045 9.99217C17.8699 8.06638 19.8343 6.82445 21.8537 7.68251ZM14.4005 7.50445C17.9371 6.88445 18.3171 12.1283 15.3634 12.6257C11.7518 13.2341 11.402 8.0296 14.4005 7.50445ZM6.4378 7.54767L8.28367 7.54122L8.991 10.6173L9.79316 7.54251L11.6025 7.54316L11.7486 11.3096C11.9209 11.5173 11.9293 12.2844 11.8473 12.627C11.4603 12.6321 10.8234 12.7567 10.5184 12.5141L10.3794 9.09798L9.38568 12.4909L8.39643 12.4934C8.18244 12.0431 7.63207 9.61927 7.53917 9.04185L7.34824 12.5915L6.13411 12.5883L6.4378 7.54767ZM53.7396 69.6897C52.3012 70.86 49.3239 71.1717 47.0878 71.171L36.7751 71.1465C34.4038 71.0897 32.1639 72.0446 30.9152 73.9407C30.7422 74.2026 30.6615 74.3949 30.4757 74.6252C29.4967 73.0536 27.9276 71.2942 25.2969 71.2239C22.5265 71.1491 19.585 71.1684 16.8319 71.171C14.1397 71.1742 11.5 71.1471 9.18321 70.2026C7.17589 69.3833 5.39987 67.5891 5.39987 65.4407V14.4012H26.1702C28.7541 14.4012 29.876 15.8205 29.892 18.4082L31.2227 18.3934C31.454 17.1747 31.2573 16.5166 31.973 15.5431C32.4766 14.8573 33.1692 14.4412 34.3385 14.4031C36.6578 14.3276 39.1098 14.4018 41.4445 14.4018C46.1626 14.4018 50.8814 14.4037 55.6008 14.4018L55.5995 63.384C55.5995 66.4517 55.6687 68.1188 53.7396 69.6897Z" fill="white"/>
<path fill-rule="evenodd" clip-rule="evenodd" d="M4.13445 66.1259L4.08576 18.7308L0.0986682 18.6786L0.0980275 18.6134L0.0973868 0.0987089L25.976 0.14645C25.8088 -0.0129031 25.9702 0.0658059 25.6794 0.00709671L0 0V18.8095H3.98965L3.98068 65.4459C3.98068 65.5053 3.98709 65.7827 3.99606 65.8278C4.05885 66.1194 3.97364 65.9549 4.13445 66.1259Z" fill="white"/>
<path fill-rule="evenodd" clip-rule="evenodd" d="M28.36 62.575L32.7079 62.5743L32.713 59.6556L31.643 59.684V61.7414H31.0843L31.085 59.6711L30.0131 59.7092V61.7414L29.455 61.7408L29.4544 59.6692L28.3818 59.6602L28.36 62.575Z" fill="white"/>
<path fill-rule="evenodd" clip-rule="evenodd" d="M56.8719 66.322C57.0584 66.1156 56.9033 66.4117 56.9834 66.1065L57.011 18.8095H61.0006V0H34.6844C34.2859 0.0477415 34.5531 -0.0535479 34.3436 0.145805L60.902 0.0974185L60.9026 0.196127V18.6818L56.9335 18.6882L56.8719 66.322Z" fill="white"/>
<path fill-rule="evenodd" clip-rule="evenodd" d="M21.9422 60.684L22.0293 62.5678L22.9987 62.5736L22.8404 59.6653L21.4738 59.6795L21.0215 61.1588C20.6198 59.4001 21.0035 59.6459 19.2865 59.6833L19.1109 62.5672L20.0367 62.5769L20.1578 60.8485C20.327 61.2769 20.3058 62.2427 20.7229 62.5027L21.3848 62.4911L21.9422 60.684Z" fill="white"/>
<path fill-rule="evenodd" clip-rule="evenodd" d="M40.8377 61.4976L41.513 61.5279L41.5489 62.575H42.5932L42.6125 59.6595H41.5182L41.5188 60.6221L40.8371 60.6395L40.8377 59.6595L39.7665 59.6608L39.796 62.5782L40.8243 62.5563L40.8371 62.2073L40.8377 61.4976Z" fill="white"/>
<path fill-rule="evenodd" clip-rule="evenodd" d="M22.6129 65.3755L23.244 65.3658L23.2767 67.4729H24.3178L24.3223 64.5581L21.4994 64.5588L21.5237 67.4736L22.586 67.4742L22.6129 65.3755Z" fill="white"/>
<path fill-rule="evenodd" clip-rule="evenodd" d="M44.3142 61.5182L44.9901 61.5588L45.0318 62.5756L46.0377 62.575L46.0665 59.6602L44.9953 59.6589L44.9959 60.6401L44.3155 60.6395L44.318 59.6466L43.2449 59.6602L43.2814 62.575H44.3001L44.3142 61.5182Z" fill="white"/>
<path fill-rule="evenodd" clip-rule="evenodd" d="M25.705 65.5588C24.8362 65.7614 24.5709 66.5143 24.9233 67.0853C25.1617 67.4711 25.6371 67.6001 26.215 67.4317C26.8967 67.2324 26.1157 67.4711 27.5451 67.4736C27.5899 65.9459 27.8994 63.6576 25.0015 64.7137L25.1982 65.4001C25.5544 65.3124 25.9619 65.124 26.3829 65.3414C26.1791 65.5182 25.9645 65.4982 25.705 65.5588ZM25.8966 66.702C25.8306 66.1917 25.9869 66.1898 26.4918 66.1543L26.3777 66.7362L25.8966 66.702Z" fill="white"/>
<path fill-rule="evenodd" clip-rule="evenodd" d="M27.9705 67.424C28.2204 67.5601 28.494 67.5253 28.7618 67.3666C28.9277 67.2685 29.0687 67.1343 29.1712 66.8976C29.3775 66.4208 29.2346 65.7834 29.3807 65.3776L29.7619 65.3659L29.7946 67.473L30.8588 67.4737L30.8652 64.5563L28.3363 64.584C28.3351 65.0208 28.3568 65.5085 28.337 65.9376C28.3075 66.5801 27.9353 66.7614 27.934 66.7588C27.9244 66.7414 27.893 66.7911 27.877 66.8117L27.9705 67.424Z" fill="white"/>
<path fill-rule="evenodd" clip-rule="evenodd" d="M33.1756 62.6266C34.5281 62.5775 34.3858 61.7072 34.4826 60.4769L34.8958 60.4866L34.933 62.575H35.9927L35.9972 59.6582L33.4914 59.6847C33.4921 60.1214 33.5113 60.6079 33.4812 61.0388C33.4312 61.7621 33.2826 61.5479 33.009 61.9143L33.1756 62.6266Z" fill="white"/>
<path fill-rule="evenodd" clip-rule="evenodd" d="M11.5045 59.6531L8.73022 59.6602L8.7629 62.5782L9.79507 62.5569L9.83415 60.4705L10.5191 60.4686L10.5652 62.5943L11.4788 62.5866L11.5045 59.6531Z" fill="white"/>
<path fill-rule="evenodd" clip-rule="evenodd" d="M39.031 61.7233C38.4268 61.8201 37.8322 61.9781 37.5368 61.5001L39.2623 61.4788C39.5749 59.7427 37.9373 59.0337 36.9737 59.9582C36.0068 60.8859 36.4009 62.6194 38.0398 62.6246C38.3903 62.6691 38.7901 62.5401 39.1418 62.4801L39.031 61.7233ZM37.499 60.6943C37.7271 60.1865 38.1564 60.0911 38.3089 60.7194L37.9424 60.7375L37.499 60.6943Z" fill="white"/>
<path fill-rule="evenodd" clip-rule="evenodd" d="M29.1058 8.59288C27.8187 8.95481 28.0333 11.9116 29.546 11.5412C30.7448 11.2477 30.5199 8.19546 29.1058 8.59288Z" fill="white"/>
<path fill-rule="evenodd" clip-rule="evenodd" d="M14.64 8.61092C13.9743 8.86382 13.7635 9.46704 13.8539 10.3638C13.9224 11.0419 14.3421 11.7644 15.1398 11.5322C16.3353 11.1832 16.0143 8.08834 14.64 8.61092Z" fill="white"/>
<path fill-rule="evenodd" clip-rule="evenodd" d="M35.1457 67.4729L36.2061 67.4736L36.2337 65.3852L37.0185 65.3052L37.0198 64.5936L36.6777 64.5581L34.3186 64.5575L34.3192 65.3652L35.1131 65.3672L35.1457 67.4729Z" fill="white"/>
<path fill-rule="evenodd" clip-rule="evenodd" d="M20.4512 55.5575L21.2822 55.5388V54.7666L18.5829 54.7627L18.5823 55.5711L18.6797 55.5678L19.4101 55.5814L19.396 57.6678L20.4595 57.6607L20.4512 55.5575Z" fill="white"/>
<path fill-rule="evenodd" clip-rule="evenodd" d="M29.7228 55.6008L30.7191 55.5576L30.7198 54.7672L28.601 54.7621L28.6266 57.6769L29.6626 57.6763L29.7228 55.6008Z" fill="white"/>
<path fill-rule="evenodd" clip-rule="evenodd" d="M27.6911 59.6705L26.7217 59.6505L26.7249 62.5279L27.6918 62.5318L27.6911 59.6705Z" fill="white"/>
<path fill-rule="evenodd" clip-rule="evenodd" d="M30.9683 49.637C31.586 49.3796 32.1658 48.9957 32.1485 48.1009C32.1344 47.3783 31.4444 46.6241 31.0407 46.4235L30.9683 49.637Z" fill="white"/>
<path fill-rule="evenodd" clip-rule="evenodd" d="M36.5988 23.0333L36.5905 23.8688C37.6957 24.0314 39.3821 24.1675 39.3718 22.6417C38.9887 22.8366 38.8381 23.0817 38.2326 23.1004C37.6976 23.1178 37.1377 22.9346 36.5988 23.0333Z" fill="white"/>
<path fill-rule="evenodd" clip-rule="evenodd" d="M24.3224 23.8979C24.4934 23.5901 24.4825 23.3385 24.4024 23.0334C23.8867 22.9405 23.3818 23.0992 22.8635 23.1018C22.1773 23.1063 22.0466 22.8818 21.6276 22.6411C21.6955 23.9334 23.007 24.1114 24.3224 23.8979Z" fill="white"/>
<path fill-rule="evenodd" clip-rule="evenodd" d="M24.1955 24.5088C23.9161 24.292 23.59 24.5752 22.1811 24.2327C22.3015 24.9017 22.595 25.2475 23.2594 25.3772C24.362 25.5927 24.6875 24.9843 24.1955 24.5088Z" fill="white"/>
<path fill-rule="evenodd" clip-rule="evenodd" d="M36.7616 25.374C37.8271 25.4946 38.7465 25.2534 38.801 24.234C38.1776 24.4108 37.9988 24.4721 37.337 24.4192C36.4406 24.3476 36.554 24.8172 36.7616 25.374Z" fill="white"/>
<path fill-rule="evenodd" clip-rule="evenodd" d="M23.071 26.1288C23.1595 26.8411 23.9225 27.0875 24.7061 27.1114C24.8099 26.5405 24.708 26.3269 24.4197 25.9392L23.3209 25.9418L23.0608 25.9172L23.071 26.1288Z" fill="white"/>
<path fill-rule="evenodd" clip-rule="evenodd" d="M37.9289 26.1289L37.9219 25.9211L37.6765 25.9431L36.6091 25.9411C36.388 26.2276 36.2343 26.5895 36.2926 27.1127C37.0781 27.0844 37.8309 26.8347 37.9289 26.1289Z" fill="white"/>
<path fill-rule="evenodd" clip-rule="evenodd" d="M41.1889 56.477L42.6907 56.4782L42.6862 55.766L41.1331 55.7666L41.1889 56.477Z" fill="white"/>
<path fill-rule="evenodd" clip-rule="evenodd" d="M53.7741 9.67218L53.7671 8.56832C52.2948 8.29994 52.337 9.93541 53.7741 9.67218Z" fill="white"/>
<path fill-rule="evenodd" clip-rule="evenodd" d="M15.5934 61.2272C15.7023 63.1607 18.8629 63.1633 18.6938 60.9343C18.549 59.0214 15.4742 59.1246 15.5934 61.2272ZM17.3438 61.7653C16.6467 62.2085 16.4846 60.6762 17.0126 60.4072C17.6238 60.095 17.7769 61.4911 17.3438 61.7653Z" fill="white"/>
<path fill-rule="evenodd" clip-rule="evenodd" d="M34.5147 11.5437C35.3155 11.3024 35.1509 10.4321 33.8688 10.467V11.5999L33.954 11.5986L34.5147 11.5437Z" fill="white"/>
<path fill-rule="evenodd" clip-rule="evenodd" d="M37.829 55.5286C36.9128 57.6324 39.9657 58.5595 40.691 56.8189C41.554 54.7486 38.528 53.9228 37.829 55.5286ZM39.3045 56.957C38.9233 56.8595 38.8182 56.6879 38.8099 56.2325C38.8016 55.8479 38.8842 55.4925 39.2168 55.4686C39.7588 55.4299 39.9215 56.5821 39.3045 56.957Z" fill="white"/>
<path fill-rule="evenodd" clip-rule="evenodd" d="M21.5814 55.528C20.6851 57.6228 23.7002 58.5925 24.4447 56.8189C25.3045 54.7693 22.2779 53.9015 21.5814 55.528ZM23.0576 56.9576C22.2516 56.7512 22.504 55.4964 22.9666 55.468C23.5234 55.4331 23.6605 56.5944 23.0576 56.9576Z" fill="white"/>
<path fill-rule="evenodd" clip-rule="evenodd" d="M33.9303 55.6744C33.444 53.9931 30.3469 54.506 30.9613 56.7215C31.438 58.4415 34.5697 57.884 33.9303 55.6744ZM32.4945 56.9602C31.7199 56.7163 31.9512 55.5196 32.4138 55.4705C32.9603 55.4125 33.1262 56.6047 32.4945 56.9602Z" fill="white"/>
<path fill-rule="evenodd" clip-rule="evenodd" d="M28.1057 55.9472C28.0032 54.8421 26.8108 54.2176 26.0612 55.0556C25.8376 54.7208 26.2265 54.7595 25.0233 54.7627V58.7924H26.0734L26.0798 57.5195L26.231 57.6343C27.4393 57.8872 28.2293 57.264 28.1057 55.9472ZM26.1221 56.2311C26.1227 55.6479 26.1829 55.5311 26.7487 55.5698C27.6418 56.544 26.1208 57.6517 26.1221 56.2311Z" fill="white"/>
<path fill-rule="evenodd" clip-rule="evenodd" d="M13.2196 59.9415C12.8531 59.5215 12.8204 59.6589 12.1708 59.6595L12.1842 63.7105L13.2536 63.7247L13.2677 62.4389C14.4293 63.0305 15.3179 62.1814 15.2506 60.9427C15.1821 59.6834 13.9052 59.126 13.2196 59.9415ZM13.3894 61.7414C13.301 61.5182 13.2555 61.4589 13.2555 61.1298C13.2548 60.6344 13.3894 60.4286 13.8936 60.4744C14.3191 60.9815 14.3203 61.9105 13.3894 61.7414Z" fill="white"/>
<path fill-rule="evenodd" clip-rule="evenodd" d="M53.359 10.7625L53.7396 10.7361L53.7479 12.5735C54.1452 12.7199 54.7192 12.6903 55.1254 12.6006L55.1741 7.58063L54.8096 7.51611C54.8198 7.5245 54.9595 7.63224 54.9608 7.63353L55.0767 12.5516L53.8312 12.5528L53.7979 10.6812L53.4346 10.7212C53.4186 10.6954 53.3846 10.749 53.359 10.7625Z" fill="white"/>
<path fill-rule="evenodd" clip-rule="evenodd" d="M34.416 9.38569C35.0893 9.29214 35.2546 8.43924 33.8694 8.51279V9.44182L34.416 9.38569Z" fill="white"/>
<path fill-rule="evenodd" clip-rule="evenodd" d="M42.9642 10.5644C42.9392 10.6096 42.9072 10.6199 42.879 10.778C42.8694 10.8309 42.8675 11.0031 42.8668 11.0644L42.8713 12.5515L41.6271 12.5521L41.6277 7.5354C41.3958 7.90959 41.5399 12.4186 41.5797 12.5992C41.9846 12.6915 42.5612 12.7179 42.9379 12.5741L42.9642 10.5644Z" fill="white"/>
<path fill-rule="evenodd" clip-rule="evenodd" d="M47.9105 10.4057L48.7703 10.407L48.3333 8.65479L47.9105 10.4057Z" fill="white"/>
<path fill-rule="evenodd" clip-rule="evenodd" d="M26.3387 61.0699C26.0939 60.4266 25.3565 60.4557 24.6382 60.4202L24.6389 59.655L23.567 59.6828C23.5702 60.4763 23.5298 61.3421 23.5554 62.1227C23.5734 62.684 23.6708 62.5976 24.3166 62.6027C24.694 62.6053 25.0675 62.606 25.4077 62.5189C26.0266 62.3615 26.6468 61.8795 26.3387 61.0699ZM25.2956 61.7305C25.1008 61.8234 24.9253 61.8673 24.6369 61.8286C24.6389 61.0563 24.6145 60.9982 25.3283 61.2879L25.2956 61.7305Z" fill="white"/>
<path fill-rule="evenodd" clip-rule="evenodd" d="M39.3142 64.6433C38.9131 64.4252 38.3711 64.4536 37.9328 64.5414C37.205 64.6872 37.3318 64.7588 37.5458 65.4285C37.9533 65.3001 38.3775 65.1685 38.8055 65.3362L38.4928 65.4904C38.4313 65.5059 38.248 65.5278 38.1564 65.5465C36.5694 65.8775 36.9564 67.9278 38.5703 67.4355C38.9477 67.32 38.6152 67.3388 38.8849 67.3613C39.1348 67.3826 38.9144 67.4736 39.9126 67.4736C39.9677 66.4394 40.1061 65.0749 39.3142 64.6433ZM38.7516 66.6478C38.4499 66.8091 38.6369 66.7942 38.2692 66.6788C38.191 66.1813 38.3877 66.1794 38.8317 66.1497C38.867 66.5123 38.8945 66.3678 38.7516 66.6478Z" fill="white"/>
<path fill-rule="evenodd" clip-rule="evenodd" d="M33.7676 64.8433C33.2666 64.3104 32.1966 64.4569 31.5879 64.7104C31.513 64.8891 31.5886 65.162 31.7161 65.3975C32.1095 65.313 32.5599 65.1607 32.9571 65.3614C32.786 65.4911 30.6672 65.6956 31.4348 67.0956C31.693 67.5665 32.2248 67.5801 32.7348 67.433C33.4191 67.2349 32.6348 67.4717 34.063 67.4736C34.1033 66.7439 34.1738 65.2749 33.7676 64.8433ZM32.9251 66.7181L32.4151 66.7291C32.3606 66.1859 32.4926 66.1898 32.9751 66.1504L32.9251 66.7181Z" fill="white"/>
<path fill-rule="evenodd" clip-rule="evenodd" d="M25.8966 66.702L26.3777 66.7368L26.4918 66.1549C25.9869 66.1897 25.8306 66.1917 25.8966 66.702Z" fill="white"/>
<path fill-rule="evenodd" clip-rule="evenodd" d="M49.0054 59.9853C48.548 59.4304 47.4242 59.4937 46.745 59.8633L46.911 60.5246C47.4049 60.3569 47.6414 60.2504 48.1757 60.4143C48.0008 60.584 48.1969 60.4479 47.9662 60.5498C47.7759 60.6343 47.938 60.5653 47.8144 60.6008C47.7432 60.6201 47.5933 60.6317 47.4927 60.6543C45.9832 60.9911 46.3241 63.0201 47.9194 62.5485C48.5448 62.364 48.0649 62.4401 48.4871 62.5349C48.7652 62.5982 49.008 62.5756 49.3021 62.5756C49.2937 61.8401 49.3873 60.4472 49.0054 59.9853ZM47.9534 61.8349C47.339 61.9382 47.5773 61.2614 48.2129 61.2704C48.2206 61.3982 48.3096 61.7756 47.9534 61.8349Z" fill="white"/>
<path fill-rule="evenodd" clip-rule="evenodd" d="M50.4008 59.7602C49.5423 60.1118 49.7582 60.7801 50.4041 61.2272C50.0299 61.7756 50.0126 61.6001 49.6903 62.5756H50.7725C51.0127 62.1027 51.048 61.5337 51.6009 61.5827L51.6477 62.575L52.6753 62.5756L52.6811 59.6473C51.9501 59.6144 51.0473 59.4956 50.4008 59.7602ZM51.2485 60.8395L50.9903 60.6401V60.6395C50.998 60.5556 50.998 60.5047 50.9973 60.4724C50.9967 60.4563 50.9961 60.4447 50.9954 60.4363C50.9935 60.3956 51.0025 60.4311 51.1159 60.3266L51.5637 60.2937L51.565 60.7376C51.451 60.8208 51.7309 60.8311 51.2485 60.8395Z" fill="white"/>
<path fill-rule="evenodd" clip-rule="evenodd" d="M36.7808 56.0602C37.4747 55.7234 37.4016 55.0654 36.7148 54.8221C36.0901 54.6002 35.1906 54.7299 34.4871 54.7686L34.5358 57.6789C35.2533 57.6989 36.2778 57.8131 36.8775 57.5118C37.3888 57.2557 37.713 56.6744 36.7808 56.0602ZM35.96 55.3808C36.2112 55.4537 36.1324 55.5279 36.1792 55.6434C35.9184 55.8892 36.0183 55.8254 35.559 55.8389V55.5454C35.5622 55.5441 35.5115 55.2505 35.96 55.3808ZM35.5346 57.0292V56.5131C35.8633 56.4653 36.0555 56.517 36.2528 56.6531C36.2016 57.0808 35.9837 57.0899 35.5346 57.0292Z" fill="white"/>
<path fill-rule="evenodd" clip-rule="evenodd" d="M10.5184 12.5141C10.824 12.756 11.4603 12.6321 11.8473 12.627C11.9293 12.2844 11.9203 11.5173 11.7486 11.3096L11.8235 12.545L10.5184 12.5141Z" fill="white"/>
<path fill-rule="evenodd" clip-rule="evenodd" d="M34.5146 11.5437L33.954 11.5979L33.8688 11.5992V10.4663C33.8131 10.5618 33.8073 10.4986 33.7778 10.6824L33.7913 11.6231C34.3417 11.7224 34.168 11.7502 34.5146 11.5437Z" fill="white"/>
<path fill-rule="evenodd" clip-rule="evenodd" d="M34.416 9.38571L33.8695 9.44184V8.51282L33.7906 9.47087C34.1341 9.55668 34.1623 9.5812 34.416 9.38571Z" fill="white"/>
<path fill-rule="evenodd" clip-rule="evenodd" d="M37.9289 26.1288L38.0378 25.8765C37.8456 25.8495 38.0475 25.7998 37.836 25.8662C37.8187 25.8714 37.7694 25.8901 37.7527 25.8959C37.7354 25.9017 37.704 25.9301 37.6771 25.943L37.9225 25.9211L37.9289 26.1288Z" fill="white"/>
<path fill-rule="evenodd" clip-rule="evenodd" d="M40.7839 11.6096L40.6961 11.3522L40.4911 11.4767C40.7083 11.5186 40.6449 11.4896 40.7839 11.6096Z" fill="white"/>
<path fill-rule="evenodd" clip-rule="evenodd" d="M23.0711 26.1288L23.0602 25.9166L23.3203 25.9411L23.1633 25.8656C22.7315 25.8288 23.3107 25.8262 22.9724 25.8746L23.0711 26.1288Z" fill="white"/>
</svg>
