<svg width="61" height="62" viewBox="0 0 61 62" fill="none" xmlns="http://www.w3.org/2000/svg">
<path d="M30.5003 0.401978C47.0813 0.401978 60.6051 14.1469 60.6051 31.0002C60.6051 47.8536 47.0813 61.5985 30.5003 61.5985C13.9188 61.5985 0.39502 47.8536 0.39502 31.0002C0.39502 14.1469 13.9188 0.401978 30.5003 0.401978Z" stroke="white" stroke-width="0.5" stroke-miterlimit="22.926"/>
<path d="M30.5003 0.803497H30.4986C22.3184 0.803497 14.8915 4.19585 9.51014 9.66605C4.12817 15.1362 0.791101 22.6843 0.791101 30.9997V31.0009C0.791101 39.3157 4.12817 46.8638 9.51014 52.3334C14.891 57.8036 22.3184 61.1954 30.5003 61.1954H30.5008C38.6816 61.1954 46.1084 57.8036 51.4898 52.3345C56.8718 46.8643 60.2089 39.3151 60.2089 30.9991V30.9986C60.2089 22.6837 56.8718 15.1357 51.491 9.66547C46.1084 4.19585 38.6816 0.803497 30.5003 0.803497ZM30.5003 0C38.8994 0 46.5254 3.48124 52.0502 9.09655C57.5749 14.7118 60.9994 22.4629 60.9994 30.9991V30.9997C60.9994 39.5371 57.5749 47.2876 52.0502 52.9029C46.5254 58.5182 38.8999 62 30.5008 62H30.5003C22.1006 62 14.4751 58.5182 8.95039 52.9029C3.42566 47.2876 0 39.5382 0 31.0014V31.0003C0 22.4635 3.42566 14.7124 8.95039 9.09712C14.4751 3.48182 22.0995 0 30.4986 0H30.5003Z" fill="white"/>
<path fill-rule="evenodd" clip-rule="evenodd" d="M16.8704 29.6152L19.0061 27.4433L21.1639 29.6382L31.8003 18.8274L33.8796 20.9408L23.2579 31.7378L21.1639 29.6388L19.0287 31.8089L16.8704 29.6152ZM16.814 38.288L18.9638 36.1029L25.4032 42.5606L27.5486 40.3813L29.6984 42.5377L25.4038 46.9033L16.814 38.288ZM29.6979 42.5377L31.8336 40.3669L33.9919 42.5606L44.6278 31.7516L46.7071 33.865L33.9355 46.8448L29.6979 42.5377Z" fill="white"/>
<path fill-rule="evenodd" clip-rule="evenodd" d="M16.9269 25.3306L29.6985 12.3496L33.9361 16.6579L21.1651 29.6377L16.9269 25.3306ZM16.8705 34.0033L21.1651 29.6377L29.6979 38.1957L25.4028 42.5613L16.8705 34.0033ZM29.6979 38.1957L42.4684 25.2165L46.7636 29.5803L33.992 42.5613L29.6979 38.1957Z" fill="white"/>
<path fill-rule="evenodd" clip-rule="evenodd" d="M10.5269 41.5776L11.1143 42.5331L10.1455 45.0663L11.9709 43.9291L12.4347 44.6821L8.78052 47.0025L8.31725 46.2495L9.87858 45.2579L7.48327 44.8914L6.93142 43.995L9.53833 44.4928L10.5269 41.5776ZM11.9353 47.3914C11.4738 47.8296 11.2526 48.2545 11.2734 48.6692C11.287 48.929 11.3914 49.1647 11.5844 49.3746C11.7739 49.5828 11.9968 49.7027 12.2513 49.7348C12.6598 49.7875 13.0938 49.5948 13.5559 49.1561C14.018 48.7191 14.2398 48.2929 14.2189 47.8783C14.2054 47.6185 14.101 47.3828 13.908 47.1729C13.7173 46.9658 13.495 46.846 13.2405 46.8127C12.8325 46.7605 12.398 46.9532 11.9353 47.3914ZM11.3062 46.7055C11.84 46.1985 12.3997 45.9708 12.9849 46.0201C13.4972 46.0654 13.9543 46.3074 14.3577 46.7473C14.7612 47.1855 14.9666 47.6644 14.9756 48.1811C14.9869 48.7804 14.7228 49.3339 14.1868 49.8443C13.653 50.3496 13.0926 50.5778 12.5086 50.5279C11.9957 50.4826 11.5375 50.2406 11.1341 49.8019C10.7323 49.3626 10.5264 48.8842 10.5173 48.3681C10.5066 47.7682 10.7684 47.2142 11.3062 46.7055ZM15.2024 51.6819C15.0884 51.8407 15.0461 51.999 15.0743 52.159C15.1054 52.3425 15.2194 52.5054 15.4146 52.6511L15.7385 52.8903L16.5245 51.7908L16.2006 51.5517C16.0009 51.4054 15.8051 51.3532 15.6121 51.3962C15.449 51.4307 15.3136 51.5264 15.2024 51.6819ZM14.4694 51.1106C14.6681 50.8331 14.9299 50.6581 15.2566 50.5853C15.6595 50.4958 16.0641 50.6008 16.4686 50.9002L16.9217 51.2345L17.8731 49.9034L18.5813 50.4253L16.0477 53.9685L15.0174 53.2074C14.5964 52.8954 14.338 52.5542 14.2437 52.1831C14.1484 51.812 14.224 51.4542 14.4694 51.1106ZM19.7719 52.9826L19.6026 54.8769L20.8987 53.5165L19.7719 52.9826ZM19.0259 50.7447L19.9186 51.1674L19.8384 52.2141L21.4505 52.9786L22.188 52.2439L23.0367 52.6454L19.6596 55.8766L18.7556 55.4481L19.0259 50.7447ZM23.5293 52.8679L24.3751 53.0354L23.7979 56.0566L23.6709 56.7196L23.9993 56.1478L25.6137 53.2803L26.4296 53.4414L26.8692 56.715L26.9448 57.3671L27.078 56.7053L27.6558 53.6834L28.514 53.8526L27.6913 58.1511L26.2423 57.8649L25.8738 55.1987L25.8326 54.4003L25.4817 55.1212L24.1573 57.4526L22.7077 57.1664L23.5293 52.8679ZM30.1989 56.867C30.2068 57.0626 30.27 57.2163 30.388 57.3241C30.5228 57.4486 30.7124 57.5071 30.9545 57.4979L31.3545 57.4836L31.3077 56.1272L30.9076 56.1415C30.6616 56.1501 30.4754 56.2316 30.3502 56.387C30.2424 56.5155 30.1927 56.6755 30.1989 56.867ZM29.2764 56.8745C29.2645 56.5332 29.3649 56.231 29.5771 55.9689C29.8417 55.6466 30.2238 55.4768 30.7237 55.459L31.2835 55.439L31.227 53.7941L32.0999 53.7631L32.2512 58.1397L30.9776 58.185C30.4568 58.2039 30.046 58.0966 29.7464 57.8632C29.4473 57.6298 29.2916 57.3 29.2764 56.8745ZM34.2814 55.9035L34.5404 57.2547L35.029 57.1578C35.3405 57.0976 35.5442 56.972 35.6413 56.7821C35.7084 56.6542 35.7254 56.5028 35.6926 56.3262C35.6503 56.1048 35.5442 55.9517 35.3749 55.8657C35.2062 55.7808 35.0037 55.7613 34.765 55.8083L34.2814 55.9035ZM32.9892 53.801L33.8475 53.6318L34.1533 55.2285L34.6668 55.1275L35.182 53.3686L36.2095 53.165L35.5386 55.1333C35.7694 55.1597 35.9714 55.2377 36.1412 55.3656C36.3805 55.5474 36.5339 55.8158 36.6022 56.1725C36.688 56.6187 36.6067 56.98 36.3585 57.2564C36.1102 57.5329 35.718 57.7233 35.1825 57.8294L33.8108 58.1018L32.9892 53.801ZM38.9101 52.2967L39.6814 51.8792L40.7248 53.8738L41.1976 54.8156L41.1677 54.0809L41.2851 51.0126L42.2082 50.5136L44.2311 54.3803L43.4597 54.7978L42.4192 52.8088L41.9447 51.8608L41.9515 52.58L41.8561 55.6638L40.933 56.1633L38.9101 52.2967ZM44.41 49.0259L45.2073 48.2425L47.8458 48.6784L46.3714 47.1006L46.9994 46.4829L49.9934 49.6338L49.3642 50.2509L48.0862 48.9049L48.2306 51.363L47.483 52.0977L47.4203 49.4016L44.41 49.0259ZM49.8794 46.5334C50.3974 46.9016 50.8522 47.0324 51.2466 46.9268C51.4938 46.8586 51.6997 46.7066 51.8611 46.4709C52.0214 46.2386 52.0908 45.992 52.0693 45.7316C52.0355 45.3164 51.759 44.9235 51.2421 44.5553C50.7241 44.1866 50.2682 44.0558 49.8749 44.1625C49.6266 44.2307 49.4218 44.3827 49.2593 44.6179C49.1002 44.8507 49.0308 45.0973 49.0516 45.356C49.086 45.7729 49.3614 46.1646 49.8794 46.5334ZM49.3496 47.3025C48.7514 46.8758 48.4157 46.3677 48.3435 45.7758C48.2791 45.2573 48.4168 44.7515 48.756 44.2594C49.0951 43.7685 49.5121 43.4639 50.0075 43.3487C50.5819 43.2122 51.1704 43.3584 51.7714 43.7868C52.3712 44.213 52.7053 44.7217 52.7792 45.3135C52.8429 45.832 52.7041 46.3378 52.3661 46.8288C52.027 47.3208 51.61 47.6248 51.1135 47.7407C50.539 47.8771 49.9522 47.7309 49.3496 47.3025ZM51.8577 41.5788C52.0225 41.6522 52.1709 41.6631 52.3018 41.6086C52.4671 41.5415 52.6065 41.3763 52.7211 41.1131L52.9185 40.6623L51.8165 40.1634L51.6196 40.6147C51.5141 40.8544 51.4904 41.0632 51.5479 41.2393C51.5965 41.3935 51.6997 41.5077 51.8577 41.5788ZM53.5816 42.1798C53.6972 42.2326 53.8056 42.2458 53.9077 42.2183C54.0894 42.173 54.2389 42.0147 54.358 41.7445L54.5154 41.3844L53.537 40.9416L53.3643 41.3362C53.2622 41.5685 53.2486 41.7646 53.3214 41.9263C53.3745 42.041 53.4614 42.1259 53.5816 42.1798ZM51.4198 42.4081C51.1163 42.2705 50.9148 42.0583 50.815 41.7715C50.6857 41.393 50.7472 40.9135 51 40.3343L51.553 39.0725L55.4893 40.8527L54.9138 42.1672C54.736 42.5704 54.5188 42.8537 54.2592 43.0143C53.9765 43.1881 53.6763 43.2024 53.3581 43.0585C53.0912 42.9386 52.909 42.7688 52.8119 42.5509C52.7357 42.3846 52.7115 42.2011 52.7368 41.9969C52.5783 42.236 52.3814 42.392 52.1449 42.4649C51.9091 42.5389 51.667 42.5194 51.4198 42.4081ZM53.8253 37.4346L55.6834 37.2097L54.1046 36.2032L53.8253 37.4346ZM51.8261 38.6418L52.0484 37.6663L53.0715 37.5269L53.4727 35.7662L52.6127 35.1858L52.8226 34.2584L56.6342 36.9448L56.4097 37.9324L51.8261 38.6418ZM56.3482 34.2917L56.4345 33.0305L52.8977 32.7793L52.9592 31.8932L56.496 32.1444L56.5829 30.885L57.3435 30.9383L57.1093 34.3456L56.3482 34.2917ZM53.2605 30.2335C53.1696 30.0528 53.0974 29.871 53.0416 29.6869C52.9874 29.5028 52.9473 29.3199 52.9225 29.1381C52.8384 28.5267 52.9326 27.9928 53.2058 27.5368C53.524 26.9994 54.0454 26.6777 54.7693 26.5739C55.4758 26.4741 56.0587 26.6261 56.5169 27.0321C56.9463 27.4135 57.2104 27.9606 57.3091 28.6752C57.3351 28.8616 57.3469 29.0245 57.3452 29.1662C57.3446 29.3073 57.3283 29.4701 57.2956 29.6565L56.5586 29.7236C56.5936 29.5837 56.6139 29.4403 56.6201 29.2952C56.628 29.1484 56.6201 28.9964 56.5987 28.8404C56.5315 28.3615 56.3453 28.0025 56.0395 27.7634C55.7331 27.5253 55.3556 27.4387 54.9093 27.5024C54.4217 27.5718 54.0725 27.7731 53.862 28.1063C53.6713 28.4074 53.6053 28.771 53.6645 29.1966C53.6893 29.3778 53.7271 29.5378 53.7802 29.6755C53.8327 29.8131 53.8987 29.9462 53.9777 30.0741L53.2605 30.2335ZM53.1426 23.3989C53.3096 23.3404 53.432 23.2446 53.5076 23.1127C53.6115 22.9309 53.616 22.6998 53.5201 22.4199L53.3542 21.929L52.0857 22.3729L52.2742 22.9292C52.3424 23.1305 52.4542 23.2762 52.6116 23.3674C52.7679 23.4574 52.9456 23.4683 53.1426 23.3989ZM53.4743 24.2425C53.1098 24.3704 52.7769 24.3658 52.4745 24.2282C52.1009 24.0596 51.8199 23.7006 51.6348 23.1529L51.1614 21.7563L55.2354 20.3306L55.5204 21.1708L53.9963 21.7047L54.1927 22.284C54.3535 22.7611 54.3721 23.1672 54.2468 23.5021C54.1114 23.8623 53.8547 24.1095 53.4743 24.2425ZM52.6437 26.134L52.3588 25.2944L56.4334 23.868L56.7183 24.7082L52.6437 26.134ZM51.4656 19.5678C51.6219 19.476 51.7167 19.3608 51.7511 19.2197C51.794 19.0459 51.7443 18.8331 51.6032 18.5848L51.3589 18.1564L50.3145 18.7695L50.5577 19.1979C50.6874 19.425 50.8392 19.5672 51.0136 19.624C51.1654 19.6739 51.316 19.6556 51.4656 19.5678ZM52.9575 18.5051C53.0675 18.4403 53.1414 18.3577 53.1809 18.2585C53.2515 18.0818 53.2137 17.8662 53.0675 17.6098L52.8728 17.268L51.9463 17.8123L52.1579 18.1856C52.2837 18.4053 52.4321 18.5332 52.6031 18.5676C52.7256 18.5917 52.8435 18.5705 52.9575 18.5051ZM51.8684 20.4143C51.5801 20.5835 51.2929 20.6248 51.0074 20.5376C50.6288 20.4223 50.2834 20.0909 49.9714 19.5408L49.292 18.3445L53.0224 16.1554L53.7311 17.4005C53.9478 17.7836 54.0459 18.1289 54.0206 18.4374C53.9923 18.7723 53.8276 19.0276 53.5251 19.2048C53.2729 19.3522 53.0314 19.4032 52.8006 19.3556C52.624 19.3195 52.4621 19.2317 52.3165 19.0906C52.4141 19.3613 52.4214 19.616 52.3413 19.8528C52.26 20.0891 52.102 20.2778 51.8684 20.4143ZM48.2876 15.1534C47.9694 15.466 47.5913 15.5389 47.1523 15.3725C46.8324 15.2515 46.5181 15.029 46.21 14.705C46.0193 14.5031 45.8607 14.2834 45.7332 14.042C45.7196 14.0144 45.6502 13.8659 45.5244 13.5964L46.0977 13.1284C46.1919 13.3893 46.3048 13.6239 46.434 13.8332C46.5215 13.9732 46.6072 14.0861 46.6896 14.1739C46.8973 14.393 47.1004 14.5111 47.2973 14.526C47.4564 14.5369 47.5879 14.4928 47.6917 14.3907C47.8892 14.1968 47.944 13.9754 47.8548 13.7254C47.8052 13.5889 47.7143 13.4524 47.5834 13.3136L47.22 12.9316L47.729 12.4315L48.0924 12.8146C48.2464 12.9764 48.4005 13.0658 48.5539 13.0831C48.7069 13.1008 48.8468 13.0486 48.9698 12.9271C49.0708 12.829 49.1182 12.7143 49.1148 12.5841C49.1086 12.4224 49.0183 12.2497 48.8451 12.0668C48.6143 11.8236 48.3282 11.6372 47.9874 11.507L48.4501 10.9312C48.6606 11.0436 48.8434 11.1572 48.9997 11.2707C49.156 11.3843 49.3174 11.5283 49.4816 11.7026C49.8156 12.053 49.9973 12.3885 50.0289 12.7091C50.0594 13.0297 49.9561 13.3062 49.7203 13.5384C49.5516 13.7036 49.3637 13.8045 49.1532 13.8424C48.9439 13.8797 48.7339 13.8332 48.5252 13.7025C48.664 13.9261 48.7198 14.1544 48.6961 14.3872C48.6685 14.6579 48.5319 14.9137 48.2876 15.1534ZM45.3478 10.918C45.683 10.3726 45.7879 9.90348 45.6626 9.50947C45.582 9.26171 45.4228 9.0627 45.1825 8.909C44.946 8.75931 44.7 8.70196 44.4466 8.73752C44.0387 8.79372 43.6685 9.09425 43.3334 9.63851C42.9987 10.1834 42.8938 10.6531 43.0191 11.0471C43.0981 11.2948 43.2589 11.4944 43.4992 11.647C43.7357 11.7967 43.9811 11.8552 44.2351 11.819C44.6424 11.7628 45.0132 11.4629 45.3478 10.918ZM46.131 11.4158C45.7439 12.045 45.2609 12.4126 44.6836 12.517C44.1781 12.6099 43.6742 12.4963 43.1731 12.178C42.654 11.8488 42.3239 11.4216 42.1806 10.898C42.0384 10.3749 42.1095 9.88168 42.3938 9.41771L41.851 9.07303L40.876 10.6599L40.1345 10.1891L42.4175 6.475L43.159 6.94528L42.2263 8.4628L42.7691 8.80749C43.0981 8.36703 43.5179 8.11067 44.0274 8.03554C44.5381 7.96155 45.0307 8.07511 45.508 8.37792C46.0097 8.69623 46.329 9.104 46.4684 9.60124C46.6332 10.1782 46.5203 10.7827 46.131 11.4158ZM39.2441 7.55894C39.4405 6.94758 39.4292 6.46639 39.2136 6.11483C39.0777 5.89345 38.8745 5.73918 38.6059 5.65028C38.3402 5.56311 38.0879 5.56712 37.8509 5.66404C37.4678 5.81832 37.1806 6.202 36.9854 6.81165C36.7901 7.42245 36.7997 7.9042 37.0153 8.25519C37.1518 8.47657 37.355 8.63085 37.6241 8.72031C37.8899 8.80864 38.1415 8.8029 38.3797 8.70598C38.7611 8.55227 39.0494 8.17031 39.2441 7.55894ZM40.1232 7.84857C39.897 8.55457 39.5167 9.03059 38.9812 9.27376C38.5123 9.48768 37.9965 9.50144 37.434 9.31562C36.8731 9.13038 36.4645 8.81322 36.2106 8.36531C35.9149 7.848 35.88 7.23319 36.1079 6.52317C36.3331 5.81717 36.7134 5.34115 37.2483 5.09798C37.7189 4.88406 38.2335 4.86972 38.7955 5.05612C39.3581 5.24194 39.7655 5.55794 40.02 6.00643C40.3151 6.52489 40.3495 7.13856 40.1232 7.84857ZM34.9207 8.39398C34.726 8.437 34.5342 8.46108 34.3446 8.46625C34.1567 8.47198 33.9722 8.46453 33.7933 8.44101C33.1907 8.36646 32.7071 8.1359 32.3448 7.7505C31.9154 7.29799 31.745 6.70326 31.8359 5.96686C31.9222 5.24652 32.2184 4.71315 32.7229 4.36847C33.1957 4.04615 33.7848 3.92801 34.489 4.01576C34.6719 4.03813 34.831 4.0691 34.9647 4.10637C35.099 4.14365 35.2497 4.20272 35.4178 4.28244L35.2903 5.024C35.1667 4.95346 35.0369 4.89611 34.8998 4.85252C34.7621 4.80721 34.6166 4.77509 34.462 4.75674C33.9897 4.6971 33.6009 4.78771 33.2945 5.02629C32.9887 5.26545 32.8075 5.61358 32.7534 6.06837C32.693 6.56504 32.7946 6.96019 33.0569 7.25326C33.2928 7.5188 33.6212 7.67709 34.0405 7.72928C34.2188 7.75107 34.3813 7.75509 34.5257 7.73903C34.6707 7.72354 34.8141 7.69372 34.9557 7.64726L34.9207 8.39398ZM28.707 8.09518L27.8465 8.24946L27.4611 6.02593L27.298 4.98099L27.1022 5.69043L26.0572 8.57005L25.0269 8.75472L24.2792 4.44245L25.1397 4.28818L25.5245 6.50597L25.6882 7.55665L25.9004 6.87072L26.9284 3.96758L27.9588 3.78234L28.707 8.09518ZM27.0182 2.8974C26.9713 3.10903 26.8906 3.28395 26.7783 3.42274C26.6046 3.62749 26.3523 3.7594 26.0205 3.81904C25.6938 3.87754 25.4151 3.84084 25.1832 3.70893C25.0173 3.61487 24.8813 3.47895 24.7746 3.29944L25.1758 2.97999C25.2701 3.13656 25.4021 3.23119 25.5753 3.26445C25.6741 3.28395 25.7909 3.28166 25.9241 3.25872C26.1018 3.2266 26.2406 3.16695 26.3388 3.07921C26.4387 2.99088 26.5036 2.8779 26.5335 2.73682L27.0182 2.8974ZM24.2042 8.93997L23.3888 9.25827L22.5921 7.14945L22.2366 6.15612L22.1773 6.88908L21.6932 9.91896L20.717 10.3004L19.1732 6.21233L19.9891 5.89403L20.783 7.99654L21.1408 8.99618L21.2203 8.281L21.6836 5.23219L22.6609 4.8508L24.2042 8.93997ZM20.2729 10.5384L19.334 11.1354L16.8416 10.1512L17.9606 12.0077L17.2197 12.478L14.9367 8.76447L15.6775 8.29419L16.6532 9.87996L17.0137 7.44481L17.8968 6.88449L17.4059 9.53413L20.2729 10.5384ZM16.5945 12.8594C16.4929 13.0332 16.3789 13.1932 16.2542 13.3371C16.1295 13.4816 15.9986 13.6124 15.8604 13.7306C15.3954 14.1269 14.9 14.3293 14.3758 14.3362C13.7562 14.3465 13.2128 14.0666 12.7434 13.4983C12.284 12.942 12.1029 12.3598 12.1994 11.7485C12.2891 11.1767 12.6057 10.6594 13.1502 10.1948C13.2918 10.075 13.4216 9.97804 13.5395 9.90291C13.658 9.8295 13.803 9.75781 13.9752 9.68726L14.4215 10.286C14.2872 10.3302 14.1568 10.3887 14.0316 10.4598C13.9057 10.5315 13.7833 10.6181 13.6631 10.7202C13.2992 11.0316 13.0988 11.382 13.0622 11.7731C13.0255 12.1626 13.1525 12.5342 13.4425 12.8852C13.7596 13.2683 14.1123 13.4633 14.5022 13.4679C14.8543 13.473 15.1928 13.3365 15.5167 13.0613C15.6544 12.9437 15.7667 12.825 15.8547 12.7068C15.9427 12.5893 16.0184 12.4614 16.0821 12.3254L16.5945 12.8594ZM13.7088 15.7373L13.1592 16.4267L11.432 15.0055L10.6364 14.3264L10.945 14.9917L12.0166 17.8616L11.3575 18.6875L8.00916 15.9323L8.55989 15.2418L10.282 16.6589L11.0833 17.3431L10.8006 16.6836L9.70196 13.808L10.361 12.981L13.7088 15.7373ZM9.07901 12.9402C9.18115 13.1307 9.23249 13.3165 9.23701 13.4977C9.23926 13.7667 9.13431 14.0351 8.92158 14.3006C8.71224 14.5627 8.47807 14.721 8.21851 14.7766C8.03286 14.8174 7.84271 14.8042 7.64521 14.7394L7.74114 14.2318C7.9138 14.2869 8.07518 14.2702 8.22528 14.1802C8.31443 14.1286 8.40133 14.05 8.4854 13.9433C8.59939 13.8005 8.66541 13.6629 8.68403 13.5304C8.70265 13.3985 8.67726 13.2683 8.60954 13.1427L9.07901 12.9402ZM10.9586 19.5059L10.5896 20.3117L8.57569 19.3568L7.6407 18.8934L8.10001 19.4629L9.82272 21.984L9.37977 22.9487L5.47561 21.0974L5.84408 20.2922L7.85286 21.2436L8.79349 21.7105L8.36183 21.1404L6.61204 18.6192L7.05386 17.6557L10.9586 19.5059ZM9.08353 23.575C9.09425 23.778 9.08804 23.9747 9.06378 24.1657C9.04008 24.3549 9.00397 24.539 8.95487 24.7151C8.78672 25.3087 8.48823 25.7566 8.05543 26.0606C7.54985 26.4208 6.94439 26.4976 6.24245 26.294C5.55517 26.0938 5.08401 25.7136 4.8284 25.1533C4.58802 24.6268 4.56658 24.0177 4.76125 23.3243C4.81203 23.1437 4.86677 22.9894 4.92489 22.8604C4.98244 22.7325 5.06257 22.5891 5.16696 22.4331L5.86665 22.6763C5.77862 22.7898 5.70301 22.912 5.63925 23.0433C5.57436 23.1735 5.52019 23.3152 5.47787 23.4671C5.34583 23.9328 5.37235 24.3372 5.55743 24.6819C5.74251 25.0265 6.05116 25.2622 6.48621 25.3873C6.9585 25.5261 7.358 25.4865 7.68471 25.268C7.97926 25.0718 8.18409 24.7667 8.30089 24.3538C8.35111 24.1777 8.37932 24.016 8.38666 23.8686C8.39456 23.7212 8.38666 23.5721 8.36465 23.4236L9.08353 23.575ZM8.08703 27.4129C8.13556 27.6097 8.16603 27.8035 8.17901 27.9956C8.19086 28.1872 8.18973 28.3747 8.17337 28.5571C8.12032 29.1731 7.91098 29.6709 7.54421 30.0528C7.11367 30.5042 6.5353 30.698 5.80853 30.6332C5.09642 30.5696 4.56319 30.2874 4.20657 29.7873C3.87196 29.3182 3.73541 28.724 3.79692 28.0054C3.81328 27.8178 3.83698 27.6567 3.86971 27.519C3.90244 27.3814 3.95491 27.226 4.0277 27.0522L4.76012 27.156C4.69523 27.2839 4.64445 27.4181 4.60551 27.5592C4.56714 27.7003 4.53949 27.85 4.52651 28.0071C4.48532 28.4894 4.58689 28.8817 4.83291 29.1845C5.07893 29.4862 5.42708 29.6583 5.8768 29.6978C6.36602 29.742 6.75142 29.6256 7.03073 29.3486C7.28295 29.0985 7.42684 28.7596 7.46408 28.3323C7.48045 28.1499 7.47819 27.9842 7.45731 27.8391C7.437 27.6928 7.40201 27.5483 7.35236 27.4049L8.08703 27.4129ZM5.84803 32.578C5.22113 32.6566 4.79623 32.8699 4.57278 33.2169C4.43397 33.436 4.38206 33.6884 4.41705 33.9734C4.4509 34.2556 4.5615 34.4844 4.74883 34.6628C5.04733 34.9495 5.51059 35.0539 6.13806 34.9753C6.76496 34.8973 7.18985 34.6834 7.4133 34.3364C7.55211 34.1173 7.60402 33.865 7.56904 33.58C7.53518 33.2978 7.42515 33.069 7.23725 32.89C6.93819 32.6044 6.47549 32.5 5.84803 32.578ZM5.73574 31.6472C6.46025 31.556 7.0454 31.7057 7.48835 32.0968C7.87713 32.4381 8.10848 32.9072 8.18014 33.5043C8.2518 34.1001 8.14233 34.61 7.84948 35.0332C7.51261 35.5242 6.97938 35.8161 6.25035 35.9061C5.52583 35.9973 4.94181 35.8476 4.49774 35.4565C4.10839 35.1153 3.87817 34.6456 3.80595 34.0491C3.73428 33.4532 3.84375 32.9439 4.13661 32.5207C4.47291 32.0297 5.0067 31.7378 5.73574 31.6472ZM5.97893 37.8773C5.79273 37.9278 5.66125 38.0247 5.58395 38.1658C5.49536 38.3287 5.48182 38.5283 5.54389 38.7657L5.64771 39.1586L6.93875 38.8076L6.83436 38.4147C6.7706 38.1733 6.64985 38.0075 6.47323 37.9169C6.32596 37.8412 6.16063 37.828 5.97893 37.8773ZM5.76339 36.9643C6.0884 36.8765 6.40044 36.9069 6.6995 37.0595C7.0674 37.2487 7.31737 37.5894 7.44603 38.0803L7.59104 38.6298L9.15463 38.2048L9.3809 39.0628L5.21943 40.1955L4.8899 38.9446C4.75448 38.4325 4.7652 38.0029 4.92263 37.6542C5.07837 37.305 5.35993 37.0744 5.76339 36.9643Z" fill="white"/>
</svg>
