<svg width="85" height="35" viewBox="0 0 85 35" fill="none" xmlns="http://www.w3.org/2000/svg">
<path fill-rule="evenodd" clip-rule="evenodd" d="M4.33505 0.159424H80.6643C82.9591 0.159424 84.8365 1.98993 84.8365 4.22647V30.7731C84.8365 33.01 82.9591 34.8405 80.6643 34.8405H4.33505C2.04093 34.8405 0.163574 33.01 0.163574 30.7731V4.22647C0.163574 1.98993 2.04093 0.159424 4.33505 0.159424Z" stroke="white" stroke-miterlimit="10"/>
<path d="M4.33505 0.159424H80.6643C82.9591 0.159424 84.8365 1.98993 84.8365 4.22647V30.7731C84.8365 33.01 82.9591 34.8405 80.6643 34.8405H4.33505C2.04093 34.8405 0.163574 33.01 0.163574 30.7731V4.22647C0.163574 1.98993 2.04093 0.159424 4.33505 0.159424Z" stroke="white" stroke-width="0.5559" stroke-miterlimit="22.926"/>
<path fill-rule="evenodd" clip-rule="evenodd" d="M26.358 18.3266C26.7813 18.0166 26.8703 17.4482 26.5696 17.0355C26.2697 16.6224 25.6867 16.5188 25.2631 16.8113L7.95665 28.8131C7.53335 29.1055 7.44503 29.6739 7.745 30.1045C8.04563 30.5003 8.62823 30.6034 9.05153 30.3109L26.358 18.3266Z" fill="white"/>
<path fill-rule="evenodd" clip-rule="evenodd" d="M28.636 21.4432C29.0596 21.1501 29.148 20.5648 28.8477 20.1517C28.5477 19.7387 27.9648 19.6353 27.5408 19.9278L14.7205 28.8131C14.2969 29.1228 14.2082 29.6905 14.5085 30.1045C14.8085 30.5176 15.3915 30.6209 15.8154 30.3278L28.636 21.4432Z" fill="white"/>
<path fill-rule="evenodd" clip-rule="evenodd" d="M30.9142 24.5597C31.3378 24.2669 31.4265 23.6989 31.1259 23.2858C30.8256 22.8721 30.2429 22.7688 29.819 23.0616H29.8013L21.4839 28.8296C21.0783 29.1228 20.9723 29.6905 21.2723 30.1042C21.5729 30.5172 22.1552 30.6206 22.5968 30.3284L30.9142 24.5597Z" fill="white"/>
<path fill-rule="evenodd" clip-rule="evenodd" d="M34.693 11.3877C34.3927 10.9747 33.8101 10.8883 33.3862 11.1814C32.9629 11.4739 32.8562 12.0426 33.1565 12.4553L34.887 14.8319L34.1277 15.3655C33.7045 15.658 33.6161 16.2264 33.9161 16.6394C34.2164 17.0525 34.799 17.1564 35.2226 16.8633L35.9825 16.3469L36.4412 16.9667C36.4412 16.9667 36.4412 16.9667 36.4592 16.9839H36.4412C38.0833 19.2396 37.5537 22.373 35.2406 23.9914L28.283 28.8128C27.8588 29.1056 27.7708 29.6909 28.0707 30.1039C28.371 30.517 28.9536 30.6034 29.3779 30.3278C29.3779 30.3278 36.3175 25.5243 36.3175 25.5068C39.4968 23.3028 40.2561 19.0153 37.9953 15.8988L34.693 11.3877Z" fill="white"/>
<path fill-rule="evenodd" clip-rule="evenodd" d="M62.3298 9.68285C62.3298 7.82332 62.5418 6.5663 63.142 5.73988C64.2369 4.15561 66.1974 3.91479 67.5569 3.91479C68.6871 3.91479 69.7646 4.12116 70.2413 4.3103C70.4529 4.37952 71.0892 4.65478 71.0892 5.41263C71.0892 6.06617 70.6122 6.60075 70.0116 6.60075C69.729 6.60011 68.5461 6.41097 68.2811 6.41097C65.7911 6.41097 65.5264 7.78823 65.5264 9.97565V11.4387H67.5222C68.2815 11.4387 69.4643 11.4387 69.4643 12.5583C69.4643 13.7292 68.2108 13.7292 67.5222 13.7292H65.5264V27.8995C65.5264 28.9502 65.4908 29.6213 65.0492 30.0178C64.8202 30.2417 64.4315 30.4483 63.9023 30.4483C63.513 30.4483 63.054 30.3106 62.7714 30.0178C62.3298 29.5872 62.3298 28.9502 62.3298 27.9002V13.7295H60.599C60.2283 13.7295 58.8335 13.7295 58.8335 12.5586C58.8335 11.439 60.2284 11.439 60.6696 11.439H62.3298V9.68285Z" fill="white"/>
<path fill-rule="evenodd" clip-rule="evenodd" d="M74.9207 7.92641C73.9145 7.92641 73.1549 7.13476 73.1549 6.17023C73.1549 5.24014 73.9145 4.44849 74.9207 4.44849C75.9096 4.44849 76.6689 5.24046 76.6689 6.17023C76.6689 7.13476 75.9096 7.92641 74.9207 7.92641ZM76.5275 27.9003C76.5275 28.8986 76.4925 29.1917 76.3866 29.4498C76.1569 30.1218 75.5036 30.4487 74.9204 30.4487C73.3312 30.4481 73.2962 29.0192 73.2962 27.8999V13.557C73.2962 12.4378 73.3312 11.9042 73.7378 11.4736C74.0378 11.1811 74.4261 11.0088 74.9564 11.0088C75.8036 11.0088 76.0863 11.3361 76.3159 11.7316C76.5275 12.1281 76.5275 12.9373 76.5275 13.557V27.9003Z" fill="white"/>
<path fill-rule="evenodd" clip-rule="evenodd" d="M53.0411 11.4394L53.0231 11.4569C52.6345 11.87 52.6172 12.3864 52.6172 13.2131V24.3882C52.6172 26.1102 51.169 27.5047 49.4028 27.5047C47.6727 27.5047 46.2242 26.1268 46.2065 24.4051V13.2128C46.2065 12.6964 46.2065 12.0594 46.0125 11.6974C45.8179 11.3533 45.5179 11.0088 44.723 11.0088C44.2814 11.0088 43.8928 11.1635 43.5931 11.4394V11.4569C43.2045 11.87 43.1865 12.3864 43.1865 13.2131V24.4564C43.2215 27.7627 46.0302 30.4659 49.4025 30.4659C52.7935 30.4659 55.6005 27.7797 55.6365 24.474V13.2128C55.6365 12.6964 55.6365 12.0594 55.4419 11.6974C55.2479 11.3533 54.9476 11.0088 54.1533 11.0088C53.7124 11.0088 53.3234 11.1635 53.0411 11.4394Z" fill="white"/>
</svg>
