<?xml version="1.0" encoding="utf-8"?>
<!-- Generator: Adobe Illustrator 21.1.0, SVG Export Plug-In . SVG Version: 6.00 Build 0)  -->
<svg version="1.1" id="Слой_1" xmlns="http://www.w3.org/2000/svg" xmlns:xlink="http://www.w3.org/1999/xlink" x="0px" y="0px"
	 viewBox="0 0 32 32" style="enable-background:new 0 0 32 32;" xml:space="preserve">
<style type="text/css">
	.st0{fill:none;}
</style>
<g>
	<path class="st0" d="M20.2,10.5c-0.6,0-1,0.5-1,1c0,0.6,0.5,1,1,1c0.6,0,1-0.5,1-1S20.8,10.6,20.2,10.5z"/>
	<path class="st0" d="M15.9,11.7c-2.3,0-4.2,1.9-4.2,4.2c0,2.3,1.9,4.2,4.2,4.2c2.3,0,4.2-1.9,4.2-4.2
		C20.1,13.6,18.2,11.7,15.9,11.7z M15.9,18.6c-1.5,0-2.7-1.2-2.7-2.7s1.2-2.7,2.7-2.7s2.7,1.2,2.7,2.7S17.4,18.6,15.9,18.6z"/>
	<path class="st0" d="M23.6,10.5c-0.2-0.5-0.5-1-0.9-1.4c-0.5-0.5-0.9-0.7-1.4-0.9s-1.1-0.3-2-0.4c-0.9-0.1-1.2-0.1-3.4-0.1
		c-2.2,0-2.5,0-3.4,0s-1.5,0.2-2,0.4C10,8.3,9.5,8.6,9.1,9c-0.5,0.6-0.7,1-0.9,1.5s-0.3,1.1-0.4,2c0,0.9,0,1.1,0,3.4
		c0,2.2,0,2.5,0,3.4c0,0.9,0.2,1.5,0.4,2s0.5,1,0.9,1.4c0.5,0.5,0.9,0.7,1.4,0.9c0.5,0.2,1.1,0.3,2,0.4c0.9,0,1.1,0,3.4,0
		c2.2,0,2.5,0,3.4,0c0.9,0,1.5-0.2,2-0.4c0.5-0.2,1-0.5,1.4-0.9c0.5-0.5,0.7-0.9,0.9-1.4c0.2-0.5,0.3-1.1,0.4-2
		c0-0.9,0.1-1.1,0.1-3.4c0-2.3,0-2.5-0.1-3.4C24,11.6,23.8,11,23.6,10.5z M22.5,15.8c0,2.2,0,2.4,0,3.3c0,0.8-0.2,1.2-0.3,1.5
		c-0.1,0.4-0.3,0.6-0.6,0.9c-0.3,0.3-0.6,0.5-0.9,0.6c-0.3,0.1-0.7,0.2-1.5,0.3c-0.9,0-1.1,0-3.3,0c-2.2,0-2.4,0-3.3,0
		c-0.8,0-1.2-0.2-1.5-0.3c-0.4-0.1-0.6-0.3-0.9-0.6s-0.5-0.6-0.6-0.9c-0.1-0.3-0.2-0.7-0.3-1.5c0-0.9,0-1.1,0-3.3s0-2.4,0-3.3
		c0-0.8,0.2-1.2,0.3-1.5c0.1-0.4,0.3-0.7,0.6-0.9c0.3-0.3,0.6-0.5,0.9-0.6c0.3-0.1,0.7-0.2,1.5-0.3c0.8,0,1.1,0,3.3,0
		c2.2,0,2.4,0,3.3,0c0.8,0,1.2,0.2,1.5,0.3c0.4,0.1,0.7,0.3,0.9,0.6c0.3,0.3,0.5,0.6,0.6,0.9c0.1,0.3,0.2,0.7,0.3,1.5
		C22.5,13.4,22.5,13.6,22.5,15.8z"/>
	<path d="M21.6,10.1c-0.2-0.3-0.5-0.5-0.9-0.6c-0.3-0.1-0.7-0.3-1.5-0.3c-0.9,0-1.1,0-3.3,0c-2.2,0-2.5,0-3.3,0
		c-0.8,0.1-1.2,0.2-1.5,0.3c-0.3,0.1-0.6,0.3-0.9,0.6c-0.3,0.2-0.5,0.5-0.6,0.9c-0.1,0.3-0.3,0.7-0.3,1.5c0,0.9,0,1.1,0,3.3
		s0,2.4,0,3.3c0.1,0.8,0.2,1.2,0.3,1.5c0.1,0.3,0.3,0.6,0.6,0.9s0.5,0.5,0.9,0.6c0.3,0.1,0.7,0.3,1.5,0.3c0.9,0,1.1,0,3.3,0
		c2.2,0,2.4,0,3.3,0c0.8-0.1,1.2-0.2,1.5-0.3c0.3-0.1,0.6-0.3,0.9-0.6c0.3-0.3,0.5-0.5,0.6-0.9c0.1-0.3,0.3-0.7,0.3-1.5
		c0-0.9,0-1.1,0-3.3s0-2.4,0-3.3c-0.1-0.8-0.2-1.2-0.3-1.5C22.1,10.7,21.9,10.4,21.6,10.1z M15.9,20.1c-2.3,0-4.2-1.9-4.2-4.2
		c0-2.3,1.9-4.2,4.2-4.2c2.3,0,4.2,1.9,4.2,4.2C20.1,18.2,18.2,20.1,15.9,20.1z M20.2,12.5c-0.5,0-1-0.4-1-1c0-0.5,0.4-1,1-1
		c0.6,0.1,1,0.5,1,1S20.8,12.5,20.2,12.5z"/>
	<path d="M15.9,13.2c-1.5,0-2.7,1.2-2.7,2.7s1.2,2.7,2.7,2.7s2.7-1.2,2.7-2.7S17.4,13.2,15.9,13.2z"/>
	<path d="M15.9,0C7.1,0,0,7.1,0,15.9c0,8.7,7.1,15.8,15.9,15.8c8.8,0,15.9-7.1,15.9-15.9C31.7,7.1,24.6,0,15.9,0z M24,19.3
		c-0.1,0.9-0.2,1.5-0.4,2c-0.2,0.5-0.4,0.9-0.9,1.4c-0.4,0.4-0.9,0.7-1.4,0.9c-0.5,0.2-1.1,0.4-2,0.4c-0.9,0-1.2,0-3.4,0
		c-2.3,0-2.5,0-3.4,0c-0.9-0.1-1.5-0.2-2-0.4c-0.5-0.2-0.9-0.4-1.4-0.9c-0.4-0.4-0.7-0.9-0.9-1.4s-0.4-1.1-0.4-2c0-0.9,0-1.2,0-3.4
		c0-2.3,0-2.5,0-3.4c0.1-0.9,0.2-1.5,0.4-2S8.6,9.6,9.1,9c0.4-0.4,0.9-0.7,1.4-0.9c0.5-0.2,1.1-0.4,2-0.4s1.2,0,3.4,0
		c2.2,0,2.5,0,3.4,0.1c0.9,0.1,1.5,0.2,2,0.4s0.9,0.4,1.4,0.9c0.4,0.4,0.7,0.9,0.9,1.4c0.2,0.5,0.4,1.1,0.4,2
		c0.1,0.9,0.1,1.1,0.1,3.4C24.1,18.2,24,18.4,24,19.3z"/>
</g>
</svg>
