<?xml version="1.0" encoding="utf-8"?>
<!-- Generator: Adobe Illustrator 21.1.0, SVG Export Plug-In . SVG Version: 6.00 Build 0)  -->
<svg version="1.1" id="Слой_1" xmlns="http://www.w3.org/2000/svg" xmlns:xlink="http://www.w3.org/1999/xlink" x="0px" y="0px"
	 viewBox="0 0 43 26" style="enable-background:new 0 0 43 26;" xml:space="preserve">
<style type="text/css">
	.st0{fill:none;}
</style>
<g>
	<polygon class="st0" points="2.9,1.1 21.5,17.1 40.1,1.1 	"/>
	<polygon class="st0" points="40.1,24.9 27.1,13.7 21.5,18.5 15.9,13.7 2.9,24.9 	"/>
	<polygon class="st0" points="41.7,25 42,25 42,1 41.7,1 27.8,13 	"/>
	<polygon class="st0" points="1,25 1.3,25 15.2,13 1.3,1 1,1 	"/>
	<path d="M0,0v26h43V0H0z M42,1v24h-0.3L27.8,13L41.7,1H42z M21.5,17.1L2.9,1.1h37.1L21.5,17.1z M21.5,18.5l5.6-4.8l13,11.2H2.9
		l13-11.2L21.5,18.5z M15.2,13L1.3,25H1V1h0.3L15.2,13z"/>
</g>
</svg>
