<?xml version="1.0" encoding="utf-8"?>
<!-- Generator: Adobe Illustrator 16.0.0, SVG Export Plug-In . SVG Version: 6.00 Build 0)  -->
<!DOCTYPE svg PUBLIC "-//W3C//DTD SVG 1.1//EN" "http://www.w3.org/Graphics/SVG/1.1/DTD/svg11.dtd">
<svg version="1.1" id="Layer_1" xmlns="http://www.w3.org/2000/svg" xmlns:xlink="http://www.w3.org/1999/xlink" x="0px" y="0px"
	 width="16.209px" height="40.854px" viewBox="0 0 16.209 40.854" enable-background="new 0 0 16.209 40.854" xml:space="preserve">
<g>
	<path fill-rule="evenodd" clip-rule="evenodd" fill="#2B2A29" d="M3.804,13.508H6.34v-2.591c0-0.546,0.447-0.993,0.993-0.993H8.16
		c0.546,0,0.993,0.447,0.993,0.993v2.591h1.875v-1.535c0-0.46,0.375-0.836,0.836-0.836h0.146c0.461,0,0.836,0.376,0.836,0.836v1.535
		h1.709c0.91,0,1.654,0.744,1.654,1.654v24.038c0,0.91-0.744,1.654-1.654,1.654H1.654C0.744,40.854,0,40.109,0,39.199V15.162
		c0-0.717,0.461-1.331,1.103-1.559V7.939c0-0.439,0.26-0.82,0.634-0.997V0.717C1.737,0.322,2.059,0,2.453,0h0
		C2.848,0,3.17,0.322,3.17,0.717v6.225C3.544,7.119,3.804,7.5,3.804,7.939V13.508L3.804,13.508z M2.73,15.435h10.748
		c0.531,0,0.967,0.435,0.967,0.966v4.468c0,0.531-0.436,0.966-0.967,0.966H2.73c-0.531,0-0.966-0.435-0.966-0.966v-4.468
		C1.765,15.869,2.199,15.435,2.73,15.435L2.73,15.435z M8.104,24.645c-3.501,0-6.34,2.839-6.34,6.34c0,3.502,2.838,6.34,6.34,6.34
		c3.501,0,6.339-2.838,6.339-6.34C14.443,27.483,11.605,24.645,8.104,24.645L8.104,24.645z M8.104,26.188
		c-2.649,0-4.796,2.148-4.796,4.797c0,2.649,2.147,4.797,4.796,4.797c2.649,0,4.796-2.147,4.796-4.797
		C12.9,28.336,10.754,26.188,8.104,26.188L8.104,26.188z M8.104,28.394c-1.431,0-2.591,1.16-2.591,2.591
		c0,1.432,1.16,2.592,2.591,2.592c1.431,0,2.591-1.16,2.591-2.592C10.695,29.554,9.535,28.394,8.104,28.394L8.104,28.394z"/>
</g>
</svg>
