<?xml version="1.0" encoding="utf-8"?>
<!-- Generator: Adobe Illustrator 21.1.0, SVG Export Plug-In . SVG Version: 6.00 Build 0)  -->
<svg version="1.1" id="Слой_1" xmlns="http://www.w3.org/2000/svg" xmlns:xlink="http://www.w3.org/1999/xlink" x="0px" y="0px"
	 viewBox="0 0 31.1 30.6" style="enable-background:new 0 0 31.1 30.6;" xml:space="preserve">
<style type="text/css">
	.st0{fill:none;}
</style>
<g>
	<path class="st0" d="M24,12.5c0-3.1-1.2-6-3.4-8.1C18.4,2.1,15.4,1,12.5,1C9.6,1,6.6,2.1,4.4,4.4C2.2,6.5,1,9.4,1,12.5
		s1.2,6,3.4,8.1c2.2,2.2,5.1,3.4,8.1,3.4c3.1,0,6-1.2,8.1-3.4S24,15.6,24,12.5z"/>
	<path d="M31.1,29l-8.8-8.8c1.7-2.2,2.7-4.9,2.7-7.7c0-3.3-1.3-6.5-3.7-8.8c-4.9-4.9-12.8-4.9-17.7,0C1.3,6,0,9.2,0,12.5
		s1.3,6.5,3.7,8.8C6,23.7,9.2,25,12.5,25c3.1,0,6-1.1,8.2-3.1l8.7,8.7L31.1,29z M4.4,20.6C2.2,18.5,1,15.6,1,12.5s1.2-6,3.4-8.1
		C6.6,2.1,9.6,1,12.5,1c2.9,0,5.9,1.1,8.1,3.4c2.2,2.2,3.4,5.1,3.4,8.1s-1.2,6-3.4,8.1S15.6,24,12.5,24C9.4,24,6.5,22.8,4.4,20.6z"
		/>
</g>
</svg>
