<?xml version="1.0" encoding="utf-8"?>
<!-- Generator: Adobe Illustrator 16.0.0, SVG Export Plug-In . SVG Version: 6.00 Build 0)  -->
<!DOCTYPE svg PUBLIC "-//W3C//DTD SVG 1.1//EN" "http://www.w3.org/Graphics/SVG/1.1/DTD/svg11.dtd">
<svg version="1.1" id="Layer_1" xmlns="http://www.w3.org/2000/svg" xmlns:xlink="http://www.w3.org/1999/xlink" x="0px" y="0px"
	 width="53.758px" height="27.218px" viewBox="0 0 53.758 27.218" enable-background="new 0 0 53.758 27.218" xml:space="preserve">
<g>
	<path fill-rule="evenodd" clip-rule="evenodd" fill="#2B2A29" d="M13.481,10.242c-0.269-0.807-0.628-4.216-0.628-4.216
		l-0.021-0.039c1.71-0.52,4.301-1.309,4.73-1.442c0.65-0.202,1.076-0.605,0.919-1.323c-0.157-0.718-1.771-0.516-1.771-0.516
		l-4.93,1.362l-0.452-0.824L8.01,2.887c0,0,7.534-3.14,12.916-2.87c5.382,0.269,16.146,2.69,16.146,2.69S28.46,4.591,25.59,5.488
		S13.481,10.242,13.481,10.242L13.481,10.242z M0.275,24.036c0,0,9.625-6.233,21.565-3.202c13.177,3.345,15.478,3.86,27.665-1.299
		c0,0-9.853,8.44-21.605,5.45C10.393,20.532,11.816,21.355,0.275,24.036L0.275,24.036z M0.722,25.938c0,0,6.789-3.394,11.837-2.819
		c6.99,0.794,8.298,2.902,17.167,3.088c-3.05,0.808-6.06,1.896-13.483-0.204C7.807,23.616,4.239,25.225,0.722,25.938L0.722,25.938z
		 M0,18.617v4.5c0,0,8.296-6.506,22.262-3.222c13.965,3.285,21.379,1.396,21.808,0.642l9.688-17.042c0,0-4.126-0.359-17.581,1.973
		C22.723,7.8,0.03,18.261,0.03,18.261L0,18.617L0,18.617z M28.325,13.112c-0.916,0-1.659-0.743-1.659-1.659s0.743-1.66,1.659-1.66
		c0.917,0,1.66,0.743,1.66,1.66S29.242,13.112,28.325,13.112L28.325,13.112z M23.751,14.547c-0.917,0-1.66-0.743-1.66-1.659
		c0-0.916,0.743-1.659,1.66-1.659c0.916,0,1.659,0.743,1.659,1.659C25.41,13.804,24.667,14.547,23.751,14.547L23.751,14.547z
		 M19.177,15.982c-0.917,0-1.659-0.743-1.659-1.66c0-0.916,0.743-1.659,1.659-1.659s1.659,0.743,1.659,1.659
		C20.836,15.239,20.093,15.982,19.177,15.982L19.177,15.982z"/>
</g>
</svg>
