<?xml version="1.0" encoding="utf-8"?>
<!-- Generator: Adobe Illustrator 16.0.0, SVG Export Plug-In . SVG Version: 6.00 Build 0)  -->
<!DOCTYPE svg PUBLIC "-//W3C//DTD SVG 1.1//EN" "http://www.w3.org/Graphics/SVG/1.1/DTD/svg11.dtd">
<svg version="1.1" id="Layer_1" xmlns="http://www.w3.org/2000/svg" xmlns:xlink="http://www.w3.org/1999/xlink" x="0px" y="0px"
	 width="51.345px" height="38.742px" viewBox="0 0 51.345 38.742" enable-background="new 0 0 51.345 38.742" xml:space="preserve">
<g>
	<path fill="#2B2A29" d="M0.482,27.064c0.022-0.043,7.644-14.354,9.191-18.686c1.586-4.44,3.199-6.874,3.204-6.882l1.06-0.813
		l0.586,0.398c1.54,0.364,6.207,1.316,12.316,1.192C34.296,2.121,37.39,0.5,37.398,0.495L38.353,0l0.36,1.017
		c0.01,0.028,3.445,9.71,6.411,17.045c2.944,7.284,5.702,11.42,5.711,11.432l0.51,0.775l-0.768,0.518
		c-0.009,0.006-3.08,2.107-8.545,3.875c-5.203,1.684-10.043,3.879-10.39,4.033l0.029,0.047l-13.953-4.52l-0.173-0.369
		C17.54,33.84,15.314,29.07,14.2,25.09c-0.396-1.414-0.598-3.814-0.674-5.098c-0.427,2.266-1.8,5.479-2.402,7.059
		c-1.326,3.48-1.936,4.09-1.938,4.092l-0.441,0.441L0,27.973L0.482,27.064L0.482,27.064z M15.396,2.958
		c2.12,4.653,7.662,16.889,10.295,23.411c3.257,8.064,4.624,10.189,4.628,10.195l0.032,0.051c1.404-0.484,6.596-2.277,11.109-3.738
		c3.629-1.174,6.122-2.486,7.297-3.172c-0.958-1.576-3.126-5.383-5.374-10.945c-2.438-6.033-5.177-13.595-6.109-16.193
		c-1.527,0.547-4.883,1.466-10.397,1.579C21.901,4.248,17.763,3.511,15.396,2.958L15.396,2.958z M11.444,9.01
		c-1.35,3.777-7.11,14.779-8.82,18.019l5.521,2.279c0.228-0.459,0.752-1.508,1.363-3.113c1.535-3.564,2.913-8.035,4.376-11.4
		c0.708,3.262,1.415,6.525,2.123,9.789c0.898,3.209,2.54,6.939,3.067,8.107l8.538,2.766c-0.777-1.586-1.979-4.221-3.663-8.391
		c-2.649-6.559-8.215-18.846-10.298-23.417C13.07,4.877,12.262,6.718,11.444,9.01L11.444,9.01z"/>
</g>
</svg>
