<?xml version="1.0" encoding="utf-8"?>
<!-- Generator: Adobe Illustrator 21.1.0, SVG Export Plug-In . SVG Version: 6.00 Build 0)  -->
<svg version="1.1" id="Слой_1" xmlns="http://www.w3.org/2000/svg" xmlns:xlink="http://www.w3.org/1999/xlink" x="0px" y="0px"
	 viewBox="0 0 31.8 31.7" style="enable-background:new 0 0 31.8 31.7;" xml:space="preserve">
<style type="text/css">
	.st0{fill:none;}
</style>
<g>
	<path class="st0" d="M14.1,12.2c0,0.5,0.1,0.9,0.3,1.1c0.2,0.3,0.6,0.5,1,0.5c0.4,0,0.8-0.2,1-0.5c0.2-0.2,0.3-0.6,0.3-1.1v-1.7
		c0-0.5-0.1-0.9-0.3-1.1c-0.2-0.3-0.6-0.5-1-0.5c-0.4,0-0.8,0.2-1,0.5c-0.2,0.2-0.3,0.6-0.3,1.1V12.2z M15,10.4
		c0-0.4,0.1-0.7,0.4-0.7c0.3,0,0.4,0.2,0.4,0.7v2c0,0.4-0.1,0.7-0.4,0.7c-0.3,0-0.4-0.2-0.4-0.7V10.4z"/>
	<path class="st0" d="M11.9,11.1v2.6h1v-2.6l1.2-3.8h-1l-0.7,2.5l-0.7-2.5h-1c0.2,0.6,0.4,1.2,0.6,1.8C11.6,10,11.8,10.7,11.9,11.1z
		"/>
	<path class="st0" d="M18,13.8c0.3,0,0.7-0.2,1-0.6v0.5l0.9,0.1V8.9H19v3.7c-0.2,0.3-0.4,0.4-0.6,0.4c-0.1,0-0.2-0.1-0.2-0.2
		c0,0,0-0.1,0-0.3V8.9h-0.9v3.8c0,0.3,0,0.6,0.1,0.7C17.5,13.6,17.7,13.8,18,13.8z"/>
	<path class="st0" d="M17.2,18.7c-0.1,0-0.3,0.1-0.4,0.2v2.9c0.1,0.1,0.3,0.2,0.4,0.2c0.3,0,0.4-0.2,0.4-0.6v-2
		C17.6,18.9,17.4,18.7,17.2,18.7z"/>
	<path class="st0" d="M21,14.8c-1.8-0.2-3.6-0.2-5.4-0.2c-1.8,0-3.6,0-5.4,0.2c-0.7,0.1-1.4,0.6-1.5,1.4c-0.2,1.1-0.3,2.3-0.3,3.4
		c0,1.1,0,2.3,0.2,3.4c0.2,0.8,0.8,1.3,1.5,1.4c1.8,0.2,3.6,0.2,5.4,0.2s3.6,0,5.4-0.2c0.8-0.1,1.4-0.6,1.5-1.4
		c0.2-1.1,0.3-2.3,0.3-3.4c0.1-1.1,0.1-2.3-0.2-3.4C22.3,15.4,21.7,14.9,21,14.8z M11.5,22.7h-1v-5.5h-1v-0.9h3v0.9h-1V22.7z
		 M15,22.7h-0.8v-0.5c-0.3,0.4-0.7,0.6-1,0.6s-0.5-0.1-0.6-0.4c0-0.1-0.1-0.4-0.1-0.7V18h0.9v3.5c0,0.2,0,0.3,0,0.3
		c0,0.1,0.1,0.2,0.2,0.2c0.2,0,0.4-0.1,0.5-0.4V18H15V22.7z M18.4,21.3c0,0.4,0,0.8-0.1,1c-0.1,0.4-0.3,0.5-0.7,0.5
		c-0.3,0-0.6-0.2-0.9-0.5v0.5h-0.9v-6.4h0.9v2.1c0.3-0.3,0.6-0.5,0.9-0.5c0.3,0,0.6,0.2,0.7,0.5c0.1,0.2,0.1,0.5,0.1,1V21.3z
		 M21.7,20.5H20v0.8c0,0.4,0.1,0.7,0.4,0.7c0.2,0,0.3-0.1,0.4-0.3c0,0,0-0.2,0-0.6h0.9v0.1c0,0.3,0,0.5,0,0.6c0,0.2-0.1,0.4-0.2,0.5
		c-0.2,0.3-0.6,0.5-1,0.5c-0.5,0-0.8-0.2-1-0.5c-0.2-0.2-0.3-0.6-0.3-1.1v-1.7c0-0.5,0.1-0.9,0.3-1.1c0.3-0.3,0.6-0.5,1-0.5
		s0.8,0.2,1,0.5c0.2,0.2,0.3,0.6,0.3,1.1L21.7,20.5z"/>
	<path class="st0" d="M20.4,18.7c-0.3,0-0.4,0.2-0.4,0.7v0.4h0.9v-0.4C20.8,18.9,20.7,18.7,20.4,18.7z"/>
	<path d="M17.6,18c-0.3,0-0.6,0.2-0.9,0.5v-2.1h-0.9v6.4h0.9v-0.5c0.3,0.3,0.6,0.5,0.9,0.5c0.4,0,0.6-0.1,0.7-0.5
		c0.1-0.2,0.1-0.6,0.1-1v-1.8c0-0.5,0-0.8-0.1-1C18.2,18.2,17.9,18,17.6,18z M17.6,21.4c0,0.4-0.1,0.6-0.4,0.6
		c-0.1,0-0.3-0.1-0.4-0.2v-2.9c0.1-0.1,0.3-0.2,0.4-0.2c0.2,0,0.4,0.2,0.4,0.7V21.4z"/>
	<path d="M14.1,21.6C14,21.9,13.8,22,13.6,22c-0.1,0-0.2-0.1-0.2-0.2c0,0,0-0.1,0-0.3V18h-0.9v3.7c0,0.3,0.1,0.6,0.1,0.7
		c0.1,0.3,0.3,0.4,0.6,0.4s0.7-0.2,1-0.6v0.5H15V18h-0.9V21.6z"/>
	<path d="M15.4,13.1c0.3,0,0.4-0.3,0.4-0.7v-2c0-0.5-0.1-0.7-0.4-0.7c-0.3,0-0.4,0.3-0.4,0.7v2C15,12.9,15.1,13.1,15.4,13.1z"/>
	<polygon points="12.5,16.3 9.5,16.3 9.5,17.2 10.5,17.2 10.5,22.7 11.5,22.7 11.5,17.2 12.5,17.2 	"/>
	<path d="M15.9,0C7.1,0,0,7.1,0,15.9c0,8.7,7.1,15.8,15.9,15.8c8.8,0,15.9-7.1,15.9-15.9C31.7,7.1,24.6,0,15.9,0z M17.3,8.9h0.9v3.6
		c0,0.2,0,0.3,0,0.3c0,0.1,0.1,0.2,0.2,0.2c0.2,0,0.4-0.1,0.6-0.4V8.9h0.9v4.9L19,13.7v-0.5c-0.3,0.4-0.7,0.6-1,0.6
		s-0.5-0.2-0.6-0.4c-0.1-0.1-0.1-0.4-0.1-0.7V8.9z M15.4,8.9c0.4,0,0.8,0.2,1,0.5c0.2,0.2,0.3,0.6,0.3,1.1v1.7
		c0,0.5-0.1,0.9-0.3,1.1c-0.2,0.3-0.6,0.5-1,0.5c-0.4,0-0.8-0.2-1-0.5c-0.2-0.2-0.3-0.6-0.3-1.1v-1.7c0-0.5,0.1-0.9,0.3-1.1
		C14.6,9.1,15,8.9,15.4,8.9z M11.7,7.3l0.7,2.5l0.7-2.5h1l-1.2,3.8v2.6h-1v-2.6c-0.1-0.4-0.3-1.1-0.6-2c-0.2-0.6-0.4-1.2-0.6-1.8
		H11.7z M22.7,19.6c0,1.1-0.1,2.3-0.3,3.4c-0.1,0.8-0.7,1.3-1.5,1.4c-1.8,0.2-3.6,0.2-5.4,0.2s-3.6,0-5.4-0.2
		c-0.7-0.1-1.3-0.6-1.5-1.4c-0.2-1.1-0.2-2.3-0.2-3.4c0-1.1,0.1-2.3,0.3-3.4c0.1-0.8,0.8-1.3,1.5-1.4c1.8-0.2,3.6-0.2,5.4-0.2
		c1.8,0,3.6,0,5.4,0.2c0.7,0.1,1.3,0.6,1.5,1.4C22.8,17.3,22.8,18.5,22.7,19.6z"/>
	<path d="M20.5,17.9c-0.4,0-0.7,0.2-1,0.5c-0.2,0.2-0.3,0.6-0.3,1.1v1.7c0,0.5,0.1,0.9,0.3,1.1c0.2,0.3,0.5,0.5,1,0.5
		c0.4,0,0.8-0.2,1-0.5c0.1-0.1,0.2-0.3,0.2-0.5c0-0.1,0-0.3,0-0.6v-0.1h-0.9c0,0.4,0,0.6,0,0.6c-0.1,0.2-0.2,0.3-0.4,0.3
		c-0.3,0-0.4-0.3-0.4-0.7v-0.8h1.7l0.1-1c0-0.5-0.1-0.9-0.3-1.1C21.3,18.1,20.9,17.9,20.5,17.9z M20.9,19.8H20v-0.4
		c0-0.5,0.1-0.7,0.4-0.7c0.3,0,0.4,0.2,0.5,0.7V19.8z"/>
</g>
</svg>
