<?xml version="1.0" encoding="utf-8"?>
<!-- Generator: Adobe Illustrator 21.1.0, SVG Export Plug-In . SVG Version: 6.00 Build 0)  -->
<svg version="1.1" id="Слой_1" xmlns="http://www.w3.org/2000/svg" xmlns:xlink="http://www.w3.org/1999/xlink" x="0px" y="0px"
	 viewBox="0 0 83 83" style="enable-background:new 0 0 83 83;" xml:space="preserve">
<g>
	<path d="M45.8,50.1l1.6-32.6H35.9l1.7,32.6H45.8z M41.6,66.8c3.9,0,6.4-2.8,6.4-6.6c-0.1-3.8-2.6-6.6-6.4-6.6s-6.5,2.7-6.5,6.6
		C35.2,64,37.8,66.8,41.6,66.8z"/>
</g>
<g>
	<path d="M41.5,83C18.6,83,0,64.4,0,41.5C0,18.6,18.6,0,41.5,0C64.4,0,83,18.6,83,41.5C83,64.4,64.4,83,41.5,83z M41.5,3
		C20.3,3,3,20.3,3,41.5C3,62.7,20.3,80,41.5,80C62.7,80,80,62.7,80,41.5C80,20.3,62.7,3,41.5,3z"/>
</g>
</svg>
