<?xml version="1.0" encoding="utf-8"?>
<!-- Generator: Adobe Illustrator 16.0.0, SVG Export Plug-In . SVG Version: 6.00 Build 0)  -->
<!DOCTYPE svg PUBLIC "-//W3C//DTD SVG 1.1//EN" "http://www.w3.org/Graphics/SVG/1.1/DTD/svg11.dtd">
<svg version="1.1" id="Layer_1" xmlns="http://www.w3.org/2000/svg" xmlns:xlink="http://www.w3.org/1999/xlink" x="0px" y="0px"
	 width="55.247px" height="33.351px" viewBox="0 0 55.247 33.351" enable-background="new 0 0 55.247 33.351" xml:space="preserve">
<g>
	<path fill="#2B2A29" d="M34.218,16.332c-2.302,0.111-6.206-0.033-7.33-2.131c-0.724-1.35-1.985-3.47-3.102-5.138
		c-0.643-0.959-1.198-1.737-1.494-2.045c-0.984-0.282-2.009-0.38-3.064-0.38c-1.338,0-3.537,1.758-4.713,2.791
		c1.241,1.225,3.402,3.498,4.574,5.529c1.342,2.327,2.729,6.621,3.249,8.306h9.238C32.049,21.951,33.167,18.889,34.218,16.332
		L34.218,16.332z M10.65,21.852c1.018,0,1.939,0.413,2.606,1.08s1.08,1.589,1.08,2.606s-0.413,1.939-1.08,2.606
		s-1.589,1.079-2.606,1.079s-1.939-0.412-2.606-1.079s-1.08-1.589-1.08-2.606s0.413-1.939,1.08-2.606S9.633,21.852,10.65,21.852
		L10.65,21.852z M11.883,24.305c-0.315-0.314-0.751-0.51-1.232-0.51s-0.918,0.195-1.233,0.51c-0.315,0.315-0.51,0.752-0.51,1.233
		s0.195,0.917,0.51,1.232s0.751,0.511,1.233,0.511s0.917-0.195,1.232-0.511s0.51-0.751,0.51-1.232S12.198,24.62,11.883,24.305
		L11.883,24.305z M44.204,21.852c1.018,0,1.939,0.413,2.606,1.08s1.079,1.589,1.079,2.606s-0.412,1.939-1.079,2.606
		s-1.589,1.079-2.606,1.079s-1.939-0.412-2.606-1.079s-1.08-1.589-1.08-2.606s0.413-1.939,1.08-2.606S43.187,21.852,44.204,21.852
		L44.204,21.852z M45.437,24.305c-0.315-0.314-0.751-0.51-1.232-0.51s-0.918,0.195-1.232,0.51c-0.315,0.315-0.511,0.752-0.511,1.233
		s0.195,0.917,0.511,1.232c0.314,0.315,0.751,0.511,1.232,0.511s0.917-0.195,1.232-0.511s0.511-0.751,0.511-1.232
		S45.752,24.62,45.437,24.305L45.437,24.305z M34.496,20.939h3.395c0.239-0.328,0.503-0.636,0.789-0.922l0.004-0.004
		c1.08-1.079,2.473-1.844,4.028-2.146l1.714-4.161h8.063l-1.771-4.911c-0.227-0.072-0.573-0.162-1.051-0.234
		c-0.591,0.184-2.227,0.67-4.603,1.198c-1.511,0.336-3.294,0.976-4.809,1.803c-1.21,0.662-2.224,1.428-2.725,2.221
		C36.82,14.909,35.498,18.268,34.496,20.939L34.496,20.939z M36.855,22.882h-3.078c-0.366,1.003-0.602,1.668-0.604,1.675
		l-0.23,0.649H20.886L20.684,24.5c-0.001-0.006-0.19-0.654-0.499-1.618h-2.187c0.3,0.83,0.464,1.724,0.464,2.656
		c0,2.156-0.875,4.11-2.289,5.523c-1.414,1.414-3.367,2.289-5.524,2.289c-2.154,0-4.107-0.876-5.522-2.291
		c-1.416-1.411-2.291-3.365-2.291-5.521c0-0.392,0.029-0.777,0.085-1.153l-1.054-0.377l-0.168-0.389
		c-0.005-0.013-1.928-4.454-1.678-6.452c0.218-1.75,0.777-4.427,0.778-4.435l0.046-0.205l0.125-0.167
		c0.005-0.008,2-2.624,4.701-2.881c1.887-0.18,5.818-0.763,6.926-0.929c0.679-0.628,2.725-2.437,4.673-3.336
		c0.03-0.164,0.102-0.323,0.218-0.458c0.175-0.205,2.748-4.046,2.755-4.057c0.185-0.274,0.486-0.424,0.793-0.428L25.5,0.001
		c0.535-0.031,0.993,0.376,1.025,0.911c0.031,0.534-0.376,0.993-0.911,1.025L21.59,2.181c-0.38,0.57-1.102,1.65-1.7,2.526
		c0.994,0.038,1.974,0.167,2.943,0.446l0.147,0.043l0.021-0.042c0.052,0.026,0.107,0.06,0.166,0.102
		c1.081,0.352,2.14,0.896,3.176,1.714c0.979,0.773,2.204,1.413,3.493,1.794c1.16,0.343,2.36,0.472,3.458,0.289
		c0.842-0.141,2.277-0.451,3.915-0.804c3.214-0.695,7.2-1.557,9.427-1.705c3.516-0.234,5.271,0.643,5.275,0.646l0.347,0.173
		l2.988,8.288H45.72l-0.865,2.102c1.897,0.156,3.604,0.991,4.873,2.262c1.413,1.417,2.289,3.371,2.289,5.524
		c0,2.156-0.875,4.11-2.289,5.523c-1.413,1.414-3.367,2.289-5.523,2.289c-2.153,0-4.106-0.876-5.522-2.291
		c-1.416-1.411-2.29-3.365-2.29-5.521C36.392,24.605,36.556,23.712,36.855,22.882L36.855,22.882z M16.965,20.939h2.571
		c-0.608-1.741-1.381-3.731-2.123-5.019c-1.183-2.049-3.528-4.42-4.586-5.44c-0.853,0.127-3.082,0.457-4.998,0.7
		c-0.173,0.534-1.196,3.662-1.751,4.585c-0.646,1.077-3.025,1.26-4.081,1.288c-0.017,0.119-0.032,0.235-0.046,0.349
		c-0.149,1.197,0.95,4.028,1.374,5.063l0.125,0.045c0.396-0.938,0.969-1.783,1.678-2.492l0.004-0.004
		c1.416-1.414,3.368-2.289,5.521-2.289c2.157,0,4.11,0.875,5.524,2.289C16.461,20.301,16.726,20.61,16.965,20.939L16.965,20.939z
		 M2.311,15.124c0.795-0.012,1.94-0.078,2.104-0.352c0.326-0.542,0.928-2.265,1.292-3.347c-1.473,0.215-2.678,1.494-3.06,1.942
		C2.58,13.695,2.448,14.362,2.311,15.124L2.311,15.124z M26.208,9.234c0.907,1.434,1.811,2.977,2.388,4.055
		c0.793,1.479,4.912,1.206,6.482,1.044c0.307-0.669,0.586-1.221,0.813-1.583c0.691-1.095,1.961-2.081,3.438-2.888
		c0.087-0.047,0.174-0.094,0.262-0.141c-0.674,0.144-1.339,0.287-1.973,0.424c-1.64,0.354-3.078,0.665-4.006,0.82
		c-1.399,0.233-2.897,0.08-4.323-0.342C28.202,10.302,27.148,9.82,26.208,9.234L26.208,9.234z M14.801,21.388
		c-1.062-1.062-2.53-1.72-4.15-1.72c-1.624,0-3.091,0.656-4.151,1.716l-0.003,0.004c-1.06,1.059-1.715,2.526-1.715,4.15
		c0,1.62,0.657,3.088,1.719,4.149v0.004c1.06,1.06,2.527,1.716,4.151,1.716c1.621,0,3.088-0.657,4.15-1.72
		c1.062-1.062,1.719-2.529,1.719-4.149c0-1.623-0.656-3.092-1.715-4.15H14.801L14.801,21.388z M48.354,21.388
		c-1.062-1.062-2.53-1.72-4.15-1.72c-1.624,0-3.091,0.656-4.15,1.716l-0.004,0.004c-1.06,1.059-1.716,2.526-1.716,4.15
		c0,1.62,0.658,3.088,1.72,4.149v0.004c1.06,1.06,2.527,1.716,4.15,1.716c1.62,0,3.089-0.657,4.15-1.72
		c1.062-1.062,1.719-2.529,1.719-4.149c0-1.623-0.656-3.092-1.716-4.15H48.354L48.354,21.388z"/>
</g>
</svg>
