<?xml version="1.0" encoding="utf-8"?>
<!-- Generator: Adobe Illustrator 16.0.0, SVG Export Plug-In . SVG Version: 6.00 Build 0)  -->
<!DOCTYPE svg PUBLIC "-//W3C//DTD SVG 1.1//EN" "http://www.w3.org/Graphics/SVG/1.1/DTD/svg11.dtd">
<svg version="1.1" id="Layer_1" xmlns="http://www.w3.org/2000/svg" xmlns:xlink="http://www.w3.org/1999/xlink" x="0px" y="0px"
	 width="39.414px" height="40.295px" viewBox="0 0 39.414 40.295" enable-background="new 0 0 39.414 40.295" xml:space="preserve">
<g>
	<path fill-rule="evenodd" clip-rule="evenodd" fill="#2B2A29" d="M19.891,1.87c-0.207-0.799,0.272-1.615,1.072-1.822
		c0.798-0.207,1.615,0.273,1.822,1.072c0.002,0.004,0.096,0.361,0.211,0.939l9.707,11.996l-1.166,0.943l-8.16-10.084
		c0.127,2.019-0.066,4.352-1.33,5.675c-0.781,0.819-1.658,1.409-2.497,1.973c-1.154,0.776-2.213,1.489-2.25,2.574
		c-0.077,2.315,0.958,3.793,0.961,3.797c0.368,0.54,0.368,1.89,0,2.429c-0.003,0.004-1.038,1.482-0.961,3.798
		c0.037,1.085,1.095,1.798,2.25,2.574c0.839,0.563,1.715,1.153,2.497,1.973c1.264,1.323,1.457,3.656,1.33,5.675l8.16-10.084
		l1.166,0.943l-9.707,11.995c-0.115,0.578-0.209,0.935-0.211,0.939c-0.207,0.799-1.023,1.278-1.822,1.071
		c-0.8-0.207-1.279-1.022-1.072-1.822c0.003-0.015,1.376-5.199-0.012-6.655c-0.561-0.589-1.292-1.08-1.993-1.552
		c-1.818-1.223-3.486-2.345-3.574-4.965c-0.081-2.418,0.743-4.277,1.194-5.105c-0.451-0.828-1.274-2.688-1.194-5.105
		c0.088-2.62,1.756-3.742,3.574-4.965c0.7-0.472,1.432-0.963,1.993-1.551C21.268,7.07,19.895,1.885,19.891,1.87L19.891,1.87z
		 M0,20.114l4.594-2.013l4.594-2.014l-0.989,2.414h4.207c0.233,0.721,0.503,1.283,0.701,1.646c-0.191,0.352-0.45,0.89-0.679,1.579
		H8.199l0.989,2.414l-4.594-2.014L0,20.114L0,20.114z M31.525,18.501l0.842-1.702l2.42,1.196l-0.25,0.505h2.568l0.424-0.855
		l1.885,0.932l-0.816,1.649l0.816,1.648l-1.885,0.932l-0.535-1.08h-2.457l0.25,0.505l-2.42,1.196l-0.842-1.701H19.961
		c0.123-0.236,0.212-0.362,0.213-0.364c0.368-0.54,0.368-1.889,0-2.429c-0.001-0.001-0.106-0.152-0.248-0.432H31.525L31.525,18.501z
		"/>
</g>
</svg>
