<?xml version="1.0" encoding="utf-8"?>
<!-- Generator: Adobe Illustrator 21.1.0, SVG Export Plug-In . SVG Version: 6.00 Build 0)  -->
<svg version="1.1" id="Слой_1" xmlns="http://www.w3.org/2000/svg" xmlns:xlink="http://www.w3.org/1999/xlink" x="0px" y="0px"
	 viewBox="0 0 31.8 31.7" style="enable-background:new 0 0 31.8 31.7;" xml:space="preserve">
<style type="text/css">
	.st0{fill:none;}
</style>
<g>
	<path class="st0" d="M13.9,11.2v2.5h-3v3.4h3v8.8h3.5v-8.8h3l0.4-3.4h-3.4v-2.2c0-1,0.3-1.7,1.7-1.7h1.8v-3c-0.3,0-1.4-0.1-2.6-0.1
		C15.7,6.7,13.9,8.3,13.9,11.2z"/>
	<path d="M15.9,0C7.1,0,0,7.1,0,15.9c0,8.7,7.1,15.8,15.9,15.8c8.8,0,15.9-7.1,15.9-15.9C31.7,7.1,24.6,0,15.9,0z M20.9,9.8h-1.8
		c-1.4,0-1.7,0.7-1.7,1.7v2.2h3.4l-0.4,3.4h-3v8.8h-3.5v-8.8h-3v-3.4h3v-2.5c0-2.9,1.8-4.5,4.4-4.5c1.2,0,2.3,0.1,2.6,0.1V9.8z"/>
</g>
</svg>
