<?xml version="1.0" encoding="utf-8"?>
<!-- Generator: Adobe Illustrator 16.0.0, SVG Export Plug-In . SVG Version: 6.00 Build 0)  -->
<!DOCTYPE svg PUBLIC "-//W3C//DTD SVG 1.1//EN" "http://www.w3.org/Graphics/SVG/1.1/DTD/svg11.dtd">
<svg version="1.1" id="Layer_1" xmlns="http://www.w3.org/2000/svg" xmlns:xlink="http://www.w3.org/1999/xlink" x="0px" y="0px"
	 width="46.955px" height="47.736px" viewBox="0 0 46.955 47.736" enable-background="new 0 0 46.955 47.736" xml:space="preserve">
<g>
	<path fill-rule="evenodd" clip-rule="evenodd" fill="#2B2A29" d="M41.509,3.734c0.159,1.303,0.774,4.675,3.064,8.427
		c2.935,4.811,3.83,10.424-1.248,13.097c-5.078,2.672-9.755-1.56-9.8-5.257c-0.044-3.697,2.45-6.013,2.45-6.013l1.648,4.232
		l-1.693-0.802c0,0-1.091,3.341,0.179,4.989c1.269,1.649,3.374,3.04,6.537,1.303c3.162-1.737,2.639-5.401,1.035-8.341
		c-1.604-2.939-4.365-8.374-4.633-10.958C39.026,4.19,39.025,4,39.042,3.833c-0.56-0.375-0.929-1.015-0.929-1.74
		C38.113,0.937,39.051,0,40.207,0s2.094,0.937,2.094,2.093C42.301,2.758,41.991,3.35,41.509,3.734L41.509,3.734z M0,29.711
		c0,0,5.76,0.742,7.345,5.277c1.147-1.086,2.813-2.451,4.532-3.139l-1.515-1.961l7.483-6.057c0,0,2.316,0.268,3.564,1.247
		c1.247,0.98,2.761,2.762,2.761,2.762s6.504,0.18,10.156,1.961s6.771,5.078,6.771,5.078l-3.207,3.117l2.228,2.852
		c0,0-4.811,3.83-9.176,5.078s-11.938,0.355-11.938,0.355l-7.127,1.455l1.515-3.859c0,0-3.119-1.871-4.098-2.406
		c-0.98-0.533-1.871-1.246-1.871-1.246l-0.195-0.445C5.5,43.676,0,45.035,0,45.035s2.301-3.543,2.445-7.799
		C2.588,32.982,0,29.711,0,29.711L0,29.711z M32.512,31.633c1.671,0.023,3.018,1.385,3.018,3.061c0,1.691-1.371,3.063-3.063,3.063
		s-3.063-1.371-3.063-3.063c0-1.676,1.348-3.037,3.018-3.061c-0.901,0.023-1.625,0.762-1.625,1.67c0,0.922,0.747,1.67,1.67,1.67
		s1.671-0.748,1.671-1.67C34.138,32.395,33.414,31.656,32.512,31.633L32.512,31.633z"/>
</g>
</svg>
