<?xml version="1.0" encoding="utf-8"?>
<!-- Generator: Adobe Illustrator 21.1.0, SVG Export Plug-In . SVG Version: 6.00 Build 0)  -->
<svg version="1.1" id="Слой_1" xmlns="http://www.w3.org/2000/svg" xmlns:xlink="http://www.w3.org/1999/xlink" x="0px" y="0px"
	 viewBox="0 0 59.8 59.7" style="enable-background:new 0 0 59.8 59.7;" xml:space="preserve">
<g>
	<path d="M29.9,0C13.4,0,0,13.4,0,29.9s13.4,29.8,29.9,29.8s29.9-13.4,29.9-29.9C59.8,13.4,46.4,0,29.9,0z M44.1,34.9
		c3.1,2.9,3.7,4.2,3.8,4.4c1.2,2-1.4,2.2-1.4,2.2l-5.1,0.1c0,0-1.1,0.2-2.5-0.8c-1.9-1.3-3.7-4.6-5.1-4.2c-1.4,0.5-1.4,3.5-1.4,3.5
		s0,0.7-0.3,1c-0.3,0.4-1,0.5-1,0.5h-2.3c0,0-5,0.3-9.2-4.5c-4.8-5-9-14.9-9-14.9s-0.3-0.7,0-1c0.3-0.4,1.1-0.4,1.1-0.4h5.4
		c0,0,0.5,0.1,0.9,0.4c0.3,0.2,0.5,0.6,0.5,0.6s0.8,2.2,2,4.2c2.3,3.9,3.3,4.7,4.1,4.3c1.1-0.6,0.8-5.5,0.8-5.5s0-1.8-0.6-2.6
		c-0.5-0.6-1.3-0.7-1.7-0.8c-0.3-0.1,0.2-0.8,0.8-1.1c0.9-0.5,2.7-0.5,4.7-0.5c1.6,0.1,2.1,0.1,2.7,0.3c1.8,0.5,1.2,2.2,1.2,6.4
		c0,1.3-0.3,3.2,0.7,3.8c0.4,0.2,1.5,0,4-4.3c1.2-2,2.1-4.4,2.1-4.4s0.2-0.4,0.5-0.6s0.7-0.1,0.7-0.1h5.7c0,0,1.7-0.2,2,0.6
		s-0.7,2.7-3,5.8C41.3,32.4,40.9,32,44.1,34.9z"/>
</g>
</svg>
