<svg width="396" height="58" viewBox="0 0 396 58" fill="none" xmlns="http://www.w3.org/2000/svg">
<path d="M91.975 18.801C91.975 12.966 91.797 11.071 90.434 9.56002C89.605 8.64202 88.479 8.02002 86.821 8.02002C85.163 8.02002 84.037 8.64202 83.208 9.56002C81.846 11.07 81.668 12.966 81.668 18.801C81.668 24.635 81.846 26.531 83.208 28.041C84.038 28.959 85.163 29.582 86.821 29.582C88.48 29.582 89.605 28.959 90.434 28.041C91.797 26.531 91.975 24.635 91.975 18.801ZM89.428 18.801C89.428 23.806 89.28 25.494 88.539 26.501C88.184 26.975 87.651 27.301 86.821 27.301C85.992 27.301 85.429 26.975 85.074 26.501C84.333 25.494 84.215 23.806 84.215 18.801C84.215 13.796 84.333 12.107 85.074 11.1C85.429 10.626 85.992 10.3 86.821 10.3C87.651 10.3 88.183 10.626 88.539 11.1C89.28 12.107 89.428 13.795 89.428 18.801Z" fill="#FF0000"/>
<path d="M104.415 29.344L100.268 18.386L104.089 8.25702H101.305L98.8759 15.958L96.4769 8.25702H93.6929L97.3949 18.386L93.3669 29.344H96.1509L98.8759 20.992L101.63 29.344H104.415Z" fill="black"/>
<path d="M116.114 18.801C116.114 12.966 115.936 11.071 114.573 9.56002C113.744 8.64202 112.618 8.02002 110.96 8.02002C109.302 8.02002 108.176 8.64202 107.347 9.56002C105.985 11.07 105.807 12.966 105.807 18.801C105.807 24.635 105.985 26.531 107.347 28.041C108.176 28.959 109.302 29.582 110.96 29.582C112.618 29.582 113.744 28.959 114.573 28.041C115.936 26.531 116.114 24.635 116.114 18.801ZM113.566 18.801C113.566 23.806 113.418 25.494 112.677 26.501C112.322 26.975 111.788 27.301 110.959 27.301C110.13 27.301 109.567 26.975 109.211 26.501C108.47 25.494 108.352 23.806 108.352 18.801C108.352 13.796 108.47 12.107 109.211 11.1C109.566 10.626 110.129 10.3 110.959 10.3C111.789 10.3 112.321 10.626 112.677 11.1C113.418 12.107 113.566 13.795 113.566 18.801Z" fill="black"/>
<path d="M127.457 10.537V8.25702H117.832V10.537H121.385V29.344H123.933V10.537H127.457Z" fill="black"/>
<path d="M139.452 29.344L134.565 8.25702H132.107L127.19 29.344H129.856L130.863 24.369H135.75L136.757 29.344H139.452ZM135.276 22.088H131.337L133.321 12.373L135.276 22.088Z" fill="black"/>
<path d="M157.105 29.344V8.25702H154.765L149.582 22.917V8.25702H147.035V29.344H149.404L154.558 14.713V29.344H157.105Z" fill="black"/>
<path d="M176.179 14.417C176.179 9.73698 174.372 8.25598 171.174 8.25598H166.435V29.343H168.982V20.548H171.174C174.313 20.548 176.179 19.038 176.179 14.417ZM173.632 14.417C173.632 17.23 172.802 18.267 171.085 18.267H168.982V10.537H171.085C172.802 10.537 173.632 11.574 173.632 14.417Z" fill="black"/>
<path d="M193.387 29.344V8.25702H190.84V29.344H193.387ZM188.915 23.184C188.915 18.534 187.108 17.053 183.91 17.053H181.718V8.25702H179.171V29.344H183.91C187.078 29.344 188.915 27.834 188.915 23.184ZM186.367 23.184C186.367 26.027 185.538 27.064 183.879 27.064H181.717V19.334H183.879C185.538 19.334 186.367 20.371 186.367 23.184Z" fill="black"/>
<path d="M207.041 23.155C207.041 18.475 205.175 16.965 201.977 16.965H199.726V10.538H206.093V8.258H197.178V29.345H201.977C205.146 29.344 207.041 27.805 207.041 23.155ZM204.493 23.155C204.493 25.998 203.604 27.064 201.946 27.064H199.725V19.274H201.946C203.604 19.274 204.493 20.311 204.493 23.155Z" fill="black"/>
<path d="M219.688 18.801C219.688 12.966 219.51 11.071 218.148 9.56002C217.319 8.64202 216.193 8.02002 214.535 8.02002C212.876 8.02002 211.751 8.64202 210.922 9.56002C209.56 11.07 209.382 12.966 209.382 18.801C209.382 24.635 209.56 26.531 210.922 28.041C211.751 28.959 212.876 29.582 214.535 29.582C216.193 29.582 217.319 28.959 218.148 28.041C219.51 26.531 219.688 24.635 219.688 18.801ZM217.141 18.801C217.141 23.806 216.993 25.494 216.252 26.501C215.897 26.975 215.363 27.301 214.534 27.301C213.705 27.301 213.141 26.975 212.786 26.501C212.046 25.494 211.928 23.806 211.928 18.801C211.928 13.796 212.046 12.107 212.786 11.1C213.141 10.626 213.705 10.3 214.534 10.3C215.363 10.3 215.896 10.626 216.252 11.1C216.992 12.107 217.141 13.795 217.141 18.801Z" fill="black"/>
<path d="M232.305 29.344V8.25702H223.538V19.482C223.538 26.649 222.116 27.064 220.576 27.064H220.309V29.344H221.049C223.715 29.344 225.965 28.516 225.965 19.867V10.537H229.757V29.344H232.305Z" fill="black"/>
<path d="M245.899 18.801C245.899 12.966 245.721 11.071 244.359 9.56002C243.529 8.64202 242.404 8.02002 240.745 8.02002C239.087 8.02002 237.962 8.64202 237.132 9.56002C235.77 11.07 235.592 12.966 235.592 18.801C235.592 24.635 235.77 26.531 237.132 28.041C237.962 28.959 239.087 29.582 240.745 29.582C242.404 29.582 243.529 28.959 244.359 28.041C245.722 26.531 245.899 24.635 245.899 18.801ZM243.352 18.801C243.352 23.806 243.205 25.494 242.463 26.501C242.108 26.975 241.575 27.301 240.745 27.301C239.916 27.301 239.353 26.975 238.998 26.501C238.258 25.494 238.14 23.806 238.14 18.801C238.14 13.796 238.258 12.107 238.998 11.1C239.353 10.626 239.916 10.3 240.745 10.3C241.575 10.3 242.107 10.626 242.463 11.1C243.204 12.107 243.352 13.795 243.352 18.801Z" fill="black"/>
<path d="M258.96 23.421C258.96 21.614 258.782 20.193 257.687 19.127C257.332 18.801 256.858 18.505 256.384 18.357C256.799 18.179 257.213 17.913 257.569 17.557C258.605 16.55 258.813 15.306 258.813 13.796C258.813 11.515 258.487 10.479 257.569 9.531C256.71 8.642 255.585 8.258 253.718 8.258H249.187V29.345H253.718C255.584 29.345 256.739 28.96 257.598 28.072C258.546 27.094 258.96 25.968 258.96 23.421ZM256.413 23.273C256.413 26.175 255.495 27.064 253.57 27.064H251.733V19.482H253.57C255.466 19.482 256.413 20.548 256.413 23.273ZM256.266 13.914C256.266 16.313 255.407 17.291 253.6 17.291H251.734V10.538H253.6C255.436 10.537 256.266 11.367 256.266 13.914Z" fill="black"/>
<path d="M271.548 24.132H269.03C269.001 25.021 268.823 25.939 268.348 26.561C268.023 26.976 267.49 27.302 266.69 27.302C265.861 27.302 265.298 26.976 264.943 26.502C264.202 25.495 264.084 23.807 264.084 18.802C264.084 13.797 264.202 12.108 264.943 11.101C265.298 10.627 265.861 10.301 266.69 10.301C267.49 10.301 268.023 10.627 268.348 11.041C268.852 11.663 269 12.552 269.03 13.44H271.548C271.519 11.722 271.015 10.211 270.037 9.26402C269.208 8.46402 268.171 8.02002 266.69 8.02002C265.032 8.02002 263.877 8.64202 263.077 9.56002C261.685 11.159 261.537 12.966 261.537 18.801C261.537 24.635 261.685 26.442 263.077 28.041C263.877 28.959 265.032 29.582 266.69 29.582C268.083 29.582 269.119 29.166 269.948 28.426C270.985 27.479 271.519 25.909 271.548 24.132Z" fill="black"/>
<path d="M282.625 10.537V8.25702H272.999V10.537H276.553V29.344H279.101V10.537H282.625Z" fill="black"/>
<path d="M294.916 23.421C294.916 21.614 294.738 20.193 293.643 19.127C293.288 18.801 292.814 18.505 292.34 18.357C292.754 18.179 293.169 17.913 293.525 17.557C294.561 16.55 294.769 15.306 294.769 13.796C294.769 11.515 294.443 10.479 293.525 9.531C292.666 8.642 291.541 8.258 289.674 8.258H285.143V29.345H289.674C291.54 29.345 292.695 28.96 293.554 28.072C294.502 27.094 294.916 25.968 294.916 23.421ZM292.369 23.273C292.369 26.175 291.451 27.064 289.525 27.064H287.689V19.482H289.525C291.421 19.482 292.369 20.548 292.369 23.273ZM292.221 13.914C292.221 16.313 291.363 17.291 289.556 17.291H287.69V10.538H289.556C291.392 10.537 292.221 11.367 292.221 13.914Z" fill="black"/>
<path d="M307.8 18.801C307.8 12.966 307.622 11.071 306.26 9.56002C305.431 8.64202 304.305 8.02002 302.647 8.02002C300.988 8.02002 299.863 8.64202 299.034 9.56002C297.672 11.07 297.494 12.966 297.494 18.801C297.494 24.635 297.672 26.531 299.034 28.041C299.863 28.959 300.988 29.582 302.647 29.582C304.305 29.582 305.431 28.959 306.26 28.041C307.622 26.531 307.8 24.635 307.8 18.801ZM305.253 18.801C305.253 23.806 305.105 25.494 304.364 26.501C304.009 26.975 303.475 27.301 302.646 27.301C301.817 27.301 301.253 26.975 300.899 26.501C300.158 25.494 300.04 23.806 300.04 18.801C300.04 13.796 300.158 12.107 300.899 11.1C301.253 10.626 301.817 10.3 302.646 10.3C303.475 10.3 304.008 10.626 304.364 11.1C305.104 12.107 305.253 13.795 305.253 18.801Z" fill="black"/>
<path d="M326.399 29.344V8.25702H323.853V17.468H319.173V8.25702H316.626V29.344H319.173V19.778H323.853V29.344H326.399Z" fill="black"/>
<path d="M340.705 29.344L335.818 8.25702H333.36L328.443 29.344H331.109L332.116 24.369H337.003L338.01 29.344H340.705ZM336.529 22.088H332.59L334.574 12.373L336.529 22.088Z" fill="black"/>
<path d="M358.032 14.417C358.032 9.73698 356.224 8.25598 353.026 8.25598H348.287V29.343H350.835V20.548H353.026C356.166 20.548 358.032 19.038 358.032 14.417ZM355.484 14.417C355.484 17.23 354.655 18.267 352.937 18.267H350.834V10.537H352.937C354.655 10.537 355.484 11.574 355.484 14.417Z" fill="black"/>
<path d="M370.768 8.25702H367.984L365.111 19.008L362.179 8.25702H359.395L363.897 22.532L363.215 24.872C362.711 26.619 362.06 27.063 360.342 27.063V29.343C363.244 29.343 364.429 28.78 365.288 25.997L370.768 8.25702Z" fill="black"/>
<path d="M381.992 24.132H379.474C379.445 25.021 379.267 25.939 378.793 26.561C378.467 26.976 377.934 27.302 377.134 27.302C376.305 27.302 375.742 26.976 375.387 26.502C374.647 25.495 374.529 23.807 374.529 18.802C374.529 13.797 374.647 12.108 375.387 11.101C375.742 10.627 376.305 10.301 377.134 10.301C377.934 10.301 378.467 10.627 378.793 11.041C379.296 11.663 379.444 12.552 379.474 13.44H381.992C381.963 11.722 381.459 10.211 380.482 9.26402C379.652 8.46402 378.616 8.02002 377.134 8.02002C375.476 8.02002 374.321 8.64202 373.521 9.56002C372.129 11.159 371.981 12.966 371.981 18.801C371.981 24.635 372.129 26.442 373.521 28.041C374.321 28.959 375.476 29.582 377.134 29.582C378.527 29.582 379.563 29.166 380.393 28.426C381.43 27.479 381.963 25.909 381.992 24.132Z" fill="black"/>
<path d="M395.084 29.344V8.25702H392.744L387.561 22.917V8.25702H385.014V29.344H387.383L392.536 14.713V29.344H395.084Z" fill="black"/>
<path d="M89.965 48.15V38.381H88.854L86.8921 43.814L84.9161 38.381H83.8051V48.15H84.9841V41.303L86.5071 45.764H87.2351L88.7851 41.193V48.15H89.965Z" fill="black"/>
<path d="M100.085 48.15V47.094H97.492V43.773H99.728V42.717H97.492V39.438H100.085V38.381H96.312V48.15H100.085Z" fill="black"/>
<path d="M114.375 48.15L111.741 43.004L114.156 38.381H112.88L110.506 43.061L113.071 48.151H114.375V48.15ZM110.479 48.15V38.38H109.299V48.15H110.479ZM109.271 43.061L106.815 38.381H105.553L108.022 43.004L105.333 48.15H106.623L109.271 43.061Z" fill="black"/>
<path d="M125.524 49.893V47.094H124.756V38.381H120.667V42.305C120.667 44.227 120.365 45.778 119.871 47.094H119.254V49.893H120.379V48.15H124.399V49.892H125.524V49.893ZM123.576 47.094H121.079C121.559 45.805 121.806 44.336 121.806 42.567V39.438H123.576V47.094Z" fill="black"/>
<path d="M135.589 38.381H134.299L132.968 43.361L131.61 38.381H130.32L132.405 44.994L132.09 46.078C131.857 46.889 131.555 47.094 130.759 47.094V48.151C132.104 48.151 132.653 47.889 133.051 46.6L135.589 38.381Z" fill="black"/>
<path d="M145.625 48.15V38.381H144.445V42.648H142.278V38.381H141.098V48.15H142.278V43.719H144.445V48.15H145.625Z" fill="black"/>
<path d="M156.829 48.15L154.565 38.38H153.426L151.148 48.15H152.383L152.85 45.845H155.114L155.58 48.15H156.829ZM154.895 44.789H153.07L153.989 40.289L154.895 44.789Z" fill="black"/>
<path d="M166.866 41.234C166.866 39.066 166.029 38.38 164.547 38.38H162.352V48.15H163.532V44.074H164.547C166.001 44.074 166.866 43.375 166.866 41.234ZM165.686 41.234C165.686 42.539 165.302 43.019 164.506 43.019H163.532V39.437H164.506C165.302 39.438 165.686 39.918 165.686 41.234Z" fill="black"/>
<path d="M177.438 43.266C177.438 40.563 177.355 39.684 176.725 38.985C176.341 38.559 175.819 38.272 175.051 38.272C174.283 38.272 173.761 38.559 173.377 38.985C172.746 39.684 172.664 40.563 172.664 43.266C172.664 45.969 172.746 46.848 173.377 47.547C173.761 47.973 174.283 48.26 175.051 48.26C175.82 48.26 176.341 47.973 176.725 47.547C177.356 46.848 177.438 45.969 177.438 43.266ZM176.258 43.266C176.258 45.584 176.19 46.368 175.846 46.832C175.681 47.053 175.434 47.203 175.05 47.203C174.666 47.203 174.405 47.053 174.24 46.832C173.897 46.367 173.843 45.584 173.843 43.266C173.843 40.948 173.898 40.164 174.24 39.698C174.405 39.479 174.666 39.329 175.05 39.329C175.434 39.329 175.681 39.479 175.846 39.698C176.19 40.164 176.258 40.947 176.258 43.266Z" fill="black"/>
<path d="M188.573 49.893V47.094H187.804V38.381H183.715V42.305C183.715 44.227 183.413 45.778 182.92 47.094H182.302V49.893H183.427V48.15H187.447V49.892H188.573V49.893ZM186.625 47.094H184.127C184.607 45.805 184.855 44.336 184.855 42.567V39.438H186.625V47.094Z" fill="black"/>
<path d="M198.926 48.15V38.381H197.746V42.648H195.578V38.381H194.398V48.15H195.578V43.719H197.746V48.15H198.926Z" fill="black"/>
<path d="M210.129 48.15L207.865 38.38H206.726L204.449 48.15H205.683L206.15 45.845H208.414L208.881 48.15H210.129ZM208.194 44.789H206.37L207.289 40.289L208.194 44.789Z" fill="black"/>
<path d="M220.139 48.15V38.38H217.93C216.449 38.38 215.625 39.025 215.625 41.165C215.625 42.524 215.954 43.319 216.805 43.718L215.31 48.15H216.558L217.903 43.951H218.96V48.15H220.139ZM218.959 42.908H217.916C217.011 42.908 216.805 42.209 216.805 41.166C216.805 40.137 217.011 39.437 217.916 39.437H218.959V42.908Z" fill="black"/>
<path d="M232.868 45.406C232.868 44.568 232.786 43.91 232.278 43.416C232.113 43.266 231.893 43.129 231.674 43.061C231.865 42.979 232.058 42.854 232.223 42.69C232.702 42.223 232.799 41.647 232.799 40.948C232.799 39.891 232.648 39.411 232.223 38.971C231.825 38.559 231.303 38.381 230.439 38.381H228.339V48.151H230.439C231.303 48.151 231.838 47.973 232.237 47.561C232.676 47.107 232.868 46.586 232.868 45.406ZM231.688 45.338C231.688 46.682 231.262 47.094 230.371 47.094H229.52V43.582H230.371C231.249 43.582 231.688 44.074 231.688 45.338ZM231.619 41.002C231.619 42.113 231.222 42.566 230.385 42.566H229.521V39.437H230.385C231.235 39.438 231.619 39.822 231.619 41.002Z" fill="black"/>
<path d="M245.595 48.15V38.38H244.414V48.15H245.595ZM243.522 45.297C243.522 43.143 242.685 42.455 241.204 42.455H240.188V38.381H239.008V48.151H241.203C242.672 48.15 243.522 47.451 243.522 45.297ZM242.343 45.297C242.343 46.613 241.959 47.094 241.191 47.094H240.189V43.512H241.191C241.959 43.512 242.343 43.992 242.343 45.297Z" fill="black"/>
<path d="M256.332 45.736H255.165C255.151 46.146 255.069 46.572 254.85 46.861C254.699 47.052 254.452 47.203 254.081 47.203C253.697 47.203 253.436 47.053 253.271 46.832C252.928 46.367 252.874 45.584 252.874 43.266C252.874 40.948 252.929 40.164 253.271 39.698C253.436 39.479 253.697 39.329 254.081 39.329C254.451 39.329 254.698 39.479 254.85 39.671C255.083 39.96 255.152 40.372 255.165 40.782H256.332C256.317 39.987 256.084 39.288 255.632 38.848C255.248 38.477 254.768 38.272 254.081 38.272C253.312 38.272 252.777 38.559 252.407 38.985C251.762 39.727 251.693 40.563 251.693 43.266C251.693 45.969 251.762 46.805 252.407 47.547C252.777 47.973 253.312 48.26 254.081 48.26C254.726 48.26 255.206 48.069 255.591 47.725C256.07 47.285 256.317 46.559 256.332 45.736Z" fill="black"/>
<path d="M266.039 39.438V38.381H261.58V39.438H263.227V48.15H264.406V39.438H266.039Z" fill="black"/>
<path d="M276.173 48.15L273.908 38.38H272.769L270.492 48.15H271.726L272.193 45.845H274.457L274.924 48.15H276.173ZM274.237 44.789H272.413L273.332 40.289L274.237 44.789Z" fill="black"/>
<path d="M286.224 45.406C286.224 44.568 286.141 43.91 285.633 43.416C285.469 43.266 285.249 43.129 285.029 43.061C285.221 42.979 285.414 42.854 285.578 42.69C286.058 42.223 286.154 41.647 286.154 40.948C286.154 39.891 286.004 39.411 285.578 38.971C285.181 38.559 284.659 38.381 283.795 38.381H281.695V48.151H283.795C284.659 48.151 285.194 47.973 285.592 47.561C286.031 47.107 286.224 46.586 286.224 45.406ZM285.043 45.338C285.043 46.682 284.618 47.094 283.727 47.094H282.875V43.582H283.727C284.604 43.582 285.043 44.074 285.043 45.338ZM284.975 41.002C284.975 42.113 284.578 42.566 283.741 42.566H282.876V39.437H283.741C284.591 39.438 284.975 39.822 284.975 41.002Z" fill="black"/>
<path d="M293.544 48.15V38.38H292.363V48.15H293.544ZM297.55 48.15L294.792 43.004L297.303 38.381H296.028L293.572 43.061L296.219 48.151H297.55V48.15Z" fill="black"/>
<path d="M308.19 48.15L305.926 38.38H304.787L302.51 48.15H303.744L304.211 45.845H306.475L306.942 48.15H308.19ZM306.256 44.789H304.432L305.351 40.289L306.256 44.789Z" fill="black"/>
<path d="M316.225 44.803V43.746H313.535V44.803H316.225Z" fill="black"/>
<path d="M326.865 48.15V38.38H324.656C323.175 38.38 322.351 39.025 322.351 41.165C322.351 42.524 322.68 43.319 323.531 43.718L322.036 48.15H323.284L324.629 43.951H325.686V48.15H326.865ZM325.686 42.908H324.643C323.738 42.908 323.532 42.209 323.532 41.166C323.532 40.137 323.738 39.437 324.643 39.437H325.686V42.908Z" fill="black"/>
<path d="M337.712 41.234C337.712 39.066 336.875 38.38 335.394 38.38H333.199V48.15H334.379V44.074H335.395C336.848 44.074 337.712 43.375 337.712 41.234ZM336.532 41.234C336.532 42.539 336.148 43.019 335.352 43.019H334.377V39.437H335.352C336.148 39.438 336.532 39.918 336.532 41.234Z" fill="black"/>
<path d="M349.903 48.15V38.381H348.792L346.83 43.814L344.854 38.381H343.743V48.15H344.923V41.303L346.445 45.764H347.173L348.724 41.193V48.15H349.903Z" fill="black"/>
<path d="M361.121 48.15L358.857 38.38H357.717L355.44 48.15H356.674L357.141 45.845H359.406L359.872 48.15H361.121ZM359.187 44.789H357.362L358.281 40.289L359.187 44.789Z" fill="black"/>
<path d="M371.158 41.234C371.158 39.066 370.321 38.38 368.839 38.38H366.644V48.15H367.825V44.074H368.84C370.293 44.074 371.158 43.375 371.158 41.234ZM369.978 41.234C369.978 42.539 369.594 43.019 368.798 43.019H367.824V39.437H368.798C369.594 39.438 369.978 39.918 369.978 41.234Z" fill="black"/>
<path d="M378.3 48.15V38.38H377.12V48.15H378.3ZM382.307 48.15L379.549 43.004L382.06 38.381H380.784L378.328 43.061L380.976 48.151H382.307V48.15Z" fill="black"/>
<path d="M392.947 48.15L390.683 38.38H389.544L387.266 48.15H388.501L388.968 45.845H391.232L391.699 48.15H392.947ZM391.013 44.789H389.189L390.108 40.289L391.013 44.789Z" fill="black"/>
<path fill-rule="evenodd" clip-rule="evenodd" d="M49.612 13.674C49.812 14.2 49.592 14.642 49.7 15.092C49.826 15.617 50.384 16.117 50.764 16.379C51.06 16.583 51.167 16.591 51.298 17.013C51.531 17.767 52.163 18.026 51.86 18.522C51.473 19.157 51.411 18.808 51.318 18.698C51.241 18.727 51.235 18.74 51.155 18.743C50.936 18.514 50.779 18.33 50.642 18.666C50.437 18.667 50.165 18.588 49.939 18.471C49.615 18.303 49.401 18.52 49.41 18.092L49.256 18.157C49.064 17.964 49.175 17.944 49.087 17.78C48.74 17.874 48.82 17.661 48.609 17.402C48.409 17.157 48.311 17.246 48.342 16.917C48.173 16.853 48.045 16.892 47.9 16.747C47.875 16.611 47.92 16.606 47.935 16.483C47.804 16.452 47.742 16.434 47.615 16.353C47.615 16.299 47.614 16.334 47.623 16.281L47.655 16.092C47.583 16.086 47.488 16.086 47.402 16.068C47.394 15.968 47.383 15.88 47.279 15.76C47.175 15.763 47.04 15.814 46.879 15.714C46.717 15.612 46.694 15.454 46.69 15.337C46.573 15.301 46.487 15.325 46.39 15.217C46.248 15.061 46.35 15.06 46.416 14.936C46.098 14.765 46.113 14.635 46.168 14.361C45.444 14.002 45.779 13.94 45.727 13.761L45.313 13.19L45.737 13.005L45.653 12.933C45.535 12.851 45.154 12.726 45.186 12.543C45.224 12.127 45.731 12.47 46.017 12.438C45.815 12.213 45.436 11.999 45.301 11.791C45.646 11.504 46.296 11.7 46.468 11.716C46.576 11.726 46.704 11.767 46.824 11.761C46.655 11.541 46.288 11.236 46.069 11.122C45.925 11.047 45.025 10.734 45.48 10.548C45.814 10.412 46.149 10.608 46.459 10.796C46.741 10.967 47.307 11.34 47.539 11.208C47.378 10.859 46.854 10.576 46.564 10.384C46.412 10.283 46.194 10.138 46.072 10.015C45.912 9.85499 45.782 9.59399 46.03 9.50699C46.601 9.30699 47.541 10.87 48.054 10.736C48.001 10.172 46.294 8.81499 46.785 8.27699C47.315 8.35899 47.764 9.37799 48.095 9.85399C48.734 10.773 49.237 10.839 49.51 11.066C49.025 11.321 49.136 11.295 49.133 11.58C48.993 11.573 48.889 11.547 48.801 11.726C48.832 11.904 48.955 11.903 48.857 12.085C48.789 12.212 48.706 12.226 48.578 12.318C48.692 12.47 48.948 12.522 48.991 12.737C49.032 12.945 48.689 13.024 48.679 13.217C48.664 13.487 48.975 13.448 49.115 13.468C49.366 13.504 49.376 13.407 49.612 13.674ZM50.787 5.42299C50.869 5.44899 50.914 5.54299 50.978 5.63199C51.185 5.82599 51.429 6.24299 51.69 6.11899C51.717 5.61099 49.974 4.13899 50.655 3.60399C51.05 3.59199 51.579 4.69599 51.851 5.08799C52.247 5.65499 52.685 5.85699 53.074 6.36999C52.747 6.31299 52.756 6.55799 52.478 6.57399C52.242 6.58699 52.152 6.35499 51.914 6.61499C51.859 6.85799 52.068 6.99099 51.951 7.15699C51.818 7.34399 51.597 7.23799 51.398 7.31699C51.28 7.39999 51.37 7.38699 51.388 7.55799C51.397 7.64399 51.357 7.72899 51.307 7.80399C51.071 7.97299 50.974 7.82599 50.779 7.86999C50.247 7.98999 50.699 8.56099 50.559 8.77199C50.458 8.92399 50.248 8.92499 50.368 9.22699C50.451 9.43499 50.643 9.58099 50.684 9.80099C50.718 9.98799 50.548 10.05 50.465 10.25C50.237 10.797 50.795 10.728 50.857 11.162C50.828 11.387 50.642 11.271 50.81 11.621C50.993 12.001 50.984 12.208 50.626 12.524C50.366 12.753 50.299 12.745 50.253 12.459C50.114 12.396 49.958 12.384 49.963 12.158C49.965 12.024 50.044 11.91 50.161 11.787C49.987 11.68 49.93 11.713 49.777 11.65C49.797 11.486 49.833 11.468 49.945 11.298C49.83 11.177 49.601 11.104 49.57 10.87C49.547 10.692 49.701 10.596 49.779 10.432C49.391 10.093 49.326 9.74499 49.842 9.53699C49.448 9.03799 48.995 8.48699 49.859 8.35599C49.664 8.08099 49.301 7.77299 49.449 7.50399C49.607 7.21499 49.798 7.54199 50.174 7.54599C50.216 7.45399 50.267 7.56999 50.141 7.37699C50.131 7.36099 50.05 7.27299 50.029 7.24799C49.835 7.00499 49.374 6.56899 49.488 6.27299C49.697 6.03999 50.203 6.26499 50.368 6.49399C50.559 6.53299 50.744 6.82699 51.027 6.85999C51.076 6.62399 50.761 6.29399 50.599 6.12199L50.286 5.74599C50.215 5.71899 50.151 5.62499 50.094 5.56599C50.087 5.55299 49.508 4.81199 49.982 4.73699C50.212 4.70299 50.697 5.25699 50.787 5.42299ZM48.921 21.784C48.939 21.636 49.114 21.32 49.189 21.174C49.267 21.021 49.422 20.703 49.54 20.6C49.724 20.501 49.832 20.53 49.989 20.491C50.391 20.388 50.981 19.829 51.33 19.602C51.278 19.738 51.222 20.16 51.459 20.284C51.571 20.251 51.686 20.172 51.779 20.161C51.769 20.349 51.627 20.425 51.544 20.609C51.509 20.687 51.502 20.761 51.465 20.85C51.309 21.227 51.024 21.63 50.707 21.94C50.286 22.35 49.483 22.96 48.853 22.99C48.694 22.998 48.77 22.976 48.629 22.937L48.538 22.8C48.541 22.694 48.506 22.629 48.517 22.517C48.524 22.454 48.554 22.316 48.58 22.248C48.629 22.118 48.823 21.867 48.921 21.784ZM65.383 9.32099C65.152 9.30399 65.085 9.02999 64.818 8.99899C64.499 8.96099 64.34 9.25899 64.167 9.21899C64.066 9.28199 64.021 9.25999 63.938 9.23999C64 8.87999 65.037 8.30599 65.446 8.40499C65.711 8.46899 65.697 8.45799 65.913 8.59599C66.017 8.58899 66.003 8.59799 66.127 8.62499C66.313 8.66499 66.979 8.62499 67.184 8.58599C67.348 8.55499 67.484 8.49599 67.625 8.46699L67.72 8.60699C67.639 8.95299 67.317 9.01699 67.007 9.17899C66.656 9.36299 66.37 9.74099 66.166 9.52099C66.033 9.48699 65.954 9.39299 65.562 9.36799C65.468 9.36299 65.439 9.37799 65.383 9.32099ZM63.479 9.85099C63.569 9.70599 63.666 9.46599 63.791 9.38399C63.936 9.39899 63.936 9.40299 64.07 9.49899C64.173 9.57399 64.235 9.62799 64.295 9.74599C64.401 9.78499 64.525 9.98799 64.604 10.091L64.826 10.398C64.83 10.407 64.833 10.417 64.836 10.425C64.839 10.433 64.841 10.445 64.843 10.452L64.849 10.505C64.787 10.648 64.535 10.71 64.386 10.768C64.098 10.879 63.215 11.596 62.965 11.808C62.687 12.043 62.412 12.31 62.173 12.568C61.996 12.759 61.735 13.244 61.418 13.131C61.161 12.965 61.271 12.382 60.563 12.539C60.256 12.607 59.764 12.886 59.484 12.838C60.331 12.326 60.625 12.182 61.421 11.463C61.73 11.184 62.043 10.971 62.4 10.742L63.378 10.029L63.479 9.85099ZM51.359 2.94299C52.079 3.62199 52.544 4.66599 53.05 5.53499C53.318 5.99699 53.67 6.44999 53.963 6.90599C54.653 7.98299 55.705 9.75299 55.965 10.894C56.159 11.743 56.845 12.81 57.516 13.35C57.26 13.525 57.008 13.6 56.772 13.555C56.458 13.494 56.47 13.233 56.382 12.96C56.231 12.49 56.042 11.971 55.855 11.504C55.661 11.018 55.462 10.447 55.163 10.004C54.756 9.40099 54.66 9.13099 54.447 8.49999C54.233 7.86599 54.148 7.63499 53.771 6.99699C52.704 5.18999 52.544 5.84699 52.078 5.13099C51.832 4.75499 50.984 3.31899 51.359 2.94299ZM51.097 16.13C50.906 15.745 50.84 15.434 50.679 15.074C50.606 14.909 50.455 14.721 50.47 14.544C50.49 14.303 50.554 14.315 50.359 14.028C50.2 13.794 50.345 13.733 50.341 13.537C50.338 13.386 50.253 13.186 50.272 13.035C50.317 12.672 50.873 12.554 51.181 12.333L51.072 12.793C51.014 12.96 50.994 13.05 50.927 13.209C50.695 13.761 50.948 13.693 51.177 13.991C51.414 14.3 51.206 14.75 51.594 14.879C52.091 15.043 51.991 15.041 52.094 15.536C52.197 16.032 52.492 15.705 52.572 16.445C52.617 16.864 52.983 16.924 53.296 16.788C53.837 16.553 54.594 15.765 54.992 15.349C56.076 14.216 56.432 15.108 55.486 15.503C54.913 15.742 54.995 15.75 54.559 16.137C54.3 16.367 54.015 16.614 53.769 16.866C53.123 17.529 51.813 19.702 51.421 19.983C51.397 19.776 51.429 19.744 51.54 19.533C51.706 19.216 51.675 18.9 51.88 18.62C52.315 18.026 51.961 18.019 51.802 17.673C51.688 17.425 51.915 17.513 51.59 17.161C51.427 16.985 51.438 16.846 51.366 16.653C51.302 16.477 51.184 16.306 51.097 16.13ZM60.623 14.184C60.554 14.292 60.437 14.439 60.364 14.549C60.227 14.757 60.01 15.299 59.749 15.668C59.405 16.153 59.05 16.633 58.717 17.124C58.196 17.89 58.286 17.804 57.678 18.581L56.38 19.985C55.253 21.095 54.504 21.329 52.985 21.524C52.491 21.587 52.538 21.587 52.224 21.975C52.021 22.225 51.802 22.427 51.592 22.672C51.325 22.984 50.915 23.402 50.745 23.745C50.675 23.888 50.651 24.012 50.584 24.121C50.385 23.834 50.405 23.521 50.369 23.241C50.221 23.384 50.154 23.489 49.938 23.558C49.853 23.489 49.893 23.321 49.903 23.23C49.928 23.014 49.854 23.085 49.756 22.959C49.749 22.95 49.745 22.948 49.741 22.942C50.051 22.343 50.616 22.683 51.103 21.992C51.322 21.682 51.739 20.727 52.227 20.898L52.194 21.04C52.067 21.37 51.858 21.309 51.737 21.842C51.991 21.719 51.99 21.481 52.226 21.32C52.39 21.208 52.684 21.2 52.866 21.177C53.151 21.14 53.827 20.908 54.154 20.802C54.581 20.662 55.098 20.501 55.435 20.13C55.695 19.844 55.8 19.658 55.875 19.304C56.01 18.662 55.269 19.08 55.058 19.148C54.808 19.23 54.483 19.262 54.436 18.888C54.463 18.617 54.994 18.479 55.248 18.406C55.387 18.365 55.568 18.305 55.693 18.275C56.253 18.14 57.45 17.383 57.935 16.985C59.233 15.918 59.621 14.776 60.623 14.184Z" fill="black"/>
<path fill-rule="evenodd" clip-rule="evenodd" d="M25.709 47.713C24.473 48.352 23.12 48.473 21.993 47.957C21.59 47.773 21.149 47.486 20.927 47.494C21.469 48.851 22.258 49.617 23.25 49.828C24.171 50.025 25.594 48.082 25.709 47.713Z" fill="black"/>
<path fill-rule="evenodd" clip-rule="evenodd" d="M20.238 50.455C19.29 50.893 18.271 50.939 17.444 50.516C17.147 50.366 16.826 50.135 16.66 50.135C17.022 51.17 17.589 51.77 18.325 51.961C19.008 52.139 20.14 50.729 20.238 50.455Z" fill="black"/>
<path fill-rule="evenodd" clip-rule="evenodd" d="M26.576 51.008C24.899 51.781 23.097 51.863 21.633 51.113C21.109 50.845 20.541 50.441 20.246 50.437C20.886 52.271 21.889 53.333 23.191 53.669C24.402 53.984 26.402 51.488 26.576 51.008Z" fill="black"/>
<path fill-rule="evenodd" clip-rule="evenodd" d="M23.29 54.213C22.072 54.776 20.764 54.834 19.7 54.291C19.319 54.096 18.907 53.803 18.693 53.801C19.158 55.131 19.886 55.903 20.832 56.149C21.71 56.375 23.163 54.563 23.29 54.213Z" fill="black"/>
<path fill-rule="evenodd" clip-rule="evenodd" d="M18.721 53.906C17.77 54.345 16.748 54.392 15.918 53.967C15.621 53.815 15.298 53.586 15.131 53.584C15.494 54.623 16.063 55.225 16.801 55.416C17.488 55.596 18.623 54.18 18.721 53.906Z" fill="black"/>
<path fill-rule="evenodd" clip-rule="evenodd" d="M25.013 57.24C24.554 56.98 24.865 55.64 27.784 54.261C27.902 54.206 27.782 53.98 27.878 53.88C27.48 52.944 27.101 51.786 27.865 51.05C28.47 50.737 29.61 50.765 30.633 51.208C32.205 51.624 32.043 51.823 33.769 52.198C33.994 53.405 33.061 54.161 34.883 56.11C33.385 56.756 32.589 56.878 30.251 57.542C27.383 58.24 25.416 57.842 25.013 57.24Z" fill="black"/>
<path fill-rule="evenodd" clip-rule="evenodd" d="M46.2661 30.904C46.2551 30.949 46.1911 30.984 46.2191 31.037L45.2491 32.822C44.3441 34.519 43.264 38.01 42.993 38.4C43.088 37.886 42.8461 36.39 42.6921 35.998C41.4291 36.043 39.929 36.602 38.326 36.041C39.573 34.215 42.1321 32.385 44.1281 31.551C44.6541 31.332 45.7211 30.914 46.2661 30.904Z" fill="black"/>
<path fill-rule="evenodd" clip-rule="evenodd" d="M53.5 34.92C53.725 36.277 53.317 38.654 51.015 39.17C50.282 39.336 46.515 39.666 45.941 39.584C46.466 38.346 47.96 37.068 49.328 36.299C50.969 35.377 52.042 35.35 53.5 34.92Z" fill="black"/>
<path fill-rule="evenodd" clip-rule="evenodd" d="M49.53 47.59C50.347 49.602 48.522 52.178 48.029 52.944C47.651 53.53 47.378 51.969 47.349 49.772L49.53 47.59Z" fill="black"/>
<path fill-rule="evenodd" clip-rule="evenodd" d="M58.62 23.081C61.91 33.332 55.456 34.715 53.08 30.658C55.386 31.619 57.671 32.863 58.484 29.803C59.101 27.482 58.557 25.12 58.62 23.081Z" fill="black"/>
<path fill-rule="evenodd" clip-rule="evenodd" d="M57.97 23.48C57.342 22.975 57.082 22.54 56.929 21.812C57.796 22.151 57.771 22.592 57.97 23.48Z" fill="black"/>
<path d="M54.39 25.971C54.33 26.226 54.371 26.481 54.486 26.686C54.603 26.893 54.795 27.049 55.034 27.106C55.273 27.163 55.515 27.109 55.712 26.976C55.907 26.845 56.058 26.636 56.118 26.38C56.178 26.125 56.137 25.87 56.022 25.666C55.906 25.459 55.714 25.302 55.474 25.246C55.235 25.19 54.993 25.244 54.796 25.376C54.602 25.507 54.451 25.716 54.39 25.971ZM54.701 26.197C54.739 26.488 54.94 26.735 55.227 26.803C55.44 26.853 55.655 26.795 55.819 26.662C55.764 26.735 55.698 26.798 55.625 26.848C55.463 26.957 55.265 27.001 55.069 26.955C54.873 26.909 54.716 26.78 54.62 26.611C54.523 26.439 54.489 26.224 54.54 26.007C54.591 25.791 54.718 25.614 54.881 25.503C54.954 25.454 55.034 25.419 55.117 25.398C54.941 25.484 54.798 25.645 54.731 25.85C54.767 25.842 54.806 25.843 54.846 25.852C54.968 25.881 55.048 25.986 55.024 26.088C55 26.189 54.881 26.248 54.759 26.219C54.739 26.214 54.719 26.207 54.701 26.197Z" fill="black"/>
<path fill-rule="evenodd" clip-rule="evenodd" d="M39.708 46.33C37.158 45.486 34.382 48.269 33.479 48.943C32.786 49.459 35.038 49.699 37.755 49.552C38.59 48.725 39.211 47.633 39.708 46.33Z" fill="black"/>
<path fill-rule="evenodd" clip-rule="evenodd" d="M24.83 40.52C24.83 40.52 24.655 38.434 24.481 37.913C24.137 37.046 23.439 36.177 22.92 35.479C22.745 35.133 22.397 36.176 22.048 36.002C21.876 35.828 22.048 35.654 21.876 35.479C21.702 35.133 21.006 35.479 20.832 35.133C20.485 34.785 20.657 34.438 20.657 34.438C20.966 34.438 21.527 34.733 21.527 34.088C21.512 33.875 20.948 33.123 21.006 33.047C21.089 32.977 22.674 34.192 22.92 34.438C22.994 34.518 23.788 34.538 23.788 34.264C23.962 34.088 23.962 33.743 23.962 33.569C23.788 33.048 23.264 33.048 22.92 32.7C22.397 32.177 21.876 32.177 21.527 31.833C21.181 31.657 20.485 30.44 20.832 30.44C21.006 30.266 22.048 31.483 22.048 31.309C22.223 31.135 22.571 30.614 22.048 30.092C21.355 29.569 22.2 29.375 21.678 28.678C19.992 26.576 22.153 27.58 22.745 28.182C22.92 28.182 22.92 28.528 22.92 28.702C23.264 28.876 23.613 28.702 23.613 28.702C23.613 28.702 23.788 29.05 23.613 29.05C23.439 29.224 23.264 29.224 23.092 29.224C22.745 29.05 22.745 29.05 22.571 29.05C21.863 29.05 24.038 31.657 24.83 31.657C24.877 31.704 26.013 32.177 26.047 32.177C26.615 31.62 25.157 31.116 24.481 30.441C24.309 30.093 24.137 29.918 24.137 29.746C23.963 29.4 23.963 29.051 24.137 29.051C24.137 29.051 24.481 29.051 24.83 29.401C25.173 29.737 25.534 30.104 25.872 30.442C26.047 30.442 26.047 30.442 26.221 30.442C26.744 30.792 26.744 31.137 27.263 31.137C27.438 31.137 28.133 31.311 28.479 31.137C28.479 31.137 28.479 30.961 28.133 30.791C28.116 30.783 26.605 30.268 26.57 30.268C26.396 30.094 26.395 29.918 26.57 29.918C27.704 30.361 28.27 30.061 28.479 30.268C28.654 30.442 28.654 30.616 28.828 30.616C28.958 30.616 29.117 30.095 29.521 30.095C29.87 30.269 30.044 30.616 30.393 30.962C30.914 31.485 31.509 32.935 31.768 33.521C31.94 33.869 32.018 34.257 31.911 34.25C31.68 34.25 31.136 32.727 30.74 32.529C30.568 32.355 30.393 32.355 30.393 32.529C30.393 32.529 30.349 32.736 30.72 33.797C30.917 34.358 31.9 35.137 31.436 35.137C31.087 35.137 30.741 34.614 30.394 34.092C29.871 33.399 29.493 32.961 29.269 32.947C28.188 32.679 28.712 33.189 29.497 33.97C29.592 34.159 30.587 35.464 30.221 35.831C30.046 36.352 30.221 36.872 30.046 37.048C29.98 37.112 29.431 35.443 28.655 35.831C28.56 36.058 28.511 36.485 28.749 36.96C28.924 37.308 29.113 37.487 29.178 37.741C28.961 38.372 29.35 39.307 29.178 39.481C29.178 39.651 28.829 39.131 28.655 39.481C28.373 40.321 28.549 42.465 27.962 43.651C27.962 43.825 27.962 43.477 27.962 43.477C27.962 43.651 27.788 43.651 27.788 43.303C27.614 42.782 27.44 41.914 27.44 41.043C27.44 40.736 27.788 39.311 27.788 37.566C27.614 36.697 27.265 37.394 27.265 37.566C27.091 38.089 26.919 39.13 26.746 39.48C26.572 39.826 26.572 38.783 26.397 38.957C26.223 39.131 26.397 39.307 26.223 39.48C26.049 39.65 25.7 38.783 25.7 38.957C25.356 39.307 25.874 41.391 25.528 41.564C25.181 41.738 25.356 40.867 25.181 40.521C25.179 40.172 24.83 40.52 24.83 40.52Z" fill="black"/>
<path fill-rule="evenodd" clip-rule="evenodd" d="M37.353 7.24598C38.075 7.41798 36.785 9.05398 36.923 9.19198C37.27 9.36598 37.338 8.99398 37.684 8.29798C37.964 8.01798 37.424 8.40498 38.498 7.31498C38.671 7.31498 39.19 6.94798 39.454 7.21598C39.454 8.08398 37.544 9.90898 37.544 9.90898C37.195 10.258 36.848 10.779 36.848 11.125C36.674 11.646 36.848 11.996 36.499 12.17C35.978 11.996 36.499 11.821 36.327 11.3C36.327 10.777 35.282 10.685 35.282 10.43C35.282 9.90898 35.457 9.04098 35.803 8.69298C36.327 8.34598 37.007 7.24598 37.353 7.24598Z" fill="black"/>
<path fill-rule="evenodd" clip-rule="evenodd" d="M24.332 16.896C24.332 17.493 24.873 17.67 25.374 17.418C25.583 17.271 26.116 16.91 26.549 17.258C26.665 17.44 25.899 18.286 26.765 18.286C26.94 18.286 27.339 17.95 27.513 18.124C27.688 18.298 27.288 18.807 27.463 18.981C27.5 19.018 28.937 20.023 27.982 20.023C27.626 20.035 27.463 19.502 27.289 19.331C26.94 18.981 26.419 18.981 26.247 18.981C25.724 18.807 26.073 18.635 25.549 18.635C24.856 18.635 24.333 18.807 23.814 18.807C23.117 18.635 23.291 18.635 22.942 18.461C22.77 18.461 21.551 18.461 21.205 18.635C20.858 18.635 20.509 18.807 19.99 18.981C19.641 19.331 19.467 19.331 19.467 19.155C19.467 18.806 19.642 18.634 19.99 18.285C20.162 17.938 20.162 17.59 20.334 17.417C21.568 17.417 21.644 16.593 22.295 16.546C22.641 16.546 22.596 17.068 22.77 17.068C23.066 17.046 24.332 15.625 24.332 16.896Z" fill="black"/>
<path fill-rule="evenodd" clip-rule="evenodd" d="M21.725 23.326C21.725 23.5 23.813 25.242 23.464 25.416C23.116 25.416 21.899 24.546 21.55 24.893C21.204 25.765 21.899 26.633 21.725 26.633C21.032 26.286 20.508 25.415 20.333 24.37C20.333 24.021 20.161 23.5 20.161 23.153C20.161 22.978 19.989 22.63 20.161 22.63C20.161 22.457 20.333 22.457 20.333 22.457C20.912 23.03 20.682 23.295 20.682 22.109C20.857 21.935 21.203 21.935 21.203 21.935C21.549 21.935 21.377 22.457 21.549 22.978C21.55 23.154 21.725 23.154 21.725 23.326Z" fill="black"/>
<path fill-rule="evenodd" clip-rule="evenodd" d="M46.2329 20.023C46.2329 20.197 45.5399 20.023 45.3649 20.023C45.0159 20.023 45.016 20.373 44.841 20.373C44.667 20.373 44.4949 20.547 45.0159 21.243C45.1909 21.59 46.4069 22.98 46.2329 23.155C46.0589 23.327 45.5399 22.98 44.841 22.98C44.32 22.806 43.7989 22.459 43.6249 22.806C43.6249 22.98 44.3199 24.023 45.1909 24.893C45.8839 25.589 46.1069 27.223 45.9329 27.223C45.7579 27.398 44.1459 25.761 43.6249 26.631C43.4509 26.805 44.5769 27.777 44.3099 30.027C43.7179 30.015 43.7079 28.845 43.5439 28.892C43.3869 29.433 44.1189 30.749 44.2039 32.136C44.3779 32.656 44.8409 33.411 44.6669 33.585C44.3199 33.757 43.2769 32.54 43.1039 32.888C42.7569 33.236 43.4509 35.322 43.1039 35.148C42.9299 35.148 42.4089 34.453 42.2339 34.453C41.8879 34.279 42.5839 37.406 42.2339 37.06C41.7159 36.539 41.0179 36.539 40.4969 36.365C40.3219 36.365 41.8879 39.668 41.716 39.668C41.367 39.318 40.8439 38.275 40.3219 37.582C40.3219 37.406 40.3219 37.93 40.1509 37.756C39.6269 37.235 40.6719 38.973 40.6719 40.709C40.6719 41.232 40.4979 39.668 40.1509 40.189C39.4549 41.058 39.2799 42.97 39.1059 44.185C38.9339 45.054 38.7589 40.708 38.2359 41.232C37.7169 41.752 37.8899 44.533 37.1939 45.925C36.8469 46.618 37.3679 43.837 36.8469 44.185C36.4979 44.533 36.8469 46.099 36.3259 46.966C35.8029 47.486 36.1519 44.882 35.6309 45.228C35.2819 45.402 35.1099 45.749 34.9349 46.271C34.5859 46.619 34.4119 47.314 34.2369 47.835C34.0649 48.011 33.7179 46.618 33.5439 46.794C33.3699 47.142 33.5439 49.054 33.5439 49.228C33.1959 49.398 33.1959 48.878 32.8489 48.878C32.6769 48.878 32.8489 47.485 32.6769 47.314C32.3279 47.142 32.6769 45.402 32.3279 45.054C32.1539 44.882 33.0209 44.185 32.6769 44.185C32.6769 44.011 33.3699 45.054 33.8929 44.185C34.0649 44.011 34.2379 45.749 34.2379 45.228C34.4119 44.708 34.7609 43.662 34.9359 42.794C34.9359 42.62 35.6319 44.185 35.6319 44.011C35.6319 43.661 36.4989 43.837 36.3269 43.316C36.3269 42.795 37.1949 41.925 36.4989 41.925C36.3269 41.925 37.3689 42.446 37.3689 41.925C37.195 41.751 37.5439 41.405 37.5439 40.884C37.0489 40.206 36.4769 39.71 35.9789 38.275C35.6319 38.451 35.1109 38.798 35.1109 38.972C35.0269 40.001 34.7639 40.531 33.7199 41.232C33.5459 41.406 33.0229 38.972 32.6779 39.146C32.3289 39.318 32.8209 40.97 32.4709 41.492C32.2989 41.668 32.1699 40.51 31.9299 40.592C30.9149 41.137 30.3629 43.362 30.2419 42.795C30.2289 42.193 29.6909 44.106 29.3719 43.838C29.3719 43.838 29.3719 42.447 29.8949 40.885C29.8949 40.535 30.2419 40.364 30.2419 40.014C30.5889 38.973 30.4139 37.756 30.7629 37.061C30.9379 36.713 31.2859 39.842 31.4609 39.493C31.6329 39.147 31.6329 38.452 31.6329 38.102C31.9789 37.407 31.4609 36.713 31.6329 36.19C31.8069 35.67 32.3279 38.452 32.5029 37.93C32.5029 37.756 32.6769 37.407 32.6769 37.061C32.3279 36.366 31.8069 35.67 31.9789 35.323C32.3279 34.975 33.0209 36.714 33.1959 36.366C33.3699 36.02 33.0219 35.671 33.1959 35.323C33.3699 34.975 33.5439 35.323 33.7179 34.975C33.8919 34.454 34.4109 36.366 34.5859 35.844C34.9349 35.149 33.3699 33.586 33.5439 33.063C33.7179 32.542 33.5439 31.846 33.7179 31.5C34.0649 30.979 34.2369 31.846 34.5859 31.326C34.7599 30.978 37.0199 34.627 37.3679 34.279C37.3679 33.931 35.9769 32.367 35.4559 31.5C35.2809 31.15 35.4559 30.979 35.6299 30.979C35.8019 30.629 35.8019 30.284 35.9769 29.934C36.1509 29.586 35.2289 28.473 35.4559 28.022C35.6299 27.501 36.6719 28.371 36.8469 28.022C37.9579 25.8 40.6709 36.163 40.6709 24.373C40.4969 24.373 41.0179 24.373 41.1919 24.198C41.3559 23.872 39.4609 20.906 39.4539 20.896C39.2799 20.549 38.5839 19.417 38.9329 19.243C40.7409 19.994 41.4469 20.547 39.7729 18.358C39.4999 18.001 38.4599 17.36 38.7959 16.798C40.9269 16.521 38.5849 15.889 38.5849 15.509C38.6479 15.452 39.8459 13.832 40.7329 13.383C41.4579 13.017 41.8879 13.794 42.0419 13.845C42.3189 13.985 43.0199 15.945 43.1049 16.03C43.2769 16.03 44.1469 16.551 44.3209 16.725C44.3199 16.896 46.2329 19.852 46.2329 20.023Z" fill="black"/>
<path fill-rule="evenodd" clip-rule="evenodd" d="M43.451 11.996C43.451 11.996 43.974 11.996 43.974 12.17C43.799 12.517 43.277 12.517 43.104 12.865C43.104 13.037 43.104 13.212 42.93 13.386C42.234 14.253 41.192 14.602 40.844 14.602C40.497 14.253 42.189 13.732 42.364 13.386C42.585 12.915 42.41 12.701 42.41 11.995C42.41 11.82 42.931 11.646 42.759 11.474H42.585C42.585 11.3 42.759 11.3 42.759 11.3C42.759 11.125 42.585 11.125 42.585 11.125C42.585 10.953 42.585 10.953 42.585 10.779C42.585 10.779 42.931 10.605 42.931 10.258C42.931 10.258 42.41 10.605 42.41 10.43C42.235 10.083 42.235 9.909 42.235 9.737C42.41 9.562 42.758 9.213 42.758 9.041C42.758 9.041 42.93 9.041 42.584 9.041C42.409 9.041 42.409 9.041 42.234 9.041C42.06 9.041 41.715 9.213 41.715 9.213C42.305 6.246 41.968 7.923 40.321 7.825C40.2 7.531 40.36 7.005 40.457 6.789C41.456 4.57 39.206 7.791 39.656 5.767C39.656 5.595 39.656 5.246 39.482 5.246C39.482 5.246 39.135 5.072 38.961 5.419C37.06 7.325 38.36 4.839 36.312 6.888C35.965 7.06 35.976 6.596 35.63 6.77C35.283 6.944 34.645 7.941 34.47 8.114C33.945 9.133 33.718 10.258 33.718 10.258C33.021 9.042 32.952 7.407 33.649 6.016C34.192 5.899 34.621 6.318 34.795 6.146C35.144 5.622 35.281 4.521 35.63 4.174C35.802 4 35.878 4.986 36.225 4.812C36.61 4.812 36.743 3.759 37.193 3.305C37.193 3.13 37.542 2.958 37.542 3.13C37.589 3.177 37.68 4.115 38.125 3.562C38.366 3.294 38.409 2.958 38.583 2.784C38.932 2.784 38.869 3.357 39.215 3.529C39.564 3.529 40.055 2.959 40.149 2.958C40.495 2.958 40.568 3.224 40.67 3.305C40.852 3.409 40.866 3.372 41.017 3.305C41.038 3.352 41.346 3.199 41.366 3.305C41.366 3.682 41.53 2.985 42.267 3.324C42.441 3.324 42.494 3.826 42.668 4.001L43.103 3.827C43.103 4.175 43.027 4.286 42.853 4.633C42.621 5.846 43.185 4.599 43.115 5.275C43.173 5.526 41.891 5.739 43.624 5.739C43.973 5.567 43.798 6.088 43.798 6.262C43.798 6.437 43.276 6.612 43.103 6.955C42.929 7.132 43.251 7.1 43.423 7.274C43.423 7.448 43.798 7.304 43.972 7.653C43.972 7.827 43.449 8.348 43.449 8.348C43.449 8.52 43.797 8.52 43.972 8.52C43.972 8.694 43.797 9.042 43.797 9.042C43.797 9.214 43.623 9.214 43.623 9.388C43.623 9.388 43.102 9.738 43.102 9.909C43.102 10.083 43.449 10.083 43.449 10.258C43.449 10.43 43.623 10.605 43.623 10.779C43.623 10.953 43.277 11.3 43.277 11.3C43.277 11.474 43.799 11.125 43.799 11.3V11.474C43.799 11.646 43.974 11.821 43.799 11.821C43.625 11.996 43.277 11.821 43.451 11.996Z" fill="black"/>
<path fill-rule="evenodd" clip-rule="evenodd" d="M23.185 3.82501C23.308 3.89401 22.855 4.37701 23.551 4.55001C23.82 4.68201 24.963 3.86101 25.042 3.94101C25.389 3.94101 24.925 4.68201 25.273 4.85401C25.448 4.85401 26.237 4.28901 26.59 4.34701C27.308 4.31701 26.433 5.19801 26.851 5.33901C27.358 5.33901 28.945 4.44201 29.213 4.47101C29.582 4.62701 29.238 5.45401 29.796 5.75001C30.108 5.89601 30.936 5.04001 31.11 5.21701C31.574 5.37501 31.121 6.12101 31.47 6.47001C31.587 6.58701 32.456 6.92501 31.805 7.65101C30.24 6.86201 31.062 6.52501 28.153 6.25901C27.979 6.25901 27.634 6.08501 26.762 6.25901C26.069 6.43401 26.243 5.38901 25.545 5.56401C25.027 5.56401 24.329 5.91101 23.81 6.08501C23.287 6.43401 23.461 5.38901 22.938 5.56401C22.766 5.73601 22.245 5.91101 22.071 6.43401C21.722 6.78101 21.722 7.30201 21.375 7.47601C21.028 7.82501 20.679 7.65101 20.679 7.65101C20.26 6.57201 21.46 6.49401 21.721 6.08501C22.042 5.12001 20.243 5.07001 19.811 5.21701C18.77 5.47301 17.071 6.09001 16.013 6.25201C15.194 6.25201 12.516 7.46801 12.683 7.30201C12.683 7.13001 12.857 6.26001 13.206 6.08501C13.381 5.91001 13.727 6.60901 14.072 6.25901C14.768 5.73601 15.035 5.16301 15.463 5.04001C15.695 5.05601 15.463 5.73501 15.986 5.38901C16.334 5.38901 16.505 4.69601 16.854 4.69601C17.203 4.69601 16.854 5.56401 17.203 5.38901C17.896 5.21701 18.419 4.34701 18.94 4.34701C19.461 4.34701 18.731 4.82401 19.251 4.82401C19.581 4.84501 20.772 3.82401 21.317 3.82401C21.672 3.83801 21.287 4.37501 21.808 4.37501C22.857 4.20401 22.673 3.77801 23.185 3.82501Z" fill="black"/>
<path fill-rule="evenodd" clip-rule="evenodd" d="M5.03897 1.565C5.21397 1.216 5.67796 2.462 6.02396 2.115C6.37196 1.766 6.08297 1.044 6.42997 0.523C6.77597 0.349 7.12496 1.189 7.47296 1.189C7.81996 1.189 7.44396 0.203 7.82196 0C8.72596 0 8.54397 1.023 9.06597 1.103C9.70397 1.073 9.90597 0.175 10.255 0.696C10.915 1.029 11.993 3.472 11.993 4.347C12.166 4.696 12.166 5.389 11.819 6.085C11.645 6.434 12.34 7.13 11.993 7.476C11.819 7.65 11.47 7.13 11.297 7.302C10.818 8.601 10.907 8.043 10.427 7.651C10.08 7.825 10.159 8.736 9.90596 8.865C9.48596 9.083 9.51496 8.584 9.21096 8.693C9.03796 8.865 8.98096 9.23 8.71796 9.736C8.53096 9.917 7.74197 9.344 7.47197 9.562C7.12497 9.736 7.82197 10.257 7.47197 10.257C6.95097 10.429 6.25597 10.083 6.08297 10.257C5.73497 10.257 6.95097 10.953 6.77597 10.953C6.08297 10.953 5.73497 10.779 5.03897 10.43C4.51897 10.083 4.05397 9.505 3.82297 8.865C3.64797 8.693 4.46596 8.883 4.37996 8.504C3.68496 7.811 3.12797 6.491 3.35997 5.767C3.62097 5.42 4.10996 6.615 4.43196 6.318C4.43196 5.672 3.68097 3.62 3.82297 3.479C3.99797 3.13 4.34496 3.653 4.51896 3.479C4.51896 3.13 4.34496 2.784 4.51896 2.609C4.69196 2.262 4.86397 3.305 5.03897 2.958C5.21397 2.608 4.86397 1.565 5.03897 1.565Z" fill="black"/>
<path fill-rule="evenodd" clip-rule="evenodd" d="M9.90596 22.979V22.631C10.08 22.458 10.427 22.458 10.601 22.458C10.775 22.458 10.789 22.379 10.601 22.285C10.413 22.191 10.093 22.191 9.90596 22.285C9.71796 22.379 9.81696 22.389 9.73296 22.458C9.60196 22.366 9.55896 22.285 9.55896 22.285C9.62196 21.947 9.76996 21.614 10.261 21.577C10.751 21.541 10.949 21.936 10.949 21.936C10.949 22.11 10.949 22.285 10.949 22.458C10.949 22.631 11.47 22.285 11.47 22.458C11.297 22.458 11.297 22.458 11.122 22.631C10.949 22.805 10.775 22.979 10.775 22.979C10.427 23.154 10.255 23.326 9.90596 22.979Z" fill="black"/>
<path fill-rule="evenodd" clip-rule="evenodd" d="M7.47195 20.894C7.47195 20.894 7.12495 20.373 6.95095 19.852C6.77595 19.677 6.95095 18.635 6.95095 18.461C7.16995 18.004 7.58495 19.124 8.04995 19.028C8.29395 18.978 8.26295 17.446 8.74995 17.722C9.30595 18.858 9.87395 17.853 10.3559 17.331C10.7029 17.331 10.3989 18.287 10.7479 18.114C10.9199 18.114 11.9879 17.208 12.1199 17.597C12.2519 17.986 12.2289 18.737 12.8609 18.114C13.0349 17.94 13.2099 18.114 13.2099 18.114C13.3849 18.635 13.0349 19.503 12.8609 19.677C12.8609 19.677 12.6869 19.331 12.3399 19.156C11.8189 18.807 11.1229 18.807 11.1229 18.982C10.7759 19.156 10.6019 19.156 10.0809 19.332C9.90595 19.331 7.82195 21.242 7.47195 20.894Z" fill="black"/>
<path fill-rule="evenodd" clip-rule="evenodd" d="M5.91 12.378C6.875 13.683 6.04 14.897 5.736 15.506C5.736 15.678 5.562 15.852 5.562 16.027C5.562 16.166 5.888 17.98 5.562 18.634C5.388 18.806 5.215 18.634 4.865 18.634C4.693 18.634 4.52 18.806 4.52 18.98C4.346 19.33 3.999 18.98 3.649 19.33C3.271 20.09 2.985 21.007 2.607 21.763C2.607 22.235 1.835 23.826 1.565 24.37C1.565 24.542 0.868 25.065 0.868 25.935C0.868 27.551 1.39 24.789 1.39 27.67C1.39 27.674 1.189 29.641 1.128 29.756C0.954 29.756 0.867001 28.192 0.867001 27.497C0.867001 27.325 1.042 27.15 1.042 26.976C1.042 26.627 0.347 27.324 0.347 26.976C0.347 26.453 0 26.453 0 25.934C0.056 25.653 1.768 23.406 2.085 22.456C2.258 22.283 2.085 21.762 2.258 21.587C2.779 20.371 3.127 19.5 3.301 18.979C3.474 18.633 2.952 17.937 3.127 17.416C3.647 16.2 4.344 15.677 5.038 14.634C5.561 13.769 5.561 12.378 5.91 12.378Z" fill="black"/>
<path fill-rule="evenodd" clip-rule="evenodd" d="M30.242 24.542C30.474 24.109 29.75 23.297 30.242 22.979C30.472 22.689 30.858 23.123 31.382 23.123C31.655 22.791 31.403 22.4 31.634 22.11C32.069 21.646 32.329 22.11 32.504 21.764C32.505 20.486 31.546 21.192 31.113 20.198C31.818 17.432 30.093 17.788 29.547 17.244C29.493 16.445 29.013 15.389 29.373 14.94C29.787 15.027 29.547 15.679 30.071 15.853C30.568 16.104 32.431 15.739 32.59 16.055C32.764 16.229 31.894 17.765 32.331 17.765C32.505 17.765 33.144 17.562 33.316 17.736C33.316 18.346 32.735 19.345 32.735 19.531C32.735 19.706 33.375 19.778 33.375 19.952C33.375 20.385 33.058 20.741 33.199 20.965C33.354 21.21 34.001 21.043 34.001 21.239C34.001 22.097 33.547 21.778 33.547 22.63C33.547 23.112 32.104 21.818 32.997 23.617C32.998 25.142 31.853 23.658 31.057 24.339C31.057 24.511 31.114 25.935 31.114 26.107C30.979 26.375 29.199 26.297 29.199 26.628C29.027 26.802 29.199 27.15 29.199 27.15C27.639 26.802 26.941 26.281 26.766 25.757C26.592 25.413 28.247 26.079 28.42 25.902C28.592 25.73 28.157 25.1 28.507 24.598C29.078 24.027 29.865 24.918 30.242 24.542Z" fill="black"/>
<path fill-rule="evenodd" clip-rule="evenodd" d="M18.014 39.453C18.681 38.896 19.266 38.799 19.439 38.789C19.622 38.955 18.435 39.537 17.778 40.268L18.014 39.453ZM8.73999 40.367C8.73999 40.367 9.07899 40.176 9.26099 40.34C9.62599 40.67 9.82699 41.18 10.184 41.336C10.72 41.658 10.868 41.125 10.693 41.135C10.693 41.135 10.684 40.963 10.502 40.799C10.33 40.807 9.63399 40.844 9.61599 40.496C9.04399 39.48 10.752 40.088 11.336 40.057C12.201 40.012 13.062 39.793 13.062 39.793C13.245 39.959 13.443 40.471 13.281 40.654C12.942 40.845 12.228 40.533 12.238 40.707C12.076 40.891 12.256 41.053 12.265 41.227C12.623 41.383 14.515 40.936 14.524 41.11C14.524 41.11 17.336 39.839 18.014 39.454L17.778 40.268C17.787 40.442 15.749 41.221 15.757 41.395C15.583 41.405 15.766 41.569 15.766 41.569C15.6 41.753 15.767 42.081 15.256 42.28C14.744 42.481 13.735 42.719 13.215 42.747C12.877 42.936 10.966 43.036 9.88999 42.395C9.53399 42.241 9.16899 41.913 8.80299 41.582C8.62099 41.418 8.60299 41.072 8.59399 40.898C8.60999 40.6 8.66799 40.303 8.73999 40.367Z" fill="black"/>
<path fill-rule="evenodd" clip-rule="evenodd" d="M7.99395 37.059C7.82195 36.711 7.64695 36.364 7.82195 36.188C7.85195 36.174 9.62295 36.018 9.73295 36.018C10.0799 36.018 10.0799 35.668 9.73295 35.497C9.38395 34.974 9.21095 35.147 8.34195 35.497C8.16695 35.669 7.47195 35.497 7.29995 35.321C6.77695 34.801 6.77695 33.93 6.95095 33.585C7.12495 33.411 7.64695 33.235 8.34195 33.062C8.68895 33.062 9.03795 33.062 9.03795 32.888C9.21095 32.714 9.03795 32.54 8.86295 32.54C6.94995 33.411 6.25595 32.714 6.77595 31.845C7.12495 31.499 7.82195 31.325 8.68895 31.325C9.90595 31.149 10.4269 31.149 11.4699 31.149C12.1659 31.325 13.5559 31.325 14.0759 31.672C14.2499 31.844 14.2499 32.018 14.2499 32.018C14.4249 32.194 11.6439 32.194 10.4269 32.366C9.38395 32.366 9.73295 32.714 9.73295 32.887C9.73295 32.887 10.7749 33.061 10.7749 33.41C10.7749 33.584 10.0799 33.41 9.90595 33.756C9.73295 33.93 10.0799 34.451 10.2549 34.801C10.4269 34.801 10.9059 35.192 11.0789 35.365C11.0789 35.539 11.2529 35.715 11.4259 35.715C11.6009 36.063 11.6009 36.236 11.7749 36.408C12.1219 36.756 12.6429 36.756 12.8169 36.756C12.9909 36.756 13.6859 36.932 13.8599 36.756C14.0309 36.582 13.8369 35.852 13.6619 35.68C13.6619 35.504 13.6619 35.33 13.6619 35.33C13.4879 35.158 12.7929 35.33 12.4439 35.33C11.7509 34.982 11.2519 34.846 11.2519 34.496C11.2519 33.453 13.1659 32.932 13.3399 32.932C14.5549 32.932 16.1189 33.803 15.0769 35.02C14.9029 35.02 15.0769 35.192 15.0769 35.192C15.0769 35.366 14.5549 36.409 14.9029 36.756C15.2479 36.756 15.7719 36.582 16.2939 36.756C16.4649 36.932 16.6389 37.104 16.9879 37.104C17.5099 37.104 17.6839 36.583 18.2049 36.583C18.8999 36.409 19.4209 36.583 19.4209 36.583C19.2469 36.757 18.8999 37.104 18.3789 37.278C18.2049 37.278 18.0299 37.626 17.8559 37.799C17.5099 37.973 16.6389 37.799 16.1189 37.973C15.9459 38.149 15.7709 38.493 15.5969 38.493C15.0769 38.493 14.7279 38.319 14.3809 38.319C14.2059 38.319 14.2059 38.319 14.2059 38.319C13.5879 38.44 13.0839 38.489 12.4679 38.493C12.2949 38.493 11.9489 38.493 11.7749 38.493C11.4819 38.788 10.9399 38.104 10.2549 38.798C10.0799 38.972 9.90595 39.146 9.38395 38.972C9.03795 38.972 8.68895 38.972 8.51595 39.146C7.99395 39.667 7.90595 39.121 7.73195 39.121C7.37195 38.035 6.87495 38.211 5.56095 37.406C6.08295 36.886 5.73495 36.539 5.03895 36.886C5.03895 37.06 4.51895 36.538 4.51895 35.843C4.51895 34.802 4.73695 34.749 4.51895 34.626C3.18295 37.274 4.86795 31.841 3.30195 34.105C3.13995 34.339 2.95295 31.673 2.95295 31.5C2.53895 32.385 2.38495 32.586 1.73595 29.238C1.56795 28.369 1.73595 26.805 2.08495 26.456C2.25795 26.284 2.60595 26.11 2.77995 25.589C3.12795 25.068 1.73695 25.761 2.08495 25.068C2.08495 24.416 3.30195 22.838 3.30195 22.807C3.30195 22.633 2.78795 22.628 2.96095 22.454C2.96095 22.105 3.47495 21.938 3.64795 21.591C3.82295 21.244 3.82295 20.896 3.82295 20.721C5.02695 19.056 5.58195 19.622 6.25595 19.853C6.60295 20.024 6.77595 20.721 6.60295 21.59C6.42995 21.765 6.25595 22.111 6.08295 22.286C6.08295 22.459 6.60295 22.111 6.60295 22.286C4.37195 24.53 5.24995 24.534 5.99395 23.99C6.33195 23.742 6.15995 23.221 6.37495 23.165C7.08495 22.978 6.60295 24.334 6.54595 24.372C4.75595 26.167 7.12495 29.295 7.12495 22.981C7.12495 22.112 8.34195 21.07 8.34195 21.07C9.03795 20.549 9.55895 20.375 10.0799 20.025C10.4269 19.854 10.4269 19.504 10.6009 19.504C10.9499 19.333 10.9499 19.679 11.1219 19.679C11.6439 19.504 11.9929 19.333 12.1659 19.504C12.3389 19.679 12.3389 20.2 12.5119 20.375C12.6869 20.722 12.8609 20.722 13.0349 21.07C13.0349 21.07 13.0349 21.417 12.8609 21.766C12.4909 22.13 12.1909 22.437 11.8189 22.807C11.7599 22.807 11.0329 20.97 10.6299 20.97C9.77295 20.904 8.99595 21.854 8.93495 22.326C8.83495 23.097 9.96395 23.908 10.9499 24.373C10.9499 24.894 9.73395 25.762 9.03895 26.806C8.34295 27.674 7.99495 28.717 7.99495 28.717C7.99495 28.893 7.82295 29.586 7.29995 30.283C6.95095 30.978 6.60395 31.15 6.43095 31.674C6.25695 32.195 6.08395 33.063 6.25695 33.586C6.25695 33.758 6.60395 33.758 6.60395 33.932C6.60395 34.453 6.77695 34.803 6.77695 35.323C6.95195 35.844 7.12595 36.54 7.29995 37.061L8.11195 39.065C8.28495 39.065 7.70595 38.063 8.68995 37.756C9.21195 37.756 9.90695 37.93 9.90695 37.756C9.90595 37.404 7.82195 37.059 7.99395 37.059Z" fill="black"/>
<path fill-rule="evenodd" clip-rule="evenodd" d="M22.42 19.502C22.42 19.502 24.855 19.331 25.03 19.331C25.374 19.331 26.246 19.331 26.072 20.023C26.072 20.373 26.419 20.198 26.591 20.373C26.84 21.076 28.031 21.604 27.463 22.458C27.289 22.631 27.114 22.285 26.765 22.458C26.765 22.458 26.765 22.631 26.591 22.805C26.419 22.805 26.247 22.631 26.072 22.805C26.072 22.805 25.723 23.154 25.548 23.154C25.202 23.326 25.548 22.458 25.548 22.458C25.519 21.669 24.122 21.415 23.638 21.589C22.761 22.029 22.609 23.154 23.638 23.154C23.815 23.145 23.624 23.215 24.083 22.992C24.138 22.966 24.332 23.062 24.332 22.631C24.343 22.135 23.985 22.391 23.985 22.458C23.985 22.458 24.057 22.565 23.985 22.631C23.913 22.697 23.816 22.644 23.811 22.632C23.79 22.573 23.802 22.471 23.714 22.439C23.584 22.391 23.641 22.376 23.464 22.459C23.29 22.459 23.29 22.286 23.29 22.286C23.567 22.008 24.39 21.821 24.681 22.111C24.855 22.286 24.855 22.459 24.855 22.459C24.405 22.459 24.926 22.703 25.03 22.806C25.03 23.26 24.796 23.677 24.332 23.677C23.639 23.677 23.813 23.677 23.464 23.502C23.29 23.677 23.29 23.849 22.941 23.502C22.595 23.502 22.42 23.328 22.42 23.155C22.42 22.98 22.595 22.806 22.42 22.632C22.248 22.632 22.248 22.286 22.248 22.286C22.42 22.111 22.941 21.765 23.116 21.416C23.29 21.244 23.985 21.069 23.985 20.895C24.681 20.895 25.03 21.244 25.201 21.244C25.373 21.416 25.722 21.591 25.897 21.591C26.418 21.766 26.59 21.244 26.418 21.244C26.418 21.07 26.246 21.07 25.897 21.07C25.548 21.07 25.201 20.549 25.03 20.549C23.861 20.07 23.347 20.895 22.248 20.896C21.899 21.07 22.005 21.496 22.068 21.574C22.132 21.653 22.582 21.415 22.584 21.601C22.482 21.816 22.073 22.112 21.898 22.112C21.724 22.112 21.549 21.938 21.377 21.766C21.03 21.591 20.681 21.591 20.507 21.417C20.507 21.245 20.507 21.07 20.507 21.07C20.507 20.549 20.16 20.375 20.681 20.025C21.204 19.502 21.899 19.502 22.42 19.502Z" fill="black"/>
<path d="M57.821 32.568C56.387 38.726 53.376 44.353 48.962 48.646C45.074 52.427 40.852 54.285 35.47 55.91C35.448 55.748 35.17 56.172 35.147 56.01C40.425 54.405 44.649 51.852 48.464 48.139C52.814 43.909 56.095 38.643 57.605 32.662C57.679 32.633 57.751 32.602 57.821 32.568Z" fill="black"/>
<path d="M34.884 52.313C39.436 49.85 41.189 44.153 42.685 39.235C43.29 37.247 43.889 35.28 44.672 33.508C47.193 27.81 51.456 25.418 54.043 23.694C55.177 22.939 56.363 22.242 56.541 21.801L56.625 21.786C56.363 22.437 55.542 23.118 54.299 23.946C51.781 25.624 48.029 28.295 45.594 33.8C44.821 35.546 43.974 37.484 43.378 39.445C41.839 44.504 40.139 49.591 35.325 52.197L34.884 52.313Z" fill="black"/>
</svg>
