<svg width="135" height="40" viewBox="0 0 135 40" fill="none" xmlns="http://www.w3.org/2000/svg">
<g clip-path="url(#clip0)">
<path d="M130 40H5C2.25 40 0 37.75 0 35V5C0 2.25 2.25 0 5 0H130C132.75 0 135 2.25 135 5V35C135 37.75 132.75 40 130 40Z" fill="black"/>
<path d="M130 0.8C132.316 0.8 134.2 2.684 134.2 5V35C134.2 37.316 132.316 39.2 130 39.2H5C2.684 39.2 0.8 37.316 0.8 35V5C0.8 2.684 2.684 0.8 5 0.8H130ZM130 0H5C2.25 0 0 2.25 0 5V35C0 37.75 2.25 40 5 40H130C132.75 40 135 37.75 135 35V5C135 2.25 132.75 0 130 0Z" fill="#A6A6A6"/>
<path d="M68.136 21.7509C65.784 21.7509 63.867 23.5399 63.867 26.0039C63.867 28.4529 65.784 30.2569 68.136 30.2569C70.489 30.2569 72.406 28.4529 72.406 26.0039C72.405 23.5399 70.488 21.7509 68.136 21.7509ZM68.136 28.5829C66.847 28.5829 65.736 27.5199 65.736 26.0049C65.736 24.4739 66.848 23.4269 68.136 23.4269C69.425 23.4269 70.536 24.4739 70.536 26.0049C70.536 27.5189 69.425 28.5829 68.136 28.5829ZM58.822 21.7509C56.47 21.7509 54.553 23.5399 54.553 26.0039C54.553 28.4529 56.47 30.2569 58.822 30.2569C61.175 30.2569 63.092 28.4529 63.092 26.0039C63.092 23.5399 61.175 21.7509 58.822 21.7509ZM58.822 28.5829C57.533 28.5829 56.422 27.5199 56.422 26.0049C56.422 24.4739 57.534 23.4269 58.822 23.4269C60.111 23.4269 61.222 24.4739 61.222 26.0049C61.223 27.5189 60.111 28.5829 58.822 28.5829ZM47.744 23.0569V24.8609H52.062C51.933 25.8759 51.595 26.6169 51.079 27.1319C50.451 27.7599 49.468 28.4529 47.744 28.4529C45.086 28.4529 43.008 26.3099 43.008 23.6519C43.008 20.9939 45.086 18.8509 47.744 18.8509C49.178 18.8509 50.225 19.4149 50.998 20.1399L52.271 18.8669C51.191 17.8359 49.758 17.0469 47.744 17.0469C44.103 17.0469 41.042 20.0109 41.042 23.6519C41.042 27.2929 44.103 30.2569 47.744 30.2569C49.709 30.2569 51.192 29.6119 52.351 28.4039C53.543 27.2119 53.914 25.5359 53.914 24.1829C53.914 23.7649 53.882 23.3779 53.817 23.0559H47.744V23.0569ZM93.052 24.4579C92.698 23.5079 91.618 21.7509 89.411 21.7509C87.22 21.7509 85.399 23.4749 85.399 26.0039C85.399 28.3879 87.204 30.2569 89.62 30.2569C91.569 30.2569 92.697 29.0649 93.165 28.3719L91.715 27.4049C91.232 28.1139 90.571 28.5809 89.62 28.5809C88.67 28.5809 87.993 28.1459 87.558 27.2919L93.245 24.9399L93.052 24.4579ZM87.252 25.8759C87.204 24.2319 88.525 23.3949 89.476 23.3949C90.217 23.3949 90.845 23.7659 91.055 24.2969L87.252 25.8759ZM82.629 29.9999H84.497V17.4989H82.629V29.9999ZM79.567 22.7019H79.503C79.084 22.2019 78.278 21.7509 77.264 21.7509C75.137 21.7509 73.188 23.6199 73.188 26.0209C73.188 28.4049 75.137 30.2579 77.264 30.2579C78.279 30.2579 79.084 29.8069 79.503 29.2919H79.567V29.9039C79.567 31.5309 78.697 32.4009 77.296 32.4009C76.152 32.4009 75.443 31.5799 75.153 30.8869L73.526 31.5639C73.993 32.6909 75.233 34.0769 77.296 34.0769C79.487 34.0769 81.34 32.7879 81.34 29.6459V22.0099H79.568V22.7019H79.567ZM77.425 28.5829C76.136 28.5829 75.057 27.5029 75.057 26.0209C75.057 24.5219 76.136 23.4269 77.425 23.4269C78.697 23.4269 79.696 24.5219 79.696 26.0209C79.696 27.5029 78.697 28.5829 77.425 28.5829ZM101.806 17.4989H97.335V29.9999H99.2V25.2639H101.805C103.873 25.2639 105.907 23.7669 105.907 21.3819C105.907 18.9969 103.874 17.4989 101.806 17.4989ZM101.854 23.5239H99.2V19.2389H101.854C103.249 19.2389 104.041 20.3939 104.041 21.3819C104.041 22.3499 103.249 23.5239 101.854 23.5239ZM113.386 21.7289C112.035 21.7289 110.636 22.3239 110.057 23.6429L111.713 24.3339C112.067 23.6429 112.727 23.4169 113.418 23.4169C114.383 23.4169 115.364 23.9959 115.38 25.0249V25.1539C115.042 24.9609 114.318 24.6719 113.434 24.6719C111.649 24.6719 109.831 25.6529 109.831 27.4859C109.831 29.1589 111.295 30.2359 112.935 30.2359C114.189 30.2359 114.881 29.6729 115.315 29.0129H115.379V29.9779H117.181V25.1849C117.182 22.9669 115.524 21.7289 113.386 21.7289ZM113.16 28.5799C112.55 28.5799 111.697 28.2739 111.697 27.5179C111.697 26.5529 112.759 26.1829 113.676 26.1829C114.495 26.1829 114.882 26.3599 115.38 26.6009C115.235 27.7599 114.238 28.5799 113.16 28.5799ZM123.743 22.0019L121.604 27.4219H121.54L119.32 22.0019H117.31L120.639 29.5769L118.741 33.7909H120.687L125.818 22.0019H123.743ZM106.937 29.9999H108.802V17.4989H106.937V29.9999Z" fill="white"/>
<path d="M10.436 7.53833C10.145 7.84633 9.97299 8.32433 9.97299 8.94333V31.0593C9.97299 31.6793 10.145 32.1563 10.436 32.4643L10.51 32.5363L22.899 20.1473V20.0013V19.8553L10.509 7.46533L10.436 7.53833Z" fill="url(#paint0_linear)"/>
<path d="M27.028 24.2781L22.899 20.1471V20.0011V19.8551L27.029 15.7251L27.122 15.7781L32.015 18.5581C33.412 19.3521 33.412 20.6511 32.015 21.4461L27.122 24.2261L27.028 24.2781Z" fill="url(#paint1_linear)"/>
<path d="M27.122 24.225L22.898 20.001L10.436 32.464C10.896 32.952 11.657 33.012 12.514 32.526L27.122 24.225Z" fill="url(#paint2_linear)"/>
<path d="M27.122 15.7772L12.514 7.47719C11.657 6.99019 10.896 7.05119 10.436 7.53919L22.899 20.0022L27.122 15.7772Z" fill="url(#paint3_linear)"/>
<path opacity="0.2" d="M27.029 24.1323L12.514 32.3803C11.702 32.8413 10.976 32.8103 10.51 32.3913L10.436 32.4653L10.51 32.5373C10.976 32.9573 11.702 32.9883 12.514 32.5263L27.122 24.2263L27.029 24.1323Z" fill="black"/>
<path opacity="0.12" d="M10.436 32.3181C10.145 32.0101 9.97299 31.5321 9.97299 30.9131V31.0591C9.97299 31.6781 10.145 32.1561 10.436 32.4641L10.51 32.3901L10.436 32.3181Z" fill="black"/>
<path opacity="0.12" d="M32.015 21.299L27.029 24.132L27.122 24.225L32.015 21.445C32.714 21.048 33.063 20.525 33.063 20.002C33.004 20.475 32.648 20.938 32.015 21.299Z" fill="black"/>
<path opacity="0.25" d="M12.514 7.62312L32.015 18.7031C32.649 19.0631 33.004 19.5271 33.063 20.0011C33.063 19.4781 32.714 18.9541 32.015 18.5571L12.514 7.47712C11.116 6.68312 9.97299 7.34312 9.97299 8.94312V9.08912C9.97299 7.48912 11.116 6.82912 12.514 7.62312Z" fill="white"/>
<path d="M42.114 14.273H41.377V12.262H41.964C42.484 11.815 42.737 11.05 42.727 9.966V7H46.733V12.263H47.403V14.274H46.666V13H42.115V14.273H42.114ZM43.497 9.967C43.509 10.916 43.318 11.682 42.928 12.263H45.961V7.737H43.497V9.967Z" fill="white" stroke="white" stroke-width="0.2" stroke-miterlimit="10"/>
<path d="M53.415 12.2252C52.825 12.8312 52.092 13.1342 51.215 13.1342C50.338 13.1342 49.605 12.8312 49.016 12.2252C48.426 11.6192 48.132 10.8772 48.132 10.0002C48.132 9.12323 48.426 8.38123 49.016 7.77523C49.605 7.16923 50.338 6.86523 51.215 6.86523C52.087 6.86523 52.819 7.17023 53.411 7.77923C54.003 8.38823 54.299 9.12823 54.299 10.0002C54.298 10.8772 54.003 11.6192 53.415 12.2252ZM49.584 11.7222C50.028 12.1722 50.571 12.3962 51.214 12.3962C51.857 12.3962 52.401 12.1712 52.844 11.7222C53.288 11.2722 53.511 10.6982 53.511 10.0002C53.511 9.30223 53.288 8.72823 52.844 8.27823C52.401 7.82823 51.857 7.60423 51.214 7.60423C50.571 7.60423 50.028 7.82923 49.584 8.27823C49.141 8.72823 48.918 9.30223 48.918 10.0002C48.918 10.6982 49.141 11.2722 49.584 11.7222Z" fill="white" stroke="white" stroke-width="0.2" stroke-miterlimit="10"/>
<path d="M58.179 13.1342C57.296 13.1342 56.556 12.8352 55.958 12.2382C55.36 11.6402 55.062 10.8942 55.062 10.0002C55.062 9.10621 55.36 8.36021 55.958 7.76321C56.556 7.16521 57.296 6.86621 58.179 6.86621C59.083 6.86621 59.819 7.19321 60.383 7.84621L59.846 8.36621C59.439 7.85721 58.882 7.60321 58.179 7.60321C57.525 7.60321 56.973 7.82421 56.524 8.26521C56.074 8.70621 55.849 9.28521 55.849 9.99921C55.849 10.7132 56.074 11.2922 56.524 11.7332C56.973 12.1742 57.525 12.3952 58.179 12.3952C58.9 12.3952 59.514 12.1052 60.023 11.5242L60.559 12.0602C60.285 12.3902 59.942 12.6512 59.528 12.8432C59.115 13.0382 58.665 13.1342 58.179 13.1342Z" fill="white" stroke="white" stroke-width="0.2" stroke-miterlimit="10"/>
<path d="M63.677 13H62.906V7.737H61.23V7H65.353V7.737H63.677V13Z" fill="white" stroke="white" stroke-width="0.2" stroke-miterlimit="10"/>
<path d="M70.646 7L68.375 12.062C68.062 12.777 67.596 13.134 66.976 13.134C66.791 13.134 66.593 13.09 66.38 13L66.581 12.288C66.71 12.361 66.844 12.397 66.983 12.397C67.162 12.397 67.3 12.362 67.398 12.293C67.496 12.224 67.586 12.096 67.67 11.912L67.888 11.434L65.871 7H66.776L68.259 10.444H68.292L69.741 7H70.646Z" fill="white" stroke="white" stroke-width="0.2" stroke-miterlimit="10"/>
<path d="M71.52 13V7H75.861V13H75.09V7.737H72.29V13H71.52Z" fill="white" stroke="white" stroke-width="0.2" stroke-miterlimit="10"/>
<path d="M77.234 13V7H78.005V9.572H81.005V7H81.776V13H81.005V10.293H78.005V13H77.234Z" fill="white" stroke="white" stroke-width="0.2" stroke-miterlimit="10"/>
<path d="M88.058 12.2252C87.468 12.8312 86.735 13.1342 85.858 13.1342C84.981 13.1342 84.248 12.8312 83.659 12.2252C83.069 11.6192 82.775 10.8772 82.775 10.0002C82.775 9.12323 83.069 8.38123 83.659 7.77523C84.248 7.16923 84.981 6.86523 85.858 6.86523C86.73 6.86523 87.462 7.17023 88.054 7.77923C88.646 8.38823 88.942 9.12823 88.942 10.0002C88.941 10.8772 88.646 11.6192 88.058 12.2252ZM84.228 11.7222C84.672 12.1722 85.215 12.3962 85.858 12.3962C86.501 12.3962 87.045 12.1712 87.488 11.7222C87.932 11.2722 88.155 10.6982 88.155 10.0002C88.155 9.30223 87.932 8.72823 87.488 8.27823C87.045 7.82823 86.501 7.60423 85.858 7.60423C85.215 7.60423 84.672 7.82923 84.228 8.27823C83.785 8.72823 83.562 9.30223 83.562 10.0002C83.562 10.6982 83.784 11.2722 84.228 11.7222Z" fill="white" stroke="white" stroke-width="0.2" stroke-miterlimit="10"/>
<path d="M92.094 13V7H94.264C94.734 7 95.14 7.155 95.484 7.465C95.828 7.776 96 8.165 96 8.634C96 8.919 95.926 9.171 95.777 9.388C95.63 9.606 95.432 9.771 95.186 9.883V9.916C95.482 10.017 95.725 10.19 95.915 10.436C96.104 10.682 96.2 10.967 96.2 11.291C96.2 11.783 96.019 12.19 95.659 12.514C95.299 12.838 94.873 13 94.381 13H92.094ZM92.864 9.572H94.263C94.554 9.572 94.787 9.476 94.963 9.283C95.139 9.091 95.227 8.88 95.227 8.651C95.227 8.422 95.142 8.212 94.971 8.023C94.801 7.833 94.576 7.738 94.297 7.738H92.863V9.572H92.864ZM92.864 12.263H94.415C94.711 12.263 94.951 12.159 95.136 11.952C95.321 11.746 95.412 11.519 95.412 11.273C95.412 11.027 95.317 10.803 95.127 10.599C94.938 10.395 94.689 10.293 94.381 10.293H92.864V12.263Z" fill="white" stroke="white" stroke-width="0.2" stroke-miterlimit="10"/>
</g>
<defs>
<linearGradient id="paint0_linear" x1="21.8008" y1="8.70933" x2="5.01879" y2="25.4913" gradientUnits="userSpaceOnUse">
<stop stop-color="#00A0FF"/>
<stop offset="0.0066" stop-color="#00A1FF"/>
<stop offset="0.2601" stop-color="#00BEFF"/>
<stop offset="0.5122" stop-color="#00D2FF"/>
<stop offset="0.7604" stop-color="#00DFFF"/>
<stop offset="1" stop-color="#00E3FF"/>
</linearGradient>
<linearGradient id="paint1_linear" x1="33.8335" y1="20.0011" x2="9.63759" y2="20.0011" gradientUnits="userSpaceOnUse">
<stop stop-color="#FFE000"/>
<stop offset="0.4087" stop-color="#FFBD00"/>
<stop offset="0.7754" stop-color="#FFA500"/>
<stop offset="1" stop-color="#FF9C00"/>
</linearGradient>
<linearGradient id="paint2_linear" x1="24.8281" y1="22.2949" x2="2.0696" y2="45.0534" gradientUnits="userSpaceOnUse">
<stop stop-color="#FF3A44"/>
<stop offset="1" stop-color="#C31162"/>
</linearGradient>
<linearGradient id="paint3_linear" x1="7.2974" y1="0.176989" x2="17.4597" y2="10.3393" gradientUnits="userSpaceOnUse">
<stop stop-color="#32A071"/>
<stop offset="0.0685" stop-color="#2DA771"/>
<stop offset="0.4762" stop-color="#15CF74"/>
<stop offset="0.8009" stop-color="#06E775"/>
<stop offset="1" stop-color="#00F076"/>
</linearGradient>
<clipPath id="clip0">
<rect width="135" height="40" fill="white"/>
</clipPath>
</defs>
</svg>
