<svg width="297" height="254" viewBox="0 0 297 254" fill="none" xmlns="http://www.w3.org/2000/svg">
<path fill-rule="evenodd" clip-rule="evenodd" d="M217.573 59.9741C218.45 62.2811 217.485 64.2197 217.963 66.1934C218.516 68.496 220.967 70.689 222.629 71.8382C223.923 72.7329 224.392 72.768 224.967 74.6189C225.989 77.9259 228.76 79.0618 227.432 81.2417C225.734 84.0267 225.467 82.496 225.059 82.0136C224.721 82.1408 224.695 82.1978 224.344 82.211C223.379 81.2022 222.695 80.3996 222.094 81.8689C221.191 81.8732 219.998 81.5267 219.007 81.0136C217.59 80.2767 216.652 81.2285 216.691 79.3513L216.02 79.6364C215.178 78.7855 215.661 78.7022 215.275 77.9829C213.753 78.3908 214.099 77.4566 213.174 76.325C212.301 75.246 211.867 75.6408 212.003 74.1978C211.262 73.9171 210.701 74.0838 210.069 73.4478C209.959 72.8513 210.157 72.8294 210.218 72.2899C209.648 72.1539 209.376 72.0794 208.819 71.7197C208.819 71.4829 208.815 71.6408 208.859 71.4039L208.995 70.575C208.679 70.5531 208.262 70.5531 207.885 70.4697C207.85 70.0311 207.797 69.6452 207.346 69.1189C206.89 69.132 206.297 69.3601 205.596 68.9171C204.885 68.4697 204.784 67.7724 204.767 67.2636C204.254 67.1057 203.881 67.211 203.447 66.7373C202.828 66.0574 203.276 66.0487 203.561 65.5048C202.166 64.7548 202.232 64.1846 202.473 62.9829C199.298 61.4083 200.763 61.1364 200.539 60.3513L198.724 57.8469L200.587 57.0355L200.215 56.7197C199.697 56.3601 198.026 55.8118 198.167 55.0136C198.329 53.189 200.561 54.6934 201.807 54.5531C200.925 53.5706 199.263 52.6276 198.667 51.7153C200.18 50.4566 203.03 51.3162 203.785 51.3864C204.254 51.4303 204.82 51.6101 205.346 51.5838C204.605 50.6189 202.995 49.2811 202.035 48.7811C201.399 48.4522 197.456 47.0794 199.452 46.268C200.916 45.6715 202.386 46.5311 203.745 47.3557C204.982 48.1057 207.464 49.7417 208.477 49.1627C207.771 47.632 205.473 46.3864 204.201 45.5443C203.535 45.1013 202.578 44.4653 202.039 43.9259C201.337 43.2241 200.767 42.0794 201.855 41.7022C204.359 40.825 208.486 47.6803 210.731 47.0925C210.503 44.6145 203.013 38.6627 205.166 36.3074C207.49 36.6671 209.459 41.1364 210.915 43.2241C213.718 47.2548 215.924 47.5443 217.117 48.5399C214.99 49.6583 215.476 49.5443 215.459 50.7943C214.845 50.7636 214.389 50.6496 214.007 51.4346C214.143 52.2153 214.678 52.211 214.253 53.0092C213.955 53.5618 213.591 53.6276 213.029 54.0267C213.529 54.6934 214.652 54.9215 214.841 55.8645C215.02 56.7767 213.516 57.1232 213.468 57.9697C213.406 59.1583 214.77 58.9829 215.384 59.0706C216.494 59.2285 216.542 58.8031 217.573 59.9741ZM222.73 23.7855C223.085 23.8996 223.287 24.3118 223.568 24.7022C224.471 25.5531 225.541 27.3864 226.69 26.8381C226.809 24.6101 219.165 18.1539 222.151 15.8074C223.888 15.7548 226.204 20.5969 227.401 22.3162C229.138 24.8074 231.058 25.6934 232.764 27.939C231.335 27.689 231.37 28.7636 230.151 28.8338C229.116 28.8908 228.725 27.8732 227.682 29.0136C227.436 30.0794 228.353 30.6671 227.839 31.3908C227.261 32.211 226.291 31.746 225.414 32.0925C224.901 32.4566 225.291 32.3996 225.375 33.1496C225.414 33.5267 225.239 33.8996 225.019 34.2285C223.984 34.9741 223.559 34.325 222.704 34.518C220.375 35.0443 222.353 37.5487 221.739 38.4741C221.296 39.1408 220.375 39.1452 220.901 40.4697C221.261 41.382 222.103 42.0224 222.283 42.9873C222.432 43.8074 221.686 44.0838 221.322 44.9566C220.318 47.3557 222.765 47.0531 223.037 48.9566C222.914 49.939 222.094 49.4346 222.831 50.9697C223.634 52.6364 223.594 53.5443 222.024 54.9259C220.884 55.9303 220.59 55.8952 220.393 54.6408C219.779 54.3645 219.099 54.3118 219.117 53.3206C219.13 52.7329 219.472 52.2329 219.985 51.6934C219.222 51.2241 218.976 51.3689 218.301 51.0925C218.393 50.3732 218.551 50.2943 219.038 49.5531C218.538 49.0224 217.533 48.7022 217.397 47.6759C217.296 46.8952 217.972 46.4741 218.314 45.7592C216.612 44.268 216.332 42.746 218.59 41.8338C216.862 39.6452 214.876 37.2285 218.665 36.6583C217.814 35.4478 216.218 34.1013 216.867 32.9215C217.56 31.6496 218.402 33.0881 220.046 33.1057C220.23 32.7022 220.454 33.211 219.902 32.3645C219.853 32.2943 219.502 31.9083 219.415 31.7987C218.56 30.7329 216.542 28.8206 217.042 27.5224C217.959 26.5004 220.178 27.4873 220.897 28.4917C221.735 28.6671 222.55 29.9522 223.787 30.0969C224.002 29.0618 222.621 27.6189 221.91 26.8645L220.537 25.2153C220.226 25.0969 219.941 24.6846 219.691 24.4259C219.66 24.3688 217.121 21.1188 219.2 20.7899C220.208 20.6276 222.336 23.0574 222.73 23.7855ZM214.547 95.5487C214.626 94.8996 215.393 93.5136 215.722 92.8688C216.064 92.2022 216.744 90.8031 217.266 90.3513C218.073 89.9171 218.542 90.0443 219.231 89.8732C220.989 89.4215 223.581 86.9697 225.112 85.9741C224.884 86.5706 224.638 88.4215 225.682 88.9653C226.168 88.8206 226.677 88.4741 227.085 88.4259C227.037 89.2504 226.418 89.5794 226.054 90.3908C225.901 90.7329 225.87 91.0574 225.708 91.4478C225.028 93.1013 223.778 94.8689 222.384 96.2285C220.537 98.0267 217.016 100.702 214.253 100.834C213.556 100.869 213.889 100.772 213.271 100.601L212.871 100.009C212.889 99.5443 212.731 99.2548 212.779 98.768C212.81 98.4917 212.942 97.8864 213.056 97.5925C213.266 97.0092 214.117 95.9083 214.547 95.5487ZM286.746 40.882C285.729 40.8118 285.435 39.6101 284.264 39.4741C282.861 39.3074 282.168 40.6145 281.405 40.439C280.962 40.7153 280.765 40.6145 280.405 40.5311C280.677 38.9478 285.225 36.4303 287.018 36.8645C288.181 37.1408 288.119 37.0969 289.066 37.6978C289.523 37.6671 289.461 37.7066 290.009 37.825C290.829 38.0004 293.75 37.825 294.649 37.6539C295.369 37.518 295.965 37.2592 296.583 37.132L297 37.7504C296.645 39.268 295.233 39.5487 293.869 40.2592C292.329 41.0662 291.075 42.7241 290.18 41.7592C289.597 41.6101 289.251 41.1978 287.532 41.0925C287.115 41.0662 286.988 41.132 286.746 40.882ZM278.392 43.2066C278.787 42.575 279.212 41.518 279.76 41.1583C280.396 41.2241 280.401 41.2417 280.984 41.6627C281.436 41.9917 281.703 42.2285 281.966 42.746C282.431 42.9171 282.979 43.8074 283.326 44.2592L284.299 45.6057C284.317 45.6452 284.33 45.689 284.348 45.7241C284.361 45.7592 284.365 45.8162 284.374 45.8425L284.405 46.075C284.133 46.7022 283.028 46.9741 282.374 47.2285C281.115 47.7153 277.239 50.8601 276.138 51.7899C274.923 52.8162 273.713 53.9873 272.669 55.1189C271.893 55.9566 270.748 58.0882 269.358 57.5882C268.231 56.8601 268.717 54.3074 265.612 54.9917C264.262 55.2855 262.104 56.5136 260.88 56.2987C264.595 54.0574 265.884 53.4259 269.375 50.268C270.73 49.0443 272.103 48.1101 273.669 47.1057L277.958 43.9785L278.392 43.2066ZM225.239 12.9083C228.396 15.8908 230.436 20.4653 232.65 24.2811C233.83 26.3031 235.369 28.2943 236.654 30.2943C239.68 35.018 244.29 42.7811 245.434 47.7811C246.285 51.5092 249.298 56.1846 252.236 58.5531C251.114 59.3206 250.008 59.6496 248.978 59.4522C247.601 59.1846 247.649 58.0443 247.263 56.8425C246.605 54.7811 245.772 52.5048 244.956 50.4566C244.106 48.325 243.233 45.825 241.921 43.8776C240.137 41.2285 239.716 40.0487 238.781 37.2811C237.843 34.5004 237.47 33.4873 235.817 30.689C231.137 22.7636 230.436 25.6452 228.388 22.5048C227.313 20.8601 223.594 14.5574 225.239 12.9083ZM224.09 70.746C223.256 69.0574 222.963 67.6934 222.257 66.1145C221.936 65.3908 221.274 64.5662 221.34 63.7855C221.432 62.7329 221.708 62.7811 220.853 61.5224C220.156 60.496 220.787 60.2329 220.77 59.3689C220.757 58.711 220.384 57.8294 220.472 57.1671C220.669 55.575 223.107 55.0531 224.454 54.0838L223.976 56.1057C223.721 56.8382 223.638 57.2285 223.34 57.9259C222.327 60.3469 223.432 60.0487 224.436 61.3557C225.476 62.711 224.563 64.689 226.265 65.2504C228.445 65.9697 228.01 65.961 228.462 68.132C228.914 70.3074 230.208 68.8732 230.563 72.1189C230.76 73.961 232.365 74.2197 233.738 73.6232C236.111 72.5925 239.43 69.1364 241.176 67.3118C245.934 62.3425 247.491 66.2548 243.342 67.9873C240.829 69.0355 241.193 69.075 239.277 70.768C238.141 71.7767 236.891 72.8645 235.812 73.9653C232.979 76.8732 227.239 86.4039 225.515 87.6364C225.41 86.7285 225.55 86.5925 226.037 85.6627C226.765 84.2767 226.629 82.8864 227.528 81.6583C229.436 79.0531 227.879 79.0224 227.186 77.5048C226.69 76.4127 227.682 76.8031 226.256 75.2592C225.541 74.4829 225.59 73.8776 225.274 73.0311C224.989 72.268 224.476 71.518 224.09 70.746ZM265.867 62.2153C265.564 62.6846 265.051 63.3338 264.731 63.8162C264.13 64.7285 263.178 67.1057 262.038 68.7241C260.529 70.8513 258.973 72.961 257.512 75.1101C255.227 78.4697 255.622 78.0969 252.96 81.5004L247.263 87.6583C242.321 92.5267 239.031 93.5574 232.374 94.4083C230.208 94.6846 230.414 94.6846 229.037 96.3864C228.146 97.4873 227.182 98.3689 226.261 99.4434C225.094 100.812 223.292 102.645 222.55 104.15C222.243 104.777 222.138 105.321 221.84 105.799C220.967 104.54 221.055 103.167 220.897 101.939C220.248 102.566 219.954 103.027 219.007 103.329C218.63 103.027 218.805 102.29 218.853 101.891C218.959 100.943 218.638 101.255 218.209 100.702C218.178 100.667 218.16 100.654 218.143 100.628C219.502 98.0004 221.98 99.4917 224.116 96.461C225.081 95.0969 226.91 90.9127 229.045 91.6627L228.905 92.2855C228.348 93.7329 227.427 93.461 226.901 95.8031C228.015 95.2636 228.01 94.2197 229.045 93.5136C229.76 93.0224 231.054 92.9873 231.848 92.8864C233.098 92.7241 236.067 91.7066 237.496 91.2417C239.373 90.6276 241.636 89.9215 243.114 88.2943C244.25 87.0399 244.711 86.2241 245.04 84.6715C245.636 81.8557 242.382 83.6846 241.457 83.9873C240.36 84.3469 238.939 84.4873 238.733 82.8513C238.847 81.6583 241.18 81.0574 242.294 80.7329C242.904 80.5574 243.693 80.2899 244.246 80.1583C246.706 79.5618 251.956 76.246 254.078 74.5004C259.766 69.8162 261.472 64.8074 265.867 62.2153Z" fill="white"/>
<path fill-rule="evenodd" clip-rule="evenodd" d="M112.749 209.272C107.328 212.066 101.395 212.597 96.452 210.338C94.6846 209.527 92.7506 208.272 91.777 208.307C94.154 214.263 97.6186 217.623 101.965 218.548C106.008 219.408 112.244 210.882 112.749 209.272Z" fill="white"/>
<path fill-rule="evenodd" clip-rule="evenodd" d="M88.7552 221.298C84.5977 223.215 80.1332 223.417 76.5019 221.562C75.2038 220.899 73.7916 219.895 73.0636 219.886C74.6512 224.43 77.1378 227.066 80.3656 227.899C83.3653 228.68 88.3254 222.491 88.7552 221.298Z" fill="white"/>
<path fill-rule="evenodd" clip-rule="evenodd" d="M116.551 223.719C109.196 227.105 101.294 227.469 94.8731 224.184C92.575 223.009 90.084 221.228 88.7903 221.219C91.5971 229.259 95.9958 233.917 101.706 235.395C107.017 236.772 115.788 225.824 116.551 223.719Z" fill="white"/>
<path fill-rule="evenodd" clip-rule="evenodd" d="M102.14 237.781C96.7984 240.246 91.062 240.504 86.4001 238.118C84.7292 237.268 82.9224 235.974 81.9795 235.969C84.0188 241.807 87.2115 245.189 91.3602 246.263C95.2108 247.263 101.583 239.311 102.14 237.781Z" fill="white"/>
<path fill-rule="evenodd" clip-rule="evenodd" d="M82.1068 236.43C77.9361 238.351 73.454 238.557 69.814 236.702C68.5071 236.035 67.0949 235.026 66.3625 235.017C67.9545 239.579 70.4455 242.219 73.6865 243.057C76.695 243.838 81.6726 237.631 82.1068 236.43Z" fill="white"/>
<path fill-rule="evenodd" clip-rule="evenodd" d="M109.696 251.052C107.683 249.912 109.047 244.035 121.849 237.987C122.366 237.745 121.84 236.759 122.261 236.311C120.516 232.21 118.853 227.127 122.204 223.903C124.853 222.535 129.857 222.653 134.339 224.596C141.233 226.421 140.523 227.294 148.092 228.934C149.079 234.232 144.987 237.552 152.978 246.096C146.408 248.934 142.917 249.469 132.664 252.373C120.095 255.438 111.464 253.697 109.696 251.052Z" fill="white"/>
<path fill-rule="evenodd" clip-rule="evenodd" d="M202.907 135.54C202.855 135.742 202.578 135.895 202.697 136.132L198.443 143.956C194.474 151.399 189.737 166.711 188.549 168.426C188.966 166.163 187.904 159.601 187.225 157.886C181.69 158.079 175.107 160.535 168.082 158.075C173.55 150.071 184.773 142.04 193.531 138.386C195.833 137.421 200.513 135.584 202.907 135.54Z" fill="white"/>
<path fill-rule="evenodd" clip-rule="evenodd" d="M234.624 153.158C235.615 159.114 233.826 169.53 223.73 171.802C220.516 172.522 203.995 173.973 201.482 173.618C203.78 168.184 210.332 162.579 216.336 159.206C223.533 155.166 228.234 155.039 234.624 153.158Z" fill="white"/>
<path fill-rule="evenodd" clip-rule="evenodd" d="M217.218 208.733C220.801 217.548 212.797 228.855 210.631 232.211C208.968 234.781 207.78 227.939 207.648 218.298L217.218 208.733Z" fill="white"/>
<path fill-rule="evenodd" clip-rule="evenodd" d="M257.083 101.233C271.507 146.189 243.207 152.259 232.786 134.47C242.9 138.676 252.921 144.136 256.486 130.72C259.192 120.535 256.806 110.176 257.083 101.233Z" fill="white"/>
<path fill-rule="evenodd" clip-rule="evenodd" d="M254.236 102.983C251.478 100.772 250.338 98.8597 249.667 95.6667C253.469 97.1536 253.359 99.0878 254.236 102.983Z" fill="white"/>
<path d="M238.536 113.912C238.268 115.03 238.448 116.149 238.957 117.044C239.466 117.951 240.312 118.64 241.36 118.886C242.408 119.136 243.47 118.899 244.334 118.316C245.189 117.741 245.851 116.824 246.114 115.701C246.377 114.579 246.202 113.465 245.693 112.57C245.18 111.662 244.338 110.978 243.29 110.728C242.237 110.478 241.18 110.715 240.312 111.294C239.461 111.873 238.799 112.789 238.536 113.912ZM239.895 114.899C240.062 116.18 240.944 117.258 242.202 117.557C243.136 117.776 244.079 117.522 244.798 116.938C244.557 117.258 244.268 117.535 243.948 117.754C243.242 118.232 242.373 118.425 241.514 118.223C240.654 118.022 239.961 117.456 239.545 116.715C239.119 115.96 238.97 115.017 239.194 114.066C239.422 113.118 239.979 112.342 240.694 111.859C241.009 111.644 241.36 111.487 241.729 111.399C240.952 111.776 240.33 112.482 240.036 113.381C240.194 113.351 240.365 113.351 240.536 113.39C241.071 113.517 241.422 113.982 241.316 114.425C241.215 114.868 240.689 115.123 240.154 114.995C240.062 114.973 239.979 114.943 239.895 114.899Z" fill="white"/>
<path fill-rule="evenodd" clip-rule="evenodd" d="M174.147 203.201C162.959 199.504 150.789 211.71 146.825 214.662C143.79 216.925 153.662 217.973 165.582 217.333C169.239 213.701 171.963 208.921 174.147 203.201Z" fill="white"/>
<path fill-rule="evenodd" clip-rule="evenodd" d="M108.894 177.724C108.894 177.724 108.126 168.566 107.363 166.285C105.855 162.482 102.793 158.671 100.517 155.614C99.7499 154.097 98.2237 158.667 96.6932 157.899C95.9388 157.145 96.6932 156.377 95.9388 155.614C95.1757 154.097 92.1234 155.614 91.3603 154.097C89.8385 152.566 90.5972 151.044 90.5972 151.044C91.948 151.044 94.4127 152.333 94.4127 149.513C94.3513 148.579 91.8734 145.272 92.1278 144.939C92.4918 144.636 99.4429 149.965 100.522 151.044C100.846 151.39 104.328 151.482 104.328 150.276C105.092 149.513 105.092 147.991 105.092 147.232C104.328 144.943 102.03 144.943 100.522 143.421C98.2281 141.132 95.9432 141.132 94.4127 139.614C92.8952 138.847 89.8429 133.509 91.3647 133.509C92.1278 132.746 96.6975 138.083 96.6975 137.325C97.465 136.557 98.9912 134.276 96.6975 131.987C93.6583 129.689 97.3642 128.833 95.0749 125.776C87.6808 116.557 97.158 120.965 99.7543 123.601C100.522 123.601 100.522 125.114 100.522 125.882C102.03 126.649 103.561 125.882 103.561 125.882C103.561 125.882 104.328 127.408 103.561 127.408C102.798 128.175 102.03 128.175 101.276 128.175C99.7543 127.408 99.7543 127.408 98.9912 127.408C95.8862 127.408 105.425 138.842 108.898 138.842C109.104 139.053 114.086 141.127 114.235 141.127C116.726 138.684 110.332 136.474 107.368 133.509C106.613 131.987 105.859 131.215 105.859 130.461C105.096 128.943 105.092 127.412 105.859 127.412C105.859 127.412 107.368 127.412 108.898 128.947C110.407 130.421 111.986 132.031 113.468 133.513C114.231 133.513 114.231 133.513 114.999 133.513C117.292 135.048 117.292 136.561 119.568 136.561C120.336 136.561 123.384 137.329 124.901 136.561C124.901 136.561 124.901 135.794 123.384 135.044C123.309 135.009 116.683 132.75 116.529 132.75C115.766 131.991 115.762 131.215 116.529 131.215C121.502 133.158 123.985 131.842 124.901 132.75C125.669 133.513 125.669 134.281 126.432 134.281C127.006 134.281 127.699 131.996 129.471 131.996C131.002 132.754 131.765 134.281 133.295 135.798C135.58 138.088 138.189 144.447 139.325 147.018C140.08 148.548 140.422 150.246 139.957 150.215C138.939 150.215 136.558 143.535 134.821 142.667C134.067 141.899 133.3 141.899 133.3 142.667C133.3 142.662 133.107 143.57 134.734 148.219C135.593 150.68 139.909 154.105 137.869 154.105C136.339 154.105 134.821 151.811 133.3 149.522C131.006 146.474 129.348 144.561 128.366 144.496C123.625 143.316 125.923 145.557 129.366 148.982C129.782 149.811 134.146 155.535 132.541 157.149C131.773 159.434 132.541 161.715 131.773 162.482C131.484 162.768 129.076 155.443 125.673 157.149C125.256 158.145 125.042 160.013 126.085 162.097C126.853 163.618 127.682 164.408 127.967 165.522C127.011 168.294 128.721 172.386 127.967 173.154C127.967 173.904 126.436 171.618 125.673 173.154C124.436 176.838 125.208 186.246 122.634 191.443C122.634 192.211 122.634 190.675 122.634 190.675C122.634 191.443 121.871 191.443 121.871 189.917C121.112 187.632 120.345 183.82 120.345 180C120.345 178.658 121.871 172.404 121.871 164.754C121.112 160.943 119.577 164 119.577 164.754C118.814 167.044 118.06 171.614 117.301 173.149C116.538 174.662 116.538 170.097 115.77 170.855C115.007 171.618 115.77 172.386 115.007 173.149C114.244 173.899 112.714 170.097 112.714 170.855C111.205 172.386 113.481 181.535 111.959 182.289C110.438 183.057 111.205 179.237 110.438 177.719C110.424 176.197 108.894 177.724 108.894 177.724Z" fill="white"/>
<path fill-rule="evenodd" clip-rule="evenodd" d="M163.819 31.7807C166.985 32.5307 161.328 39.7106 161.929 40.3114C163.45 41.0746 163.749 39.443 165.266 36.3904C166.494 35.1623 164.126 36.8597 168.836 32.0834C169.599 32.0834 171.871 30.4737 173.028 31.6448C173.028 35.4518 164.652 43.4562 164.652 43.4562C163.117 44.9869 161.6 47.272 161.6 48.7939C160.837 51.079 161.6 52.6097 160.069 53.3728C157.784 52.6097 160.069 51.8421 159.315 49.5571C159.315 47.2676 154.732 46.8641 154.732 45.7413C154.732 43.4562 155.499 39.6492 157.017 38.1228C159.315 36.6053 162.297 31.7807 163.819 31.7807Z" fill="white"/>
<path fill-rule="evenodd" clip-rule="evenodd" d="M106.71 74.1052C106.71 76.7237 109.082 77.5 111.28 76.3991C112.196 75.7544 114.534 74.1666 116.428 75.693C116.937 76.4912 113.578 80.2017 117.376 80.2017C118.143 80.2017 119.893 78.728 120.656 79.4956C121.423 80.2587 119.669 82.4912 120.437 83.2544C120.595 83.4123 126.897 87.8245 122.713 87.8245C121.152 87.8772 120.437 85.5394 119.674 84.7851C118.143 83.2544 115.858 83.2544 115.104 83.2544C112.81 82.4912 114.341 81.7324 112.043 81.7324C109.003 81.7324 106.71 82.4868 104.434 82.4868C101.377 81.7324 102.144 81.7324 100.61 80.9649C99.8552 80.9649 94.5092 80.9649 92.9918 81.7281C91.47 81.7281 89.9394 82.4824 87.6677 83.25C86.1371 84.7807 85.3696 84.7807 85.3696 84.0131C85.3696 82.4824 86.1371 81.728 87.6677 80.1973C88.422 78.6754 88.422 77.1491 89.1763 76.3947C94.5925 76.3903 94.9214 72.7763 97.7764 72.5745C99.2938 72.5745 99.0965 74.864 99.8596 74.864C101.158 74.7675 106.71 68.5307 106.71 74.1052Z" fill="white"/>
<path fill-rule="evenodd" clip-rule="evenodd" d="M95.2766 102.307C95.2766 103.07 104.434 110.711 102.903 111.478C101.377 111.478 96.0397 107.658 94.5091 109.184C92.9873 113.009 96.0397 116.816 95.2722 116.816C92.233 115.294 89.9349 111.469 89.1675 106.89C89.1675 105.36 88.4175 103.075 88.4175 101.557C88.4175 100.79 87.6632 99.2632 88.4175 99.2632C88.4175 98.5044 89.1675 98.5044 89.1675 98.5044C91.7067 101.018 90.698 102.18 90.698 96.9781C91.4655 96.2106 92.9829 96.215 92.9829 96.215C94.5047 96.215 93.746 98.5044 94.5047 100.79C94.5091 101.553 95.2766 101.553 95.2766 102.307Z" fill="white"/>
<path fill-rule="evenodd" clip-rule="evenodd" d="M202.754 87.8203C202.754 88.5834 199.719 87.8203 198.952 87.8203C197.421 87.8203 197.421 89.351 196.658 89.351C195.895 89.351 195.136 90.1141 197.426 93.1667C198.189 94.6843 203.526 100.781 202.758 101.553C201.995 102.307 199.724 100.785 196.658 100.785C194.373 100.022 192.088 98.5001 191.321 100.022C191.321 100.785 194.369 105.36 198.184 109.176C201.223 112.228 202.206 119.395 201.438 119.395C200.671 120.162 193.601 112.983 191.316 116.798C190.553 117.561 195.492 121.825 194.321 131.693C191.724 131.64 191.68 126.513 190.961 126.711C190.273 129.088 193.483 134.86 193.856 140.943C194.623 143.228 196.654 146.531 195.886 147.298C194.364 148.053 189.79 142.715 189.032 144.246C187.51 145.772 190.553 154.917 189.032 154.154C188.268 154.154 185.984 151.105 185.216 151.105C183.694 150.342 186.751 164.061 185.216 162.544C182.944 160.254 179.879 160.254 177.598 159.487C176.831 159.487 183.699 173.974 182.944 173.974C181.414 172.443 179.12 167.873 176.831 164.829C176.831 164.061 176.831 166.36 176.077 165.592C173.783 163.303 178.361 170.93 178.361 178.544C178.361 180.833 177.594 173.974 176.077 176.263C173.029 180.075 172.261 188.456 171.494 193.794C170.739 197.601 169.976 178.54 167.683 180.833C165.406 183.114 166.165 195.32 163.113 201.417C161.591 204.465 163.88 192.263 161.591 193.794C160.06 195.32 161.591 202.184 159.306 205.987C157.012 208.272 158.539 196.847 156.254 198.364C154.723 199.132 153.969 200.654 153.206 202.934C151.675 204.469 150.912 207.513 150.145 209.803C149.39 210.566 147.869 204.465 147.105 205.233C146.347 206.763 147.105 215.145 147.105 215.904C145.579 216.654 145.579 214.377 144.057 214.377C143.303 214.377 144.057 208.268 143.303 207.513C141.773 206.763 143.303 199.132 141.773 197.601C141.009 196.847 144.812 193.794 143.303 193.794C143.303 193.026 146.342 197.601 148.636 193.794C149.39 193.026 150.145 200.654 150.145 198.364C150.908 196.083 152.438 191.5 153.206 187.689C153.206 186.926 156.254 193.794 156.254 193.026C156.258 191.496 160.06 192.263 159.306 189.983C159.306 187.693 163.108 183.877 160.06 183.877C159.306 183.877 163.876 186.167 163.876 183.877C163.108 183.11 164.643 181.597 164.643 179.307C162.473 176.333 159.964 174.167 157.776 167.873C156.258 168.64 153.973 170.158 153.973 170.926C153.605 175.434 152.447 177.759 147.869 180.833C147.105 181.601 144.812 170.926 143.303 171.693C141.773 172.443 143.93 179.689 142.395 181.983C141.645 182.75 141.075 177.667 140.023 178.035C135.571 180.426 133.151 190.18 132.62 187.693C132.558 185.053 130.199 193.447 128.8 192.268C128.8 192.268 128.8 186.171 131.094 179.311C131.094 177.781 132.616 177.031 132.616 175.5C134.133 170.93 133.37 165.592 134.9 162.548C135.663 161.022 137.194 174.741 137.962 173.215C138.716 171.697 138.716 168.645 138.716 167.11C140.233 164.066 137.962 161.022 138.716 158.728C139.479 156.443 141.764 168.645 142.531 166.36C142.531 165.592 143.299 164.066 143.299 162.548C141.768 159.491 139.483 156.443 140.238 154.921C141.768 153.39 144.807 161.026 145.575 159.491C146.342 157.978 144.812 156.447 145.575 154.921C146.342 153.39 147.101 154.921 147.864 153.39C148.632 151.105 150.903 159.491 151.671 157.211C153.201 154.158 146.338 147.303 147.101 145.009C147.864 142.724 147.101 139.671 147.864 138.154C149.386 135.868 150.14 139.671 151.671 137.386C152.434 135.864 162.341 151.873 163.872 150.342C163.872 148.816 157.767 141.956 155.486 138.154C154.719 136.623 155.486 135.868 156.249 135.868C157.008 134.333 157.008 132.82 157.771 131.29C158.539 129.759 154.495 124.877 155.486 122.899C156.254 120.614 160.824 124.43 161.587 122.899C166.455 113.154 178.357 158.61 178.357 106.895C177.59 106.895 179.874 106.895 180.642 106.127C181.361 104.697 173.051 91.6887 173.024 91.6448C172.257 90.1229 169.209 85.158 170.735 84.3948C178.668 87.6887 181.765 90.1141 174.423 80.5176C173.226 78.9518 168.661 76.1404 170.134 73.6711C179.48 72.4562 169.209 69.6843 169.209 68.0176C169.485 67.7676 174.739 60.6624 178.629 58.6974C181.809 57.0878 183.69 60.4957 184.37 60.7194C185.58 61.3334 188.659 69.9299 189.032 70.3027C189.79 70.3027 193.601 72.5878 194.364 73.3553C194.369 74.1053 202.754 87.0703 202.754 87.8203Z" fill="white"/>
<path fill-rule="evenodd" clip-rule="evenodd" d="M190.558 52.6136C190.558 52.6136 192.851 52.6136 192.851 53.3768C192.084 54.8987 189.795 54.8987 189.036 56.4294C189.036 57.1838 189.036 57.9513 188.268 58.7145C185.22 62.5171 180.651 64.0478 179.12 64.0478C177.598 62.5171 185.019 60.232 185.786 58.7145C186.755 56.6443 185.988 55.7101 185.988 52.6136C185.988 51.8461 188.273 51.0829 187.518 50.3285H186.755C186.755 49.5654 187.518 49.5654 187.518 49.5654C187.518 48.8022 186.755 48.8022 186.755 48.8022C186.755 48.0478 186.755 48.0478 186.755 47.2803C186.755 47.2803 188.273 46.5171 188.273 44.9952C188.277 44.9952 185.988 46.5171 185.988 45.7496C185.22 44.2276 185.22 43.4645 185.22 42.7101C185.988 41.9469 187.514 40.4119 187.514 39.6575C187.514 39.6575 188.268 39.6575 186.751 39.6575C185.983 39.6575 185.983 39.6575 185.216 39.6575C184.453 39.6575 182.94 40.4119 182.94 40.4119C185.527 27.3987 184.049 34.7584 176.826 34.3241C176.3 33.0347 176.997 30.7276 177.423 29.7803C181.808 20.0478 171.941 34.175 173.914 25.3022C173.914 24.5478 173.914 23.0171 173.147 23.0171C173.147 23.0171 171.625 22.254 170.862 23.7715C162.529 32.1312 168.226 21.2276 159.245 30.2145C157.727 30.9689 157.771 28.9338 156.254 29.6969C154.732 30.4601 151.934 34.8373 151.166 35.5917C148.868 40.061 147.868 44.9996 147.868 44.9996C144.812 39.6619 144.509 32.4908 147.566 26.3899C149.947 25.8768 151.824 27.7145 152.592 26.9601C154.122 24.6619 154.723 19.8329 156.254 18.311C157.012 17.5478 157.341 21.8724 158.863 21.1092C160.556 21.1092 161.139 16.4908 163.113 14.504C163.113 13.7364 164.648 12.9776 164.648 13.7364C164.849 13.9426 165.253 18.0566 167.204 15.6355C168.261 14.4557 168.45 12.982 169.213 12.2189C170.744 12.2189 170.463 14.732 171.985 15.4908C173.52 15.4908 175.669 12.9908 176.081 12.982C177.603 12.982 177.923 14.1487 178.366 14.5083C179.16 14.9601 179.221 14.7978 179.883 14.5083C179.975 14.7101 181.326 14.039 181.418 14.5083C181.418 16.1619 182.137 13.1005 185.37 14.5873C186.137 14.5873 186.365 16.789 187.128 17.5566L189.036 16.7934C189.036 18.3198 188.707 18.8066 187.935 20.3285C186.922 25.6487 189.395 20.1794 189.088 23.1443C189.347 24.2452 183.721 25.1794 191.321 25.1794C192.856 24.4031 192.088 26.6882 192.088 27.4557C192.088 28.2189 189.799 28.9864 189.04 30.4952C188.277 31.2715 189.689 31.1312 190.444 31.8987C190.444 32.6619 192.088 32.0259 192.856 33.5566C192.856 34.3198 190.562 36.6048 190.562 36.6048C190.562 37.3592 192.093 37.3592 192.856 37.3592C192.856 38.1224 192.088 39.6487 192.088 39.6487C192.088 40.4031 191.321 40.4031 191.321 41.1706C191.321 41.1706 189.036 42.7013 189.036 43.4557C189.036 44.2189 190.558 44.2189 190.558 44.9864C190.558 45.7408 191.321 46.5084 191.321 47.2715C191.321 48.0347 189.795 49.561 189.795 49.561C189.795 50.3241 192.084 48.7978 192.084 49.561V50.3241C192.084 51.0785 192.851 51.8461 192.084 51.8461C191.321 52.6136 189.795 51.8461 190.558 52.6136Z" fill="white"/>
<path fill-rule="evenodd" clip-rule="evenodd" d="M101.68 16.7759C102.215 17.0785 100.232 19.197 103.285 19.9557C104.465 20.5391 109.477 16.9338 109.824 17.2891C111.346 17.2891 109.311 20.5347 110.841 21.2935C111.604 21.2935 115.064 18.8154 116.613 19.0742C119.761 18.9426 115.924 22.8066 117.757 23.425C119.981 23.425 126.941 19.4908 128.116 19.618C129.734 20.3022 128.226 23.9294 130.673 25.2277C132.041 25.868 135.672 22.118 136.435 22.8899C138.47 23.5829 136.484 26.8549 138.014 28.3856C138.532 28.8987 142.338 30.3812 139.483 33.5654C132.62 30.1049 136.225 28.6268 123.472 27.4645C122.704 27.4645 121.196 26.697 117.367 27.4645C114.328 28.2277 115.091 23.6487 112.03 24.4119C109.758 24.4119 106.697 25.9338 104.421 26.697C102.131 28.2277 102.89 23.6487 100.596 24.4119C99.8422 25.1663 97.5573 25.9338 96.7942 28.2277C95.2636 29.7496 95.2636 32.0347 93.7418 32.7978C92.22 34.3285 90.6895 33.561 90.6895 33.561C88.8519 28.8285 94.1146 28.4864 95.2592 26.6926C96.6714 22.4601 88.7773 22.2408 86.8828 22.8856C82.3174 24.0128 74.8663 26.7189 70.2264 27.425C66.6346 27.425 54.89 32.7584 55.6224 32.0303C55.6224 31.2759 56.3899 27.4601 57.916 26.6926C58.6835 25.9294 60.2009 28.9908 61.714 27.4601C64.7663 25.1663 65.9373 22.6531 67.8143 22.1136C68.8317 22.1838 67.8143 25.1619 70.1123 23.6443C71.6341 23.6443 72.3884 20.6049 73.919 20.6049C75.4496 20.6049 73.919 24.4119 75.4496 23.6443C78.4888 22.8899 80.7824 19.0742 83.0673 19.0742C85.3522 19.0742 82.1507 21.1663 84.4312 21.1663C85.8785 21.2584 91.1017 16.7803 93.4918 16.7803C95.0487 16.8461 93.3603 19.197 95.6452 19.197C100.241 18.4382 99.4343 16.5698 101.68 16.7759Z" fill="white"/>
<path fill-rule="evenodd" clip-rule="evenodd" d="M22.0989 6.86842C22.8663 5.33772 24.9012 10.7982 26.4186 9.2807C27.9448 7.75 26.6774 4.58333 28.2036 2.29825C29.7166 1.5307 31.2516 5.2193 32.7733 5.2193C34.2951 5.2193 32.6462 0.894737 34.3039 0C38.2685 0 37.4703 4.48684 39.7596 4.83772C42.562 4.70614 43.4435 0.767544 44.974 3.05263C47.8685 4.51316 52.5961 15.2281 52.5961 19.0702C53.3549 20.6009 53.3549 23.6404 51.8331 26.6886C51.07 28.2193 54.1179 31.2719 52.5961 32.7939C51.8331 33.5526 50.3025 31.2719 49.5438 32.0263C47.4431 37.7237 47.8334 35.2763 45.7327 33.557C44.2065 34.3202 44.553 38.3158 43.4435 38.8816C41.6015 39.8333 41.7331 37.6447 40.3955 38.1272C39.6368 38.8816 39.3868 40.4825 38.2334 42.7018C37.4133 43.4956 33.9531 40.9868 32.7733 41.943C31.2472 42.7061 34.3039 44.9912 32.7733 44.9912C30.4841 45.7456 27.4361 44.2237 26.6774 44.9912C25.1556 44.9912 30.4841 48.0395 29.7166 48.0395C26.6774 48.0395 25.1556 47.2763 22.0989 45.7456C19.8184 44.2237 17.7791 41.6886 16.766 38.886C15.9985 38.1272 19.5815 38.9605 19.2088 37.2939C16.1652 34.2544 13.7136 28.4649 14.7355 25.2895C15.8801 23.7719 18.0247 29.0088 19.4368 27.7061C19.4368 24.8684 16.1476 15.8728 16.766 15.2544C17.5335 13.7237 19.0553 16.0219 19.8184 15.2544C19.8184 13.7237 19.0553 12.2061 19.8184 11.4386C20.5771 9.91667 21.3358 14.4912 22.0989 12.9693C22.8663 11.4386 21.3358 6.86842 22.0989 6.86842Z" fill="white"/>
<path fill-rule="evenodd" clip-rule="evenodd" d="M43.4437 100.785V99.2584C44.2068 98.4996 45.7329 98.4996 46.4916 98.4996C47.2547 98.4996 47.3161 98.1531 46.4916 97.7408C45.6672 97.3286 44.2682 97.3286 43.4437 97.7408C42.6192 98.1531 43.0534 98.197 42.685 98.4996C42.1105 98.0961 41.9219 97.7408 41.9219 97.7408C42.1982 96.2584 42.8472 94.7979 45.0005 94.6356C47.1495 94.4733 48.0178 96.2101 48.0178 96.2101C48.0178 96.9733 48.0178 97.7408 48.0178 98.4996C48.0178 99.2584 50.3027 97.7408 50.3027 98.4996C49.544 98.4996 49.544 98.4996 48.7765 99.2584C48.0178 100.017 47.2547 100.785 47.2547 100.785C45.7329 101.552 44.9742 102.307 43.4437 100.785Z" fill="white"/>
<path fill-rule="evenodd" clip-rule="evenodd" d="M32.7734 91.6406C32.7734 91.6406 31.2473 89.3555 30.4842 87.0705C29.7167 86.3029 30.4842 81.7327 30.4842 80.9696C31.4446 78.9652 33.2646 83.8775 35.3039 83.4564C36.374 83.2371 36.238 76.5178 38.3694 77.7283C40.8078 82.7108 43.2988 78.3029 45.4127 76.0134C46.9345 76.0134 45.6012 80.2064 47.1318 79.452C47.8905 79.452 52.5743 75.4783 53.1488 77.1801C53.7277 78.8862 53.6268 82.1801 56.4029 79.452C57.166 78.6845 57.9335 79.452 57.9335 79.452C58.701 81.7371 57.166 85.5441 56.4029 86.3073C56.4029 86.3073 55.6354 84.7898 54.1136 84.0222C51.8288 82.4915 48.7764 82.4915 48.7764 83.259C47.2546 84.0222 46.4915 84.0222 44.2066 84.7898C43.4435 84.7854 34.304 93.1713 32.7734 91.6406Z" fill="white"/>
<path fill-rule="evenodd" clip-rule="evenodd" d="M25.9188 54.2892C30.1465 60.0129 26.4889 65.3374 25.1557 68.0085C25.1557 68.7629 24.3926 69.5304 24.3926 70.2936C24.3926 70.9032 25.8223 78.8637 24.3926 81.7278C23.6251 82.4822 22.8664 81.7278 21.3358 81.7278C20.5771 81.7278 19.8184 82.4822 19.8184 83.2497C19.0553 84.7804 17.5335 83.2497 15.9986 84.7804C14.3364 88.1137 13.0866 92.1357 11.4288 95.4515C11.4288 97.5216 8.03876 104.5 6.85904 106.886C6.85904 107.64 3.80229 109.938 3.80229 113.75C3.80229 120.837 6.09157 108.728 6.09157 121.359C6.09157 121.377 5.21006 130.004 4.94693 130.513C4.18384 130.508 3.80229 123.649 3.80229 120.601C3.80229 119.846 4.56977 119.079 4.56977 118.315C4.56977 116.785 1.52179 119.842 1.52179 118.315C1.52179 116.03 0 116.03 0 113.754C0.249978 112.522 7.7537 102.666 9.14831 98.4997C9.90702 97.7409 9.14831 95.4558 9.90702 94.6883C12.1963 89.355 13.7181 85.5392 14.4812 83.2541C15.2399 81.7322 12.9506 78.6839 13.7181 76.3988C16.003 71.0655 19.0553 68.7673 22.0989 64.1971C24.3926 60.3901 24.3926 54.2892 25.9188 54.2892Z" fill="white"/>
<path fill-rule="evenodd" clip-rule="evenodd" d="M132.629 107.645C133.642 105.745 130.471 102.184 132.629 100.785C133.633 99.513 135.326 101.416 137.624 101.416C138.826 99.9603 137.72 98.2454 138.729 96.9735C140.637 94.934 141.777 96.9735 142.544 95.4516C142.549 89.8507 138.347 92.9428 136.444 88.5831C139.536 76.4516 131.971 78.013 129.576 75.6314C129.34 72.1226 127.234 67.4954 128.813 65.5261C130.629 65.9077 129.576 68.763 131.874 69.5305C134.054 70.627 142.224 69.0305 142.917 70.4121C143.68 71.1753 139.865 77.9121 141.781 77.9121C142.544 77.9121 145.347 77.0217 146.101 77.7849C146.101 80.4603 143.553 84.8419 143.553 85.6577C143.553 86.4252 146.36 86.7454 146.36 87.5086C146.36 89.4077 144.97 90.9691 145.588 91.9472C146.268 93.0217 149.105 92.2893 149.105 93.1489C149.105 96.9121 147.114 95.513 147.114 99.2542C147.114 101.364 140.786 95.6884 144.702 103.583C144.707 110.272 139.685 103.763 136.194 106.754C136.194 107.509 136.444 113.75 136.444 114.509C135.856 115.684 128.046 115.342 128.046 116.794C127.291 117.557 128.046 119.083 128.046 119.083C121.204 117.557 118.143 115.272 117.376 112.973C116.613 111.465 123.871 114.386 124.629 113.609C125.384 112.855 123.476 110.092 125.011 107.89C127.524 105.381 130.975 109.289 132.629 107.645Z" fill="white"/>
<path fill-rule="evenodd" clip-rule="evenodd" d="M79.0018 173.044C81.927 170.597 84.4926 170.171 85.2513 170.127C86.0538 170.856 80.8526 173.408 77.9668 176.61L79.0018 173.044ZM38.33 177.048C38.33 177.048 39.8167 176.211 40.6149 176.934C42.2156 178.377 43.0971 180.614 44.6672 181.298C47.0178 182.706 47.6625 180.377 46.8994 180.417C46.8994 180.417 46.86 179.667 46.0662 178.943C45.3075 178.983 42.2551 179.141 42.1762 177.61C39.6676 173.163 47.1626 175.825 49.7193 175.689C53.5129 175.491 57.2889 174.527 57.2889 174.527C58.0914 175.25 58.9641 177.5 58.2493 178.298C56.7626 179.145 53.6313 177.777 53.6751 178.54C52.9647 179.342 53.7541 180.057 53.7936 180.82C55.3636 181.505 63.6611 179.54 63.7006 180.307C63.7006 180.303 76.0328 174.733 79.0062 173.044L77.9712 176.61C78.0107 177.377 69.0729 180.794 69.108 181.562C68.3449 181.601 69.1475 182.32 69.1475 182.32C68.4194 183.132 69.1518 184.562 66.9152 185.439C64.6698 186.32 60.2447 187.364 57.9642 187.487C56.4819 188.316 48.1055 188.75 43.3822 185.943C41.8209 185.268 40.2202 183.825 38.6151 182.382C37.8169 181.654 37.738 180.141 37.6985 179.373C37.7599 178.07 38.0142 176.768 38.33 177.048Z" fill="white"/>
<path fill-rule="evenodd" clip-rule="evenodd" d="M35.0583 162.544C34.304 161.018 33.5365 159.487 34.304 158.724C34.4356 158.654 42.2024 157.974 42.6848 157.974C44.2066 157.974 44.2066 156.439 42.6848 155.689C41.1543 153.391 40.3956 154.154 36.5845 155.689C35.817 156.443 32.7734 155.689 32.0147 154.917C29.7211 152.636 29.7211 148.816 30.4842 147.303C31.2473 146.535 33.5365 145.772 36.5845 145.009C38.1063 145.009 39.6369 145.009 39.6369 144.25C40.3956 143.483 39.6369 142.72 38.8694 142.72C30.4798 146.535 27.4362 143.483 29.7167 139.671C31.2473 138.154 34.304 137.386 38.1063 137.386C43.4436 136.623 45.7328 136.623 50.3026 136.623C53.3593 137.386 59.4509 137.386 61.7314 138.917C62.4945 139.667 62.4945 140.434 62.4945 140.434C63.262 141.202 51.0657 141.202 45.7284 141.956C41.1543 141.956 42.6805 143.483 42.6805 144.246C42.6805 144.246 47.2502 145.005 47.2502 146.531C47.2502 147.298 44.2023 146.531 43.4392 148.053C42.6805 148.816 44.2023 151.101 44.9697 152.636C45.7284 152.636 47.8247 154.351 48.5834 155.11C48.5834 155.877 49.3465 156.645 50.1052 156.645C50.8727 158.167 50.8727 158.93 51.6358 159.68C53.162 161.211 55.4425 161.211 56.2056 161.211C56.9687 161.211 60.0166 161.978 60.7797 161.211C61.5297 160.448 60.6789 157.246 59.9114 156.491C59.9114 155.724 59.9114 154.961 59.9114 154.961C59.1483 154.202 56.1003 154.961 54.5698 154.961C51.5306 153.434 49.3422 152.834 49.3422 151.298C49.3422 146.728 57.7361 144.443 58.4992 144.443C63.8277 144.443 70.6868 148.259 66.117 153.597C65.3539 153.597 66.117 154.351 66.117 154.351C66.117 155.114 63.8277 159.684 65.3539 161.211C66.8669 161.211 69.165 160.448 71.4542 161.211C72.2042 161.978 72.9716 162.737 74.4978 162.737C76.7871 162.737 77.5546 160.452 79.8351 160.452C82.8787 159.684 85.1635 160.452 85.1635 160.452C84.4004 161.215 82.8787 162.737 80.5938 163.505C79.8307 163.505 79.0632 165.022 78.3001 165.79C76.7871 166.553 72.9673 165.79 70.6824 166.553C69.9237 167.32 69.1606 168.838 68.3975 168.838C66.1126 168.838 64.582 168.075 63.0602 168.075C62.2928 168.075 62.2928 168.075 62.2928 168.075C59.5825 168.601 57.3721 168.82 54.6706 168.838C53.9119 168.838 52.3945 168.838 51.6314 168.838C50.3464 170.127 47.9695 167.132 44.9653 170.167C44.1979 170.934 43.4348 171.702 41.1455 170.934C39.6281 170.934 38.0975 170.934 37.3388 171.702C35.0496 173.983 34.6636 171.592 33.9005 171.592C32.3261 166.825 30.1421 167.601 24.3838 164.07C26.6687 161.785 25.1469 160.263 22.0946 161.785C22.0946 162.553 19.8141 160.259 19.8141 157.215C19.8141 152.645 20.7701 152.417 19.8141 151.877C13.9549 163.487 21.3446 139.658 14.4768 149.592C13.7664 150.619 12.9463 138.926 12.9463 138.162C11.1306 142.048 10.4552 142.93 7.61339 128.241C6.87662 124.434 7.61339 117.575 9.14396 116.044C9.90266 115.29 11.4288 114.522 12.1919 112.237C13.7137 109.952 7.61778 112.991 9.14396 109.952C9.14396 107.092 14.4768 100.171 14.4768 100.031C14.4768 99.2721 12.2226 99.2458 12.9857 98.4827C12.9857 96.952 15.2399 96.2195 15.9986 94.6976C16.7617 93.18 16.7617 91.6493 16.7617 90.8818C22.0419 83.5792 24.4759 86.0616 27.4318 87.0748C28.958 87.8292 29.7123 90.8818 28.958 94.6932C28.1993 95.4607 27.4318 96.9783 26.6731 97.7458C26.6731 98.5046 28.958 96.9827 28.958 97.7458C19.1738 107.588 23.0199 107.61 26.2828 105.22C27.7651 104.132 27.0108 101.847 27.9537 101.601C31.0675 100.781 28.9536 106.728 28.7036 106.895C20.8534 114.768 31.2429 128.487 31.2429 100.794C31.2429 96.9827 36.5801 92.4125 36.5801 92.4125C39.6325 90.1274 41.9174 89.3599 44.2023 87.8292C45.7284 87.0748 45.7284 85.5441 46.4871 85.5441C48.0177 84.7897 48.0177 86.3072 48.772 86.3072C51.0613 85.5441 52.5919 84.7897 53.3506 85.5441C54.1093 86.3072 54.1093 88.5923 54.8636 89.3599C55.6311 90.8818 56.3985 90.8818 57.1572 92.4125C57.1572 92.4125 57.1572 93.93 56.3942 95.4607C54.7715 97.0572 53.4558 98.4037 51.8244 100.027C51.5656 100.027 48.3773 91.9695 46.6099 91.9695C42.8471 91.68 39.4395 95.8467 39.172 97.9169C38.7378 101.298 43.6848 104.86 48.0089 106.895C48.0089 109.18 42.6761 112.987 39.6281 117.57C36.5757 121.373 35.0496 125.956 35.0496 125.956C35.0496 126.724 34.2952 129.763 32.0016 132.82C30.471 135.869 28.9492 136.627 28.1905 138.926C27.423 141.211 26.6643 145.013 27.423 147.307C27.423 148.062 28.9492 148.062 28.9492 148.825C28.9492 151.11 29.7035 152.645 29.7035 154.926C30.471 157.215 31.2341 160.263 31.9972 162.553L35.5627 171.338C36.317 171.338 33.7821 166.943 38.0931 165.597C40.3824 165.597 43.4304 166.364 43.4304 165.597C43.4436 164.057 34.304 162.544 35.0583 162.544Z" fill="white"/>
<path fill-rule="evenodd" clip-rule="evenodd" d="M98.3247 85.5354C98.3247 85.5354 109.004 84.781 109.771 84.781C111.28 84.781 115.104 84.781 114.341 87.8205C114.341 89.3512 115.863 88.5836 116.617 89.3512C117.709 92.4345 122.932 94.7503 120.446 98.4959C119.678 99.2547 118.915 97.7371 117.384 98.4959C117.384 98.4959 117.384 99.2547 116.621 100.018C115.867 100.018 115.113 99.2591 114.345 100.018C114.345 100.018 112.815 101.553 112.047 101.553C110.53 102.307 112.047 98.5003 112.047 98.5003C111.92 95.0398 105.793 93.9257 103.675 94.6889C99.829 96.6187 99.158 101.553 103.675 101.553C104.447 101.509 103.609 101.816 105.622 100.842C105.864 100.724 106.714 101.145 106.714 99.2591C106.767 97.0792 105.197 98.2021 105.197 98.5003C105.197 98.5003 105.508 98.9696 105.197 99.2591C104.881 99.5442 104.456 99.3161 104.434 99.2591C104.337 99.0003 104.39 98.5529 104.004 98.4126C103.434 98.2021 103.684 98.1363 102.908 98.5003C102.149 98.5003 102.149 97.7415 102.149 97.7415C103.359 96.5222 106.973 95.7064 108.245 96.9784C109.008 97.7415 109.008 98.5047 109.008 98.5047C107.034 98.5047 109.319 99.5749 109.775 100.027C109.775 102.018 108.749 103.847 106.714 103.847C103.675 103.847 104.438 103.847 102.908 103.079C102.149 103.847 102.149 104.601 100.614 103.079C99.0966 103.079 98.3291 102.316 98.3291 101.562C98.3291 100.794 99.0966 100.027 98.3291 99.2678C97.5748 99.2678 97.5748 97.7459 97.5748 97.7459C98.3291 96.9828 100.614 95.4608 101.381 93.9301C102.145 93.1757 105.193 92.4126 105.193 91.645C108.24 91.645 109.771 93.1757 110.525 93.1757C111.28 93.9301 112.81 94.6933 113.573 94.6933C115.858 95.4608 116.613 93.1757 115.858 93.1757C115.858 92.4082 115.104 92.4126 113.573 92.4126C112.043 92.4126 110.525 90.1275 109.771 90.1275C104.644 88.0266 102.39 91.645 97.5704 91.6494C96.0398 92.4126 96.5047 94.2854 96.781 94.6275C97.0617 94.9696 99.0352 93.9301 99.0439 94.7459C98.5966 95.6889 96.8029 96.9871 96.0354 96.9871C95.2723 96.9871 94.5049 96.224 93.7505 95.4652C92.2288 94.6977 90.6982 94.6977 89.9351 93.9345C89.9351 93.1801 89.9351 92.417 89.9351 92.417C89.9351 90.1319 88.4177 89.3643 90.6982 87.8336C92.9918 85.5354 96.0398 85.5354 98.3247 85.5354Z" fill="white"/>
<path d="M253.578 142.843C247.29 169.851 234.085 194.531 214.731 213.36C197.68 229.948 179.164 238.088 155.561 245.22C155.464 244.505 154.241 246.364 154.144 245.663C177.291 238.619 195.82 227.417 212.547 211.141C231.624 192.588 246.013 169.483 252.64 143.255C252.96 143.128 253.271 142.992 253.578 142.843Z" fill="white"/>
<path d="M152.986 229.443C172.949 218.636 180.637 193.645 187.198 172.084C189.851 163.356 192.478 154.729 195.912 146.961C206.968 121.97 225.664 111.479 237.01 103.922C241.983 100.606 247.18 97.5531 247.96 95.6189L248.333 95.5575C247.18 98.4128 243.584 101.395 238.132 105.027C227.089 112.386 210.635 124.101 199.956 148.246C196.566 155.913 192.856 164.413 190.237 173.009C183.488 195.193 176.028 217.509 154.916 228.939L152.986 229.443Z" fill="white"/>
</svg>
