<svg aria-hidden="true" style="position: absolute; width: 0; height: 0; overflow: hidden;" version="1.1" xmlns="http://www.w3.org/2000/svg" xmlns:xlink="http://www.w3.org/1999/xlink">
<defs>
<symbol id="icon-bike" viewBox="0 0 53 32">
<path d="M32.832 15.67c-2.209 0.107-5.955-0.032-7.033-2.045-0.695-1.295-1.905-3.329-2.976-4.93-0.617-0.92-1.149-1.667-1.433-1.962-0.944-0.271-1.928-0.365-2.94-0.365-1.284 0-3.394 1.687-4.522 2.678 1.191 1.175 3.264 3.356 4.389 5.305 1.288 2.233 2.618 6.353 3.117 7.97h8.864c0.454-1.26 1.527-4.198 2.535-6.651v0zM10.219 20.967c0.977 0 1.86 0.396 2.5 1.036s1.036 1.525 1.036 2.5-0.396 1.86-1.036 2.5-1.525 1.035-2.5 1.035-1.86-0.395-2.5-1.035-1.036-1.525-1.036-2.5 0.396-1.86 1.036-2.5 1.525-1.036 2.5-1.036v0zM11.402 23.32c-0.302-0.301-0.721-0.489-1.182-0.489s-0.881 0.187-1.183 0.489c-0.302 0.302-0.489 0.722-0.489 1.183s0.187 0.88 0.489 1.182 0.721 0.49 1.183 0.49 0.88-0.187 1.182-0.49 0.489-0.721 0.489-1.182-0.187-0.881-0.489-1.183v0zM42.413 20.967c0.977 0 1.86 0.396 2.5 1.036s1.035 1.525 1.035 2.5-0.395 1.86-1.035 2.5-1.525 1.035-2.5 1.035-1.86-0.395-2.5-1.035-1.036-1.525-1.036-2.5 0.396-1.86 1.036-2.5 1.525-1.036 2.5-1.036v0zM43.596 23.32c-0.302-0.301-0.721-0.489-1.182-0.489s-0.881 0.187-1.182 0.489c-0.302 0.302-0.49 0.722-0.49 1.183s0.187 0.88 0.49 1.182c0.301 0.302 0.721 0.49 1.182 0.49s0.88-0.187 1.182-0.49 0.49-0.721 0.49-1.182-0.188-0.881-0.49-1.183v0zM33.099 20.091h3.257c0.229-0.315 0.483-0.61 0.757-0.885l0.004-0.004c1.036-1.035 2.373-1.769 3.865-2.059l1.645-3.992h7.736l-1.699-4.712c-0.218-0.069-0.55-0.155-1.008-0.225-0.567 0.177-2.137 0.643-4.417 1.149-1.45 0.322-3.161 0.936-4.614 1.73-1.161 0.635-2.134 1.37-2.615 2.131-0.681 1.080-1.95 4.303-2.911 6.866v0zM35.362 21.955h-2.953c-0.351 0.962-0.578 1.6-0.58 1.607l-0.221 0.623h-11.569l-0.194-0.677c-0.001-0.006-0.182-0.628-0.479-1.552h-2.098c0.288 0.796 0.445 1.654 0.445 2.548 0 2.069-0.84 3.944-2.196 5.299s-3.231 2.196-5.3 2.196c-2.067 0-3.941-0.84-5.298-2.198-1.359-1.354-2.198-3.229-2.198-5.297 0-0.376 0.028-0.746 0.082-1.106l-1.011-0.362-0.161-0.373c-0.005-0.012-1.85-4.274-1.61-6.191 0.209-1.679 0.746-4.248 0.746-4.255l0.044-0.197 0.12-0.16c0.005-0.008 1.919-2.518 4.511-2.764 1.811-0.173 5.582-0.732 6.645-0.891 0.652-0.603 2.615-2.338 4.484-3.201 0.029-0.157 0.098-0.31 0.209-0.439 0.168-0.197 2.637-3.882 2.643-3.893 0.177-0.263 0.466-0.407 0.761-0.411l4.283-0.259c0.513-0.030 0.953 0.361 0.983 0.874s-0.361 0.953-0.874 0.983l-3.861 0.234c-0.365 0.547-1.057 1.583-1.631 2.424 0.954 0.036 1.894 0.16 2.824 0.428l0.141 0.041 0.020-0.040c0.050 0.025 0.103 0.058 0.159 0.098 1.037 0.338 2.053 0.86 3.047 1.645 0.939 0.742 2.115 1.356 3.352 1.721 1.113 0.329 2.264 0.453 3.318 0.277 0.808-0.135 2.185-0.433 3.756-0.771 3.084-0.667 6.908-1.494 9.045-1.636 3.374-0.225 5.057 0.617 5.061 0.62l0.333 0.166 2.867 7.952h-9.14l-0.83 2.017c1.82 0.15 3.458 0.951 4.676 2.17 1.356 1.36 2.196 3.234 2.196 5.3 0 2.069-0.84 3.944-2.196 5.299s-3.231 2.196-5.299 2.196c-2.066 0-3.94-0.84-5.298-2.198-1.359-1.354-2.197-3.229-2.197-5.297-0.001-0.896 0.156-1.753 0.443-2.549v0zM16.278 20.091h2.467c-0.583-1.67-1.325-3.58-2.037-4.816-1.135-1.966-3.385-4.241-4.4-5.22-0.818 0.122-2.957 0.438-4.796 0.672-0.166 0.512-1.148 3.514-1.68 4.399-0.62 1.033-2.902 1.209-3.916 1.236-0.016 0.114-0.031 0.225-0.044 0.335-0.143 1.148 0.912 3.865 1.318 4.858l0.12 0.043c0.38-0.9 0.93-1.711 1.61-2.391l0.004-0.004c1.359-1.357 3.232-2.196 5.297-2.196 2.070 0 3.944 0.84 5.3 2.196 0.273 0.275 0.527 0.572 0.756 0.888v0zM2.217 14.511c0.763-0.011 1.861-0.075 2.019-0.338 0.313-0.52 0.89-2.173 1.24-3.211-1.413 0.206-2.57 1.433-2.936 1.863-0.064 0.315-0.191 0.955-0.322 1.686v0zM25.146 8.86c0.87 1.376 1.738 2.856 2.291 3.891 0.761 1.419 4.713 1.157 6.219 1.002 0.295-0.642 0.562-1.172 0.78-1.519 0.663-1.051 1.882-1.997 3.299-2.771 0.083-0.045 0.167-0.090 0.251-0.135-0.647 0.138-1.285 0.275-1.893 0.407-1.574 0.34-2.953 0.638-3.844 0.787-1.342 0.224-2.78 0.077-4.148-0.328-1.043-0.308-2.054-0.77-2.956-1.333v0zM14.201 20.522c-1.019-1.019-2.428-1.65-3.982-1.65-1.558 0-2.966 0.629-3.983 1.646l-0.003 0.004c-1.017 1.016-1.646 2.424-1.646 3.982 0 1.554 0.63 2.963 1.649 3.981v0.004c1.017 1.017 2.425 1.646 3.983 1.646 1.555 0 2.963-0.63 3.982-1.65s1.649-2.427 1.649-3.981c0-1.557-0.629-2.967-1.646-3.982h-0.005zM46.395 20.522c-1.019-1.019-2.428-1.65-3.982-1.65-1.558 0-2.966 0.629-3.982 1.646l-0.004 0.004c-1.017 1.016-1.647 2.424-1.647 3.982 0 1.554 0.631 2.963 1.65 3.981v0.004c1.017 1.017 2.425 1.646 3.982 1.646 1.554 0 2.964-0.63 3.982-1.65s1.649-2.427 1.649-3.981c0-1.557-0.629-2.967-1.647-3.982h-0.003z"></path>
</symbol>
<symbol id="icon-bow" viewBox="0 0 31 32">
<path d="M15.796 1.485c-0.164-0.635 0.216-1.283 0.851-1.447 0.634-0.164 1.283 0.217 1.447 0.851 0.002 0.003 0.076 0.287 0.168 0.746l7.709 9.527-0.926 0.749-6.48-8.008c0.101 1.603-0.052 3.456-1.056 4.507-0.62 0.65-1.317 1.119-1.983 1.567-0.916 0.616-1.757 1.182-1.787 2.044-0.061 1.838 0.761 3.012 0.763 3.015 0.292 0.429 0.292 1.501 0 1.929-0.002 0.003-0.824 1.177-0.763 3.016 0.029 0.862 0.87 1.428 1.787 2.044 0.666 0.447 1.362 0.916 1.983 1.567 1.004 1.051 1.157 2.903 1.056 4.507l6.48-8.008 0.926 0.749-7.709 9.526c-0.091 0.459-0.166 0.743-0.168 0.746-0.164 0.635-0.812 1.015-1.447 0.851s-1.016-0.812-0.851-1.447c0.002-0.012 1.093-4.129-0.010-5.285-0.445-0.468-1.026-0.858-1.583-1.233-1.444-0.971-2.768-1.862-2.838-3.943-0.064-1.92 0.59-3.397 0.948-4.054-0.358-0.658-1.012-2.135-0.948-4.054 0.070-2.081 1.395-2.972 2.838-3.943 0.556-0.375 1.137-0.765 1.583-1.232 1.103-1.156 0.013-5.274 0.010-5.286v0zM0 15.973l7.297-3.198-0.785 1.917h3.341c0.185 0.573 0.399 1.019 0.557 1.307-0.152 0.28-0.357 0.707-0.539 1.254h-3.358l0.785 1.917-7.297-3.197zM25.035 14.692l0.669-1.352 1.922 0.95-0.199 0.401h2.039l0.337-0.679 1.497 0.74-0.648 1.31 0.648 1.309-1.497 0.74-0.425-0.858h-1.951l0.199 0.401-1.922 0.95-0.669-1.351h-9.183c0.098-0.187 0.168-0.287 0.169-0.289 0.292-0.429 0.292-1.5 0-1.929-0.001-0.001-0.084-0.121-0.197-0.343h9.211z"></path>
</symbol>
<symbol id="icon-fish" viewBox="0 0 31 32">
<path d="M27.826 2.503v0c0.323-0.257 0.531-0.654 0.531-1.1 0-0.775-0.629-1.403-1.404-1.403s-1.404 0.628-1.404 1.403c0 0.486 0.247 0.915 0.623 1.166-0.011 0.112-0.011 0.239 0.004 0.387 0.18 1.732 2.030 5.376 3.106 7.346s1.426 4.427-0.694 5.591c-2.12 1.164-3.531 0.232-4.382-0.873s-0.12-3.344-0.12-3.344l1.135 0.538-1.105-2.837c0 0-1.672 1.553-1.642 4.031s3.165 5.315 6.569 3.524c3.404-1.792 2.804-5.555 0.837-8.78-1.535-2.515-1.947-4.776-2.054-5.649zM0 19.917v0c0 0 1.735 2.193 1.639 5.044-0.097 2.853-1.639 5.228-1.639 5.228s3.687-0.911 4.845-3.523l0.131 0.298c0 0 0.597 0.478 1.254 0.835 0.656 0.359 2.747 1.613 2.747 1.613l-1.016 2.587 4.778-0.975c0 0 5.077 0.599 8.003-0.238s6.151-3.404 6.151-3.404l-1.494-1.912 2.15-2.090c0 0-2.091-2.21-4.539-3.404s-6.808-1.315-6.808-1.315c0 0-1.015-1.195-1.851-1.852s-2.389-0.836-2.389-0.836l-5.016 4.060 1.016 1.315c-1.152 0.461-2.269 1.376-3.038 2.104-1.063-3.040-4.924-3.537-4.924-3.537zM21.795 21.205c1.12 0.015 2.023 0.928 2.023 2.052 0 1.134-0.919 2.053-2.053 2.053s-2.053-0.919-2.053-2.053c0-1.123 0.904-2.036 2.023-2.052-0.604 0.015-1.089 0.511-1.089 1.119 0 0.618 0.501 1.119 1.119 1.119s1.12-0.501 1.12-1.119c0-0.609-0.485-1.104-1.090-1.119v0z"></path>
</symbol>
<symbol id="icon-radio" viewBox="0 0 13 32">
<path d="M2.98 10.581v-4.362c0-0.344-0.204-0.642-0.497-0.781v-4.876c0-0.309-0.252-0.562-0.562-0.562v0c-0.309 0-0.561 0.252-0.561 0.562v4.876c-0.293 0.139-0.497 0.437-0.497 0.781v4.436c-0.503 0.179-0.864 0.66-0.864 1.221v18.828c0 0.713 0.583 1.296 1.296 1.296h10.105c0.713 0 1.296-0.583 1.296-1.296v-18.828c0-0.713-0.583-1.296-1.296-1.296h-1.339v-1.202c0-0.36-0.294-0.655-0.655-0.655h-0.114c-0.361 0-0.655 0.294-0.655 0.655v1.202h-1.469v-2.029c0-0.428-0.35-0.778-0.778-0.778h-0.648c-0.428 0-0.778 0.35-0.778 0.778v2.029h-1.986zM2.138 12.090h8.419c0.416 0 0.757 0.341 0.757 0.757v3.5c0 0.416-0.341 0.757-0.757 0.757h-8.419c-0.416 0-0.757-0.341-0.757-0.757v-3.5c0.001-0.417 0.341-0.757 0.757-0.757v0zM6.348 19.304v0c2.742 0 4.965 2.223 4.965 4.966s-2.223 4.966-4.965 4.966c-2.743 0-4.966-2.223-4.966-4.966s2.224-4.966 4.966-4.966zM6.348 20.512v0c2.076 0 3.757 1.682 3.757 3.757s-1.682 3.757-3.757 3.757-3.757-1.682-3.757-3.757c0-2.075 1.682-3.757 3.757-3.757zM6.348 22.24c-1.121 0-2.029 0.909-2.029 2.029s0.909 2.030 2.029 2.030 2.029-0.909 2.029-2.030c0-1.121-0.909-2.029-2.029-2.029v0z"></path>
</symbol>
<symbol id="icon-ship" viewBox="0 0 63 32">
<path d="M15.85 12.041c-0.316-0.949-0.738-4.957-0.738-4.957l-0.025-0.046c2.010-0.611 5.057-1.539 5.561-1.695 0.764-0.237 1.265-0.711 1.080-1.555s-2.082-0.607-2.082-0.607l-5.796 1.601-0.531-0.969-3.901-0.42c0 0 8.858-3.692 15.185-3.374 6.328 0.316 18.983 3.163 18.983 3.163s-10.125 2.215-13.499 3.27-14.236 5.589-14.236 5.589v0zM0.323 28.259c0 0 11.316-7.328 25.354-3.765 15.492 3.933 18.197 4.538 32.526-1.527 0 0-11.584 9.923-25.401 6.408-20.583-5.235-18.91-4.268-32.478-1.116v0zM0.849 30.495c0 0 7.982-3.99 13.917-3.314 8.218 0.933 9.756 3.412 20.183 3.631-3.586 0.95-7.125 2.229-15.852-0.24-9.918-2.806-14.113-0.915-18.248-0.076v0zM0 21.888v5.291c0 0 9.754-7.649 26.173-3.788 16.419 3.862 25.135 1.641 25.64 0.755l11.39-20.036c0 0-4.851-0.422-20.67 2.32-15.818 2.742-42.498 15.041-42.498 15.041l-0.035 0.419zM33.301 15.416c-1.077 0-1.95-0.874-1.95-1.95s0.874-1.952 1.95-1.952c1.078 0 1.952 0.874 1.952 1.952s-0.874 1.95-1.952 1.95v0zM27.924 17.103c-1.078 0-1.952-0.874-1.952-1.95s0.874-1.95 1.952-1.95c1.077 0 1.95 0.874 1.95 1.95s-0.874 1.95-1.95 1.95v0zM22.546 18.79c-1.078 0-1.95-0.874-1.95-1.952 0-1.077 0.874-1.95 1.95-1.95s1.95 0.874 1.95 1.95c0 1.078-0.874 1.952-1.95 1.952v0z"></path>
</symbol>
<symbol id="icon-tent" viewBox="0 0 42 32">
<path d="M0.398 22.354c0.018-0.036 6.314-11.856 7.592-15.434 1.31-3.667 2.642-5.678 2.646-5.684l0.876-0.672 0.484 0.329c1.272 0.301 5.127 1.087 10.173 0.985 6.159-0.126 8.715-1.464 8.721-1.469l0.789-0.409 0.297 0.84c0.008 0.023 2.845 8.020 5.295 14.079 2.432 6.016 4.71 9.433 4.717 9.443l0.421 0.64-0.634 0.428c-0.007 0.005-2.544 1.74-7.058 3.201-4.298 1.391-8.295 3.204-8.582 3.331l0.024 0.039-11.525-3.733-0.143-0.305c-0.004-0.011-1.843-3.951-2.763-7.238-0.327-1.168-0.494-3.15-0.557-4.211-0.353 1.872-1.487 4.526-1.984 5.831-1.095 2.874-1.599 3.378-1.601 3.38l-0.364 0.364-7.223-2.983 0.398-0.751zM12.717 2.443c1.751 3.843 6.329 13.95 8.503 19.337 2.69 6.661 3.819 8.416 3.823 8.421l0.026 0.042c1.16-0.4 5.448-1.881 9.176-3.087 2.997-0.97 5.057-2.053 6.027-2.62-0.791-1.302-2.582-4.446-4.439-9.040-2.014-4.983-4.276-11.229-5.046-13.375-1.261 0.452-4.033 1.211-8.588 1.304-4.11 0.084-7.528-0.525-9.483-0.981v0zM9.452 7.442c-1.115 3.12-5.873 12.207-7.285 14.883l4.56 1.882c0.188-0.379 0.621-1.246 1.126-2.571 1.268-2.944 2.406-6.637 3.614-9.416 0.585 2.694 1.169 5.389 1.754 8.086 0.742 2.651 2.098 5.731 2.533 6.696l7.052 2.285c-0.642-1.31-1.635-3.486-3.026-6.931-2.188-5.418-6.785-15.566-8.506-19.342-0.48 1.014-1.147 2.535-1.823 4.428v0z"></path>
</symbol>
<symbol id="icon-alert" viewBox="0 0 32 32">
<path d="M17.658 19.316l0.617-12.569h-4.434l0.655 12.569h3.161zM16.039 25.754c1.504 0 2.467-1.080 2.467-2.545-0.039-1.465-1.002-2.545-2.467-2.545s-2.506 1.041-2.506 2.545c0.039 1.465 1.041 2.545 2.506 2.545z"></path>
<path d="M16 32c-8.829 0-16-7.171-16-16s7.171-16 16-16c8.829 0 16 7.171 16 16s-7.171 16-16 16zM16 1.157c-8.174 0-14.843 6.67-14.843 14.843s6.67 14.843 14.843 14.843c8.174 0 14.843-6.67 14.843-14.843s-6.67-14.843-14.843-14.843z"></path>
</symbol>
<symbol id="icon-arrow-left" viewBox="0 0 32 32">
<path d="M26.713 31.443l-22.539-15.722 22.539-15.722 1.53 2.226-19.2 13.496 19.2 13.496z"></path>
</symbol>
<symbol id="icon-arrow-right" viewBox="0 0 32 32">
<path d="M5.704 31.443l-1.53-2.226 19.2-13.496-19.2-13.496 1.53-2.226 22.539 15.722z"></path>
</symbol>
<symbol id="icon-fb" viewBox="0 0 32 32">
<path d="M16.050 0c-8.883 0-16.050 7.167-16.050 16.050 0 8.782 7.167 15.95 16.050 15.95s16.050-7.167 16.050-16.050c-0.101-8.782-7.268-15.95-16.050-15.95zM21.098 9.893h-1.817c-1.413 0-1.716 0.707-1.716 1.716v2.221h3.432l-0.404 3.432h-3.028v8.883h-3.533v-8.883h-3.028v-3.432h3.028v-2.524c0-2.927 1.817-4.543 4.442-4.543 1.211 0 2.322 0.101 2.625 0.101v3.028z"></path>
</symbol>
<symbol id="icon-inst" viewBox="0 0 32 32">
<path d="M21.6 10.1c-0.2-0.3-0.5-0.5-0.9-0.6-0.3-0.1-0.7-0.3-1.5-0.3-0.9 0-1.1 0-3.3 0s-2.5 0-3.3 0c-0.8 0.1-1.2 0.2-1.5 0.3s-0.6 0.3-0.9 0.6c-0.3 0.2-0.5 0.5-0.6 0.9-0.1 0.3-0.3 0.7-0.3 1.5 0 0.9 0 1.1 0 3.3s0 2.4 0 3.3c0.1 0.8 0.2 1.2 0.3 1.5s0.3 0.6 0.6 0.9 0.5 0.5 0.9 0.6c0.3 0.1 0.7 0.3 1.5 0.3 0.9 0 1.1 0 3.3 0s2.4 0 3.3 0c0.8-0.1 1.2-0.2 1.5-0.3s0.6-0.3 0.9-0.6c0.3-0.3 0.5-0.5 0.6-0.9 0.1-0.3 0.3-0.7 0.3-1.5 0-0.9 0-1.1 0-3.3s0-2.4 0-3.3c-0.1-0.8-0.2-1.2-0.3-1.5s-0.3-0.6-0.6-0.9zM15.9 20.1c-2.3 0-4.2-1.9-4.2-4.2s1.9-4.2 4.2-4.2c2.3 0 4.2 1.9 4.2 4.2s-1.9 4.2-4.2 4.2zM20.2 12.5c-0.5 0-1-0.4-1-1 0-0.5 0.4-1 1-1 0.6 0.1 1 0.5 1 1s-0.4 1-1 1z"></path>
<path d="M15.9 13.2c-1.5 0-2.7 1.2-2.7 2.7s1.2 2.7 2.7 2.7 2.7-1.2 2.7-2.7-1.2-2.7-2.7-2.7z"></path>
<path d="M15.9 0c-8.8 0-15.9 7.1-15.9 15.9 0 8.7 7.1 15.8 15.9 15.8s15.9-7.1 15.9-15.9c-0.1-8.7-7.2-15.8-15.9-15.8zM24 19.3c-0.1 0.9-0.2 1.5-0.4 2s-0.4 0.9-0.9 1.4c-0.4 0.4-0.9 0.7-1.4 0.9s-1.1 0.4-2 0.4c-0.9 0-1.2 0-3.4 0-2.3 0-2.5 0-3.4 0-0.9-0.1-1.5-0.2-2-0.4s-0.9-0.4-1.4-0.9c-0.4-0.4-0.7-0.9-0.9-1.4s-0.4-1.1-0.4-2c0-0.9 0-1.2 0-3.4 0-2.3 0-2.5 0-3.4 0.1-0.9 0.2-1.5 0.4-2s0.4-0.9 0.9-1.5c0.4-0.4 0.9-0.7 1.4-0.9s1.1-0.4 2-0.4 1.2 0 3.4 0c2.2 0 2.5 0 3.4 0.1s1.5 0.2 2 0.4 0.9 0.4 1.4 0.9c0.4 0.4 0.7 0.9 0.9 1.4s0.4 1.1 0.4 2c0.1 0.9 0.1 1.1 0.1 3.4s-0.1 2.5-0.1 3.4z"></path>
</symbol>
<symbol id="icon-mail" viewBox="0 0 32 32">
<path d="M0 6.326v19.349h32v-19.349h-32zM31.256 7.070v17.86h-0.223l-10.344-8.93 10.344-8.93h0.223zM16 19.051l-13.842-11.907h27.609l-13.767 11.907zM16 20.093l4.167-3.572 9.674 8.335h-27.684l9.674-8.335 4.167 3.572zM11.312 16l-10.344 8.93h-0.223v-17.86h0.223l10.344 8.93z"></path>
</symbol>
<symbol id="icon-search" viewBox="0 0 33 32">
<path d="M32.523 30.327l-9.203-9.203c1.778-2.301 2.824-5.124 2.824-8.052 0-3.451-1.359-6.797-3.869-9.203-5.124-5.124-13.386-5.124-18.51 0-2.405 2.405-3.765 5.752-3.765 9.203s1.359 6.797 3.869 9.203c2.405 2.51 5.752 3.869 9.203 3.869 3.242 0 6.275-1.15 8.575-3.242l9.098 9.098 1.778-1.673zM4.601 21.542c-2.301-2.196-3.556-5.229-3.556-8.471s1.255-6.274 3.556-8.471c2.301-2.405 5.438-3.556 8.471-3.556s6.17 1.15 8.471 3.556c2.301 2.301 3.556 5.333 3.556 8.471s-1.255 6.275-3.556 8.471-5.229 3.556-8.471 3.556c-3.242 0-6.274-1.255-8.471-3.556z"></path>
</symbol>
<symbol id="icon-vk" viewBox="0 0 32 32">
<path d="M16.027 0c-8.844 0-16.027 7.183-16.027 16.027s7.183 15.973 16.027 15.973 16.027-7.183 16.027-16.027c0-8.791-7.183-15.973-16.027-15.973zM23.638 18.707c1.662 1.554 1.983 2.251 2.037 2.358 0.643 1.072-0.75 1.179-0.75 1.179l-2.734 0.054c0 0-0.59 0.107-1.34-0.429-1.018-0.697-1.983-2.466-2.734-2.251-0.75 0.268-0.75 1.876-0.75 1.876s0 0.375-0.161 0.536c-0.161 0.214-0.536 0.268-0.536 0.268h-1.233c0 0-2.68 0.161-4.931-2.412-2.573-2.68-4.824-7.987-4.824-7.987s-0.161-0.375 0-0.536c0.161-0.214 0.59-0.214 0.59-0.214h2.894c0 0 0.268 0.054 0.482 0.214 0.161 0.107 0.268 0.322 0.268 0.322s0.429 1.179 1.072 2.251c1.233 2.090 1.769 2.519 2.198 2.305 0.59-0.322 0.429-2.948 0.429-2.948s0-0.965-0.322-1.394c-0.268-0.322-0.697-0.375-0.911-0.429-0.161-0.054 0.107-0.429 0.429-0.59 0.482-0.268 1.447-0.268 2.519-0.268 0.858 0.054 1.126 0.054 1.447 0.161 0.965 0.268 0.643 1.179 0.643 3.431 0 0.697-0.161 1.715 0.375 2.037 0.214 0.107 0.804 0 2.144-2.305 0.643-1.072 1.126-2.358 1.126-2.358s0.107-0.214 0.268-0.322 0.375-0.054 0.375-0.054h3.055c0 0 0.911-0.107 1.072 0.322s-0.375 1.447-1.608 3.109c-2.090 2.734-2.305 2.519-0.59 4.074z"></path>
</symbol>
<symbol id="icon-youtube" viewBox="0 0 32 32">
<path d="M17.767 18.17c-0.303 0-0.606 0.202-0.909 0.505v-2.12h-0.909v6.461h0.909v-0.505c0.303 0.303 0.606 0.505 0.909 0.505 0.404 0 0.606-0.101 0.707-0.505 0.101-0.202 0.101-0.606 0.101-1.009v-1.817c0-0.505 0-0.808-0.101-1.009-0.101-0.303-0.404-0.505-0.707-0.505zM17.767 21.603c0 0.404-0.101 0.606-0.404 0.606-0.101 0-0.303-0.101-0.404-0.202v-2.927c0.101-0.101 0.303-0.202 0.404-0.202 0.202 0 0.404 0.202 0.404 0.707v2.019z"></path>
<path d="M14.233 21.804c-0.101 0.303-0.303 0.404-0.505 0.404-0.101 0-0.202-0.101-0.202-0.202 0 0 0-0.101 0-0.303v-3.533h-0.909v3.735c0 0.303 0.101 0.606 0.101 0.707 0.101 0.303 0.303 0.404 0.606 0.404s0.707-0.202 1.009-0.606v0.505h0.808v-4.744h-0.909v3.634z"></path>
<path d="M15.546 13.224c0.303 0 0.404-0.303 0.404-0.707v-2.019c0-0.505-0.101-0.707-0.404-0.707s-0.404 0.303-0.404 0.707v2.019c0 0.505 0.101 0.707 0.404 0.707z"></path>
<path d="M12.618 16.454h-3.028v0.909h1.009v5.552h1.009v-5.552h1.009z"></path>
<path d="M16.050 0c-8.883 0-16.050 7.167-16.050 16.050 0 8.782 7.167 15.95 16.050 15.95s16.050-7.167 16.050-16.050c-0.101-8.782-7.268-15.95-16.050-15.95zM17.464 8.984h0.909v3.634c0 0.202 0 0.303 0 0.303 0 0.101 0.101 0.202 0.202 0.202 0.202 0 0.404-0.101 0.606-0.404v-3.735h0.909v4.946l-0.909-0.101v-0.505c-0.303 0.404-0.707 0.606-1.009 0.606s-0.505-0.202-0.606-0.404c-0.101-0.101-0.101-0.404-0.101-0.707v-3.836zM15.546 8.984c0.404 0 0.808 0.202 1.009 0.505 0.202 0.202 0.303 0.606 0.303 1.11v1.716c0 0.505-0.101 0.909-0.303 1.11-0.202 0.303-0.606 0.505-1.009 0.505s-0.808-0.202-1.009-0.505c-0.202-0.202-0.303-0.606-0.303-1.11v-1.716c0-0.505 0.101-0.909 0.303-1.11 0.202-0.303 0.606-0.505 1.009-0.505zM11.811 7.369l0.707 2.524 0.707-2.524h1.009l-1.211 3.836v2.625h-1.009v-2.625c-0.101-0.404-0.303-1.11-0.606-2.019-0.202-0.606-0.404-1.211-0.606-1.817h1.009zM22.915 19.785c0 1.11-0.101 2.322-0.303 3.432-0.101 0.808-0.707 1.312-1.514 1.413-1.817 0.202-3.634 0.202-5.451 0.202s-3.634 0-5.451-0.202c-0.707-0.101-1.312-0.606-1.514-1.413-0.202-1.11-0.202-2.322-0.202-3.432s0.101-2.322 0.303-3.432c0.101-0.808 0.808-1.312 1.514-1.413 1.817-0.202 3.634-0.202 5.451-0.202s3.634 0 5.451 0.202c0.707 0.101 1.312 0.606 1.514 1.413 0.303 1.11 0.303 2.322 0.202 3.432z"></path>
<path d="M20.694 18.069c-0.404 0-0.707 0.202-1.009 0.505-0.202 0.202-0.303 0.606-0.303 1.11v1.716c0 0.505 0.101 0.909 0.303 1.11 0.202 0.303 0.505 0.505 1.009 0.505 0.404 0 0.808-0.202 1.009-0.505 0.101-0.101 0.202-0.303 0.202-0.505 0-0.101 0-0.303 0-0.606v-0.101h-0.909c0 0.404 0 0.606 0 0.606-0.101 0.202-0.202 0.303-0.404 0.303-0.303 0-0.404-0.303-0.404-0.707v-0.808h1.716l0.101-1.009c0-0.505-0.101-0.909-0.303-1.11-0.202-0.303-0.606-0.505-1.009-0.505zM21.098 19.987h-0.909v-0.404c0-0.505 0.101-0.707 0.404-0.707s0.404 0.202 0.505 0.707v0.404z"></path>
</symbol>
</defs>
</svg>
