<svg width="102" height="100" viewBox="0 0 102 100" fill="none" xmlns="http://www.w3.org/2000/svg">
<g clip-path="url(#clip0)">
<path d="M44.2144 47.1842H29.9666V40.4263H45.3429V33.2865H20.1927V76.7497C14.0866 69.7104 10.3986 60.539 10.3986 50.5229C10.3986 28.3589 28.4552 10.358 50.6632 10.358C54.21 10.358 57.6561 10.8206 60.961 11.7055V1.04586C57.5956 0.362027 54.1696 0 50.643 0C22.7118 0 0 22.667 0 50.543C0 71.0177 12.293 88.6967 29.9062 96.6009L29.9465 54.3041H44.1942V47.1842H44.2144Z" fill="#041054"/>
<path d="M71.3198 4.4248V16.0097V45.897H59.2888V33.2865H49.5149V67.7595H59.2888V53.6203H71.3198V67.7595H81.0938V24.2961C87.2 31.3355 90.8878 40.5069 90.8878 50.5229C90.8878 64.461 83.7338 76.7498 72.8917 83.9502V71.8624H62.6744L56.266 86.0017L49.8978 71.8624H40.2852V89.3202V99.9799H40.3053H47.4796V90.527V81.416L51.3488 90.6476L53.5253 95.8569H59.1277L62.1303 88.9783L65.4958 81.3153V87.7917V98.7732C68.0552 97.9888 70.5138 97.0032 72.8716 95.8367C89.6787 87.6107 101.246 70.354 101.246 50.4626C101.266 30.0281 88.9531 12.3291 71.3198 4.4248Z" fill="#041054"/>
</g>
<defs>
<clipPath id="clip0">
<rect width="101.266" height="100" fill="white"/>
</clipPath>
</defs>
</svg>
