<svg width="205" height="94" viewBox="0 0 205 94" fill="none" xmlns="http://www.w3.org/2000/svg">
<path d="M198.326 0.797363C200.718 0.797363 204.704 2.55125 204.704 8.79236C204.704 11.5485 204.704 16.4229 204.704 20.2724C204.704 27.0146 199.738 28.1079 198.281 28.1079C196.914 28.1079 187.279 28.1079 185.001 28.1079C182.701 28.1079 178.601 26.4679 178.601 20.204C178.601 18.7463 178.601 10.0907 178.601 8.47347C178.601 4.48736 180.878 0.842919 185.092 0.820141C186.163 0.797363 196.914 0.797363 198.326 0.797363ZM189.147 5.55792C187.325 5.55792 186.117 7.15236 186.117 8.51903C186.117 9.90847 186.117 19.3612 186.117 20.2724C186.117 22.2768 187.78 23.3474 189.124 23.3474C190.126 23.3474 192.632 23.3474 194.158 23.3474C195.57 23.3474 197.165 22.0946 197.165 20.3635C197.165 18.6096 197.165 10.0224 197.165 8.56459C197.165 7.08403 195.798 5.5807 194.181 5.5807C192.541 5.55792 189.898 5.55792 189.147 5.55792Z" fill="#00A7E1"/>
<path d="M116.282 8.67838C116.259 4.03171 118.81 0.751709 122.773 0.751709C124.641 0.751709 135.164 0.751709 136.964 0.751709C140.768 0.751709 143.228 4.07726 143.228 8.49615C143.228 11.2295 143.228 27.9712 143.228 27.9712H135.757V21.9578H123.776V27.9939H116.282C116.282 27.9939 116.282 11.7306 116.282 8.67838ZM123.776 16.6506H135.711C135.711 16.6506 135.711 9.97671 135.711 8.70115C135.734 7.28893 134.663 5.51226 132.841 5.51226C131.019 5.51226 128.172 5.51226 126.759 5.51226C125.279 5.51226 123.753 6.87893 123.753 8.51893C123.776 10.1817 123.776 16.6506 123.776 16.6506Z" fill="#00A7E1"/>
<path d="M148.238 28.0394H155.777V5.55778C155.777 5.55778 161.699 5.55778 163.203 5.55778C164.911 5.55778 166.209 6.97 166.323 8.56444C166.323 10.0678 166.323 28.0394 166.323 28.0394H173.749C173.749 28.0394 173.749 11.9811 173.749 8.76944C173.749 5.05667 172.041 0.728888 167.234 0.842777C165.23 0.842777 148.261 0.842777 148.261 0.842777V28.0394H148.238Z" fill="#00A7E1"/>
<path d="M76.0558 0.842773V28.0394H83.4813V5.55777H89.9958V28.0394H97.5352V5.55777C97.5352 5.55777 99.7447 5.55777 100.952 5.55777C102.569 5.55777 103.959 7.06111 103.959 8.56444C103.959 10.1589 103.959 28.0394 103.959 28.0394H111.498C111.498 28.0394 111.498 11.1839 111.498 8.56444C111.498 4.64666 109.38 0.842773 105.075 0.842773C103.867 0.842773 76.0558 0.842773 76.0558 0.842773Z" fill="#00A7E1"/>
<path d="M70.2248 0.774414H62.2754V27.9939H70.2248V0.774414Z" fill="#00A7E1"/>
<path d="M30.3866 0.842773V28.0394H37.926V22.0261H48.9505V28.0394H56.4899V0.842773H48.9505V16.6961H37.926V0.842773H30.3866Z" fill="#00A7E1"/>
<path d="M25.466 0.842773C25.466 0.842773 8.24597 0.842773 6.83375 0.842773C2.20986 0.842773 0.387639 4.46444 0.159861 5.35277C-0.455139 7.88111 -0.477917 11.2522 0.27375 13.1883C0.706528 14.3272 2.57431 17.1972 6.81097 17.1972C8.10931 17.1972 15.2388 17.1972 16.5371 17.1972C17.9493 17.1972 18.8376 18.1994 18.9515 20.1128C19.0426 21.9122 18.3593 23.3244 16.5371 23.3244C14.8287 23.3244 0.569861 23.3244 0.569861 23.3244V28.0394C0.569861 28.0394 17.2432 28.0394 19.2476 28.0394C23.7576 27.9483 24.9193 25.1922 25.466 23.9167C26.6049 21.2517 26.4682 17.4933 25.466 14.8739C25.1699 13.9628 23.4615 11.07 19.0426 11.07C17.7443 11.07 10.706 11.07 9.20264 11.07C7.79042 11.07 6.99319 10.0678 6.99319 8.26833C6.99319 6.46889 7.79042 5.46666 9.20264 5.46666C10.6149 5.46666 25.466 5.46666 25.466 5.46666V0.842773Z" fill="#00A7E1"/>
<path d="M204.704 37.1506H-0.296021V41.7062H204.704V37.1506Z" fill="#6CC72B"/>
<path d="M204.704 41.7061H-0.296021V46.2616H204.704V41.7061Z" fill="#00A7E1"/>
<path d="M204.704 46.2617H-0.296021V50.8173H204.704V46.2617Z" fill="#0033A1"/>
<path d="M38.6547 65.3723H40.4086V77.6495H38.4497V68.174L36.7869 69.8595L35.8075 68.2651L38.6547 65.3723Z" fill="#00A7E1"/>
<path d="M42.5721 71.5453C42.5721 68.4703 43.3238 65.1675 45.966 65.1675C48.836 65.1675 49.4055 68.698 49.4055 71.5453C49.4055 74.3925 48.8133 77.8547 45.966 77.8547C42.9366 77.8547 42.5721 74.1191 42.5721 71.5453ZM47.4238 71.5453C47.4238 69.9736 47.4238 66.9897 45.966 66.9897C44.531 66.9897 44.531 69.9508 44.531 71.5453C44.531 73.0941 44.5083 76.0325 45.966 76.0325C47.4466 76.0325 47.4238 73.0941 47.4238 71.5453Z" fill="#00A7E1"/>
<path d="M50.5219 71.5453C50.5219 68.4703 51.2735 65.1675 53.9157 65.1675C56.7857 65.1675 57.3552 68.698 57.3552 71.5453C57.3552 74.3925 56.763 77.8547 53.9157 77.8547C50.9091 77.8547 50.5219 74.1191 50.5219 71.5453ZM55.3963 71.5453C55.3963 69.9736 55.3963 66.9897 53.9385 66.9897C52.5035 66.9897 52.5035 69.9508 52.5035 71.5453C52.5035 73.0941 52.4807 76.0325 53.9385 76.0325C55.3963 76.0325 55.3963 73.0941 55.3963 71.5453Z" fill="#00A7E1"/>
<path d="M59.793 70.5202H58.4491V68.8575H59.793V67.1263L61.6152 66.3975V68.8575H63.2324V70.5202H61.6152V74.5747C61.6152 75.3264 61.7747 76.0097 62.458 76.0097C62.7769 76.0097 63.0958 75.9186 63.278 75.7819L63.3235 77.5814C62.9363 77.718 62.5263 77.7864 61.9796 77.7864C60.5674 77.7864 59.7702 76.693 59.7702 74.9619V70.5202H59.793Z" fill="#00A7E1"/>
<path d="M64.5985 64.894H66.4207V70.0418H66.4435C66.899 69.199 67.6962 68.6524 68.6301 68.6524C70.2701 68.6524 70.999 70.1102 70.999 72.069V77.5585H69.1768V72.9118C69.1768 71.8413 69.154 70.4063 67.9924 70.4063C66.6712 70.4063 66.3979 72.1829 66.3979 73.299V77.5585H64.5757V64.894H64.5985Z" fill="#00A7E1"/>
<path d="M79.7682 65.7825H81.9094L85.6221 77.5814H83.5266L82.7066 74.8708H78.8799L78.0599 77.5814H76.0782L79.7682 65.7825ZM80.7932 68.1514H80.7705L79.4038 73.0258H82.1599L80.7932 68.1514Z" fill="#00A7E1"/>
<path d="M86.853 65.7825H89.1763L92.7752 74.5975H92.798V65.7825H94.6202V77.5814H92.2969L88.6752 68.7664H88.6524V77.5814H86.8302V65.7825H86.853Z" fill="#00A7E1"/>
<path d="M96.7605 65.7825H99.0838L102.683 74.5975H102.705V65.7825H104.528V77.5814H102.204L98.6055 68.7664H98.5827V77.5814H96.7605V65.7825Z" fill="#00A7E1"/>
<path d="M106.601 65.7825H108.492V77.5814H106.601V65.7825Z" fill="#00A7E1"/>
<path d="M109.699 65.7825H111.726L114.141 75.053H114.164L116.555 65.7825H118.446L115.28 77.5814H112.956L109.699 65.7825Z" fill="#00A7E1"/>
<path d="M119.812 65.7825H125.392V67.6503H121.725V70.5658H125.096V72.4336H121.725V75.7364H125.438V77.6041H119.812V65.7825Z" fill="#00A7E1"/>
<path d="M127.306 65.7825H129.356C131.383 65.7825 133.798 65.6914 133.798 68.9714C133.798 70.3608 133.046 71.4997 131.862 71.7047V71.7275C132.385 71.773 132.682 72.4108 132.864 72.9347L134.367 77.5586H132.249L131.11 73.8686C130.837 72.9803 130.586 72.6614 129.789 72.6614H129.174V77.5586H127.283V65.7825H127.306ZM129.197 70.8164H129.812C130.745 70.8164 131.816 70.6569 131.816 69.1764C131.816 67.7642 130.768 67.6275 129.812 67.6275H129.197V70.8164Z" fill="#00A7E1"/>
<path d="M140.927 67.9465C140.335 67.6276 139.674 67.4453 139.013 67.4453C138.376 67.4453 137.533 67.8098 137.533 69.0853C137.533 71.1353 141.678 70.2698 141.678 74.2331C141.678 76.8298 140.038 77.8092 138.125 77.8092C137.1 77.8092 136.645 77.6498 135.711 77.3537L135.893 75.2126C136.553 75.6453 137.282 75.9415 138.034 75.9415C138.74 75.9415 139.72 75.4859 139.72 74.4153C139.72 72.1603 135.574 73.0942 135.574 69.1992C135.574 66.557 137.214 65.6003 138.877 65.6003C139.697 65.6003 140.448 65.737 141.132 66.0331L140.927 67.9465Z" fill="#00A7E1"/>
<path d="M146.212 65.7825H148.353L152.066 77.5814H149.97L149.15 74.8708H145.323L144.503 77.5814H142.545L146.212 65.7825ZM147.26 68.1514H147.237L145.87 73.0258H148.626L147.26 68.1514Z" fill="#00A7E1"/>
<path d="M153.249 65.7825H155.299C157.327 65.7825 159.741 65.6914 159.741 68.9714C159.741 70.3608 158.989 71.4997 157.805 71.7047V71.7275C158.329 71.773 158.625 72.4108 158.807 72.9347L160.311 77.5586H158.192L157.053 73.8686C156.78 72.9803 156.529 72.6614 155.732 72.6614H155.117V77.5586H153.227V65.7825H153.249ZM155.14 70.8164H155.755C156.689 70.8164 157.759 70.6569 157.759 69.1764C157.759 67.7642 156.712 67.6275 155.755 67.6275H155.14V70.8164Z" fill="#00A7E1"/>
<path d="M164.32 72.9119L160.88 65.7825H163.09L165.322 70.7253L167.6 65.7825H169.604L166.233 72.9119V77.5814H164.343V72.9119H164.32Z" fill="#00A7E1"/>
<path d="M76.9216 84.9158H78.106V93.1613H76.7621V86.7835L75.646 87.9224L74.9855 86.8519L76.9216 84.9158Z" fill="#00A7E1"/>
<path d="M81.181 91.6807C81.5227 91.8629 81.8872 92.0224 82.3427 92.0224C83.4816 92.0224 83.8688 90.7013 83.9144 89.4713L83.8916 89.4485C83.5727 90.0179 83.1627 90.2685 82.6161 90.2685C81.3633 90.2685 80.6799 89.2663 80.6799 87.7402C80.6799 85.9635 81.3861 84.7791 82.8666 84.7791C84.7116 84.7791 85.1216 86.6924 85.1216 88.6285C85.1216 90.8607 84.5522 93.3207 82.411 93.3207C81.9327 93.3207 81.4772 93.2296 81.0216 93.0246L81.181 91.6807ZM83.7777 87.4668C83.7777 86.6924 83.5044 86.009 82.8666 86.009C82.2516 86.009 82.001 86.7607 82.001 87.4896C82.001 88.2868 82.2744 89.0385 82.9122 89.0385C83.5499 89.0157 83.7777 88.2868 83.7777 87.4668Z" fill="#00A7E1"/>
<path d="M86.6704 93.1614V91.7719C87.2854 91.0202 89.5404 88.6741 89.5404 87.1708C89.5404 86.4191 88.9937 86.0547 88.4699 86.0547C87.9004 86.0547 87.3765 86.3508 86.9437 86.7152L86.8299 85.3486C87.4221 84.9614 88.1282 84.7563 88.7887 84.7563C90.0415 84.7563 90.8615 85.5536 90.8615 87.1708C90.8615 88.9247 89.4493 90.5191 88.3787 91.863H91.0893V93.1614H86.6704Z" fill="#00A7E1"/>
<path d="M94.9838 84.9158H96.1682V93.1613H94.8471V86.7835L93.731 87.9224L93.0704 86.8519L94.9838 84.9158Z" fill="#00A7E1"/>
<path d="M99.8363 88.7195H104.574V89.8128H99.8363V88.7195Z" fill="#00A7E1"/>
<path d="M107.239 93.1614V91.7719C107.854 91.0202 110.109 88.6741 110.109 87.1708C110.109 86.4191 109.562 86.0547 109.038 86.0547C108.469 86.0547 107.945 86.3508 107.512 86.7152L107.398 85.3486C107.991 84.9614 108.697 84.7563 109.357 84.7563C110.61 84.7563 111.43 85.5536 111.43 87.1708C111.43 88.9247 110.018 90.5191 108.947 91.863H111.658V93.1614H107.239Z" fill="#00A7E1"/>
<path d="M113.207 89.0613C113.207 86.9886 113.708 84.7563 115.508 84.7563C117.444 84.7563 117.831 87.1252 117.831 89.0613C117.831 90.9747 117.444 93.298 115.508 93.298C113.458 93.298 113.207 90.7925 113.207 89.0613ZM116.487 89.0613C116.487 87.9908 116.487 85.9864 115.508 85.9864C114.551 85.9864 114.551 87.9908 114.551 89.0613C114.551 90.1091 114.551 92.068 115.508 92.068C116.487 92.068 116.487 90.1091 116.487 89.0613Z" fill="#00A7E1"/>
<path d="M119.289 93.1614V91.7719C119.904 91.0202 122.159 88.6741 122.159 87.1708C122.159 86.4191 121.612 86.0547 121.088 86.0547C120.519 86.0547 119.995 86.3508 119.562 86.7152L119.448 85.3486C120.04 84.9614 120.746 84.7563 121.407 84.7563C122.66 84.7563 123.48 85.5536 123.48 87.1708C123.48 88.9247 122.067 90.5191 120.997 91.863H123.707V93.1614H119.289Z" fill="#00A7E1"/>
<path d="M127.602 84.9158H128.786V93.1613H127.465V86.7835L126.349 87.9224L125.689 86.8519L127.602 84.9158Z" fill="#00A7E1"/>
</svg>
